<?xml version="1.0" standalone="no"?>
<!DOCTYPE svg PUBLIC "-//W3C//DTD SVG 1.1//EN" "http://www.w3.org/Graphics/SVG/1.1/DTD/svg11.dtd" >
<svg xmlns="http://www.w3.org/2000/svg" xmlns:xlink="http://www.w3.org/1999/xlink" version="1.1">
<metadata>
Created by FontForge 20201107 at Sun Feb  9 12:52:43 2014
 By Unknown
Copyright \(c\) 2013 by Jeremy Dooley. All rights reserved.
</metadata>
<defs>
<font id="Steagal-Light" horiz-adv-x="600" >
  <font-face 
    font-family="Steagal"
    font-weight="300"
    font-stretch="normal"
    units-per-em="1000"
    panose-1="0 0 0 0 0 0 0 0 0 0"
    ascent="800"
    descent="-200"
    x-height="465"
    cap-height="700"
    bbox="-96.9657 -240 1466 891"
    underline-thickness="55"
    underline-position="-110"
    unicode-range="U+0020-FB04"
  />
<missing-glyph horiz-adv-x="575" 
d="M555 -37h-527v784h527v-784zM236 210v-59c0 -5 2 -8 6 -8h44c5 0 7 2 7 7v60c0 136 201 178 201 334c0 109 -83 166 -199 166c-55 0 -103 -14 -142 -41s-60 -65 -63 -115c-1 -7 0 -10 5 -10h42c5 0 8 5 9 14c3 33 19 58 48 76c30 18 63 27 100 27c84 0 140 -49 140 -120
c0 -47 -31 -92 -70 -129c-56 -52 -128 -114 -128 -202zM266 67c-51 4 -51 -78 0 -75c21 0 39 17 39 38c0 20 -18 37 -39 37z" />
    <glyph glyph-name="ff" unicode="ff" horiz-adv-x="745" 
d="M630 700c-63 0 -83 -34 -83 -119v-107c0 -6 2 -9 7 -9h125c6 0 9 -3 9 -8v-33c0 -5 -3 -8 -8 -8h-125c-8 0 -8 -2 -8 -10v-397c0 -6 -2 -9 -7 -9h-40c-5 0 -7 3 -7 10v399c0 7 0 7 -7 7h-260c-8 0 -8 -2 -8 -10v-397c0 -6 -3 -9 -8 -9h-39c-5 0 -7 3 -7 10v399
c0 5 -3 7 -8 7h-113c-6 0 -9 3 -9 8v33c0 5 3 8 8 8h114c8 0 8 0 8 7v110c0 121 37 168 128 168c33 0 61 -6 85 -19c5 -3 8 -7 8 -12v-33c0 -6 -5 -8 -9 -4c-20 12 -45 18 -75 18c-63 0 -83 -34 -83 -119v-107c0 -8 0 -9 7 -9h261c7 0 7 0 7 7v110c0 121 38 168 129 168
c32 0 60 -6 84 -19c5 -3 8 -7 8 -12v-33c0 -6 -3 -7 -9 -4c-19 12 -44 18 -75 18z" />
    <glyph glyph-name="fi" unicode="fi" horiz-adv-x="670" 
d="M570 454v-445c0 -6 -3 -9 -8 -9h-37c-6 0 -9 3 -9 8v408h-290c-8 0 -8 -2 -8 -10v-397c0 -6 -3 -9 -8 -9h-39c-5 0 -7 3 -7 10v399c0 5 -3 7 -8 7h-113c-6 0 -9 3 -9 8v33c0 5 3 8 8 8h114c8 0 8 0 8 7v110c0 121 37 168 128 168c33 0 61 -6 85 -19c5 -3 8 -7 8 -12v-33
c0 -6 -5 -8 -9 -4c-20 12 -45 18 -75 18c-63 0 -83 -34 -83 -119v-107c0 -8 0 -9 7 -9h336c6 0 9 -4 9 -11zM583 643c0 -24 -16 -40 -40 -40c-25 0 -40 16 -40 40c0 23 16 41 40 41s40 -18 40 -41z" />
    <glyph glyph-name="fl" unicode="fl" horiz-adv-x="648" 
d="M560 731v-722c0 -6 -3 -9 -8 -9h-38c-5 0 -8 4 -8 11v405h-280c-8 0 -8 -2 -8 -10v-397c0 -6 -3 -9 -8 -9h-39c-5 0 -7 3 -7 10v399c0 5 -3 7 -8 7h-113c-6 0 -9 3 -9 8v33c0 5 3 8 8 8h114c8 0 8 0 8 7v110c0 121 37 168 128 168c33 0 61 -6 85 -19c5 -3 8 -7 8 -12v-33
c0 -6 -5 -8 -9 -4c-20 12 -45 18 -75 18c-63 0 -83 -34 -83 -119v-107c0 -8 0 -9 7 -9h281v266c0 6 2 9 6 9h41c5 0 7 -3 7 -9z" />
    <glyph glyph-name="ffl" unicode="ffl" horiz-adv-x="958" 
d="M630 700c-63 0 -83 -34 -83 -119v-107c0 -6 2 -9 7 -9h262v266c0 6 2 9 6 9h41c5 0 7 -3 7 -9v-722c0 -6 -3 -9 -8 -9h-38c-5 0 -8 4 -8 11v405h-261c-8 0 -8 -2 -8 -10v-397c0 -6 -2 -9 -7 -9h-40c-5 0 -7 3 -7 10v399c0 7 0 7 -7 7h-260c-8 0 -8 -2 -8 -10v-397
c0 -6 -3 -9 -8 -9h-39c-5 0 -7 3 -7 10v399c0 5 -3 7 -8 7h-113c-6 0 -9 3 -9 8v33c0 5 3 8 8 8h114c8 0 8 0 8 7v110c0 121 37 168 128 168c33 0 61 -6 85 -19c5 -3 8 -7 8 -12v-33c0 -6 -5 -8 -9 -4c-20 12 -45 18 -75 18c-63 0 -83 -34 -83 -119v-107c0 -8 0 -9 7 -9h261
c7 0 7 0 7 7v110c0 121 38 168 129 168c32 0 60 -6 84 -19c5 -3 8 -7 8 -12v-33c0 -6 -3 -7 -9 -4c-19 12 -44 18 -75 18z" />
    <glyph glyph-name="f_f_j" unicode="ffj" horiz-adv-x="961" 
d="M775 -177c-19 0 -35 2 -48 7c-6 2 -9 6 -9 12v28c0 7 3 9 10 7c15 -3 29 -5 42 -5c27 0 40 20 40 59v485h-255c-8 0 -8 -2 -8 -10v-397c0 -6 -2 -9 -7 -9h-40c-5 0 -7 3 -7 10v399c0 7 0 7 -7 7h-260c-8 0 -8 -2 -8 -10v-397c0 -6 -3 -9 -8 -9h-39c-5 0 -7 3 -7 10v399
c0 5 -3 7 -8 7h-113c-6 0 -9 3 -9 8v33c0 5 3 8 8 8h114c8 0 8 0 8 7v110c0 121 37 168 128 168c33 0 61 -6 85 -19c5 -3 8 -7 8 -12v-33c0 -6 -5 -8 -9 -4c-20 12 -45 18 -75 18c-63 0 -83 -34 -83 -119v-107c0 -8 0 -9 7 -9h261c7 0 7 0 7 7v110c0 121 38 168 129 168
c32 0 60 -6 84 -19c5 -3 8 -7 8 -12v-33c0 -6 -3 -7 -9 -4c-19 12 -44 18 -75 18c-63 0 -83 -34 -83 -119v-107c0 -6 2 -9 7 -9h302c5 0 8 -2 8 -7v-530c0 -73 -29 -105 -89 -105zM881 644c4 -52 -87 -52 -81 0c0 23 16 41 40 41s41 -18 41 -41z" />
    <glyph glyph-name="f_j" unicode="fj" horiz-adv-x="662" 
d="M475 -177c-19 0 -35 2 -48 7c-6 2 -9 6 -9 12v28c0 7 3 9 10 7c15 -3 29 -5 42 -5c27 0 40 20 40 59v485h-284c-8 0 -8 -2 -8 -10v-397c0 -6 -3 -9 -8 -9h-39c-5 0 -7 3 -7 10v399c0 5 -3 7 -8 7h-113c-6 0 -9 3 -9 8v33c0 5 3 8 8 8h114c8 0 8 0 8 7v110
c0 121 37 168 128 168c33 0 61 -6 85 -19c5 -3 8 -7 8 -12v-33c0 -6 -5 -8 -9 -4c-20 12 -45 18 -75 18c-63 0 -83 -34 -83 -119v-107c0 -8 0 -9 7 -9h331c5 0 8 -2 8 -7v-530c0 -73 -29 -105 -89 -105zM578 644c5 -52 -85 -52 -80 0c0 23 16 41 40 41s40 -18 40 -41z" />
    <glyph glyph-name=".notdef" horiz-adv-x="575" 
d="M555 -37h-527v784h527v-784zM236 210v-59c0 -5 2 -8 6 -8h44c5 0 7 2 7 7v60c0 136 201 178 201 334c0 109 -83 166 -199 166c-55 0 -103 -14 -142 -41s-60 -65 -63 -115c-1 -7 0 -10 5 -10h42c5 0 8 5 9 14c3 33 19 58 48 76c30 18 63 27 100 27c84 0 140 -49 140 -120
c0 -47 -31 -92 -70 -129c-56 -52 -128 -114 -128 -202zM266 67c-51 4 -51 -78 0 -75c21 0 39 17 39 38c0 20 -18 37 -39 37z" />
    <glyph glyph-name="NULL" horiz-adv-x="0" 
 />
    <glyph glyph-name="CR" horiz-adv-x="333" 
 />
    <glyph glyph-name="space" unicode=" " horiz-adv-x="233" 
 />
    <glyph glyph-name="exclam" unicode="!" horiz-adv-x="284" 
d="M170 716v-530c0 -6 -2 -9 -7 -9h-42c-5 0 -7 4 -7 11v528c0 6 2 9 7 9h43c4 0 6 -3 6 -9zM141 75c23 0 39 -16 39 -39c0 -20 -16 -37 -39 -37c-21 0 -38 17 -38 37c0 21 17 39 38 39z" />
    <glyph glyph-name="quotedbl" unicode="&#x22;" horiz-adv-x="301" 
d="M81 700h32c7 0 10 -3 10 -10v-211c0 -5 -2 -8 -6 -8h-39c-5 0 -8 3 -8 9v209c0 9 2 11 11 11zM185 700h39c5 0 7 -3 7 -9v-213c0 -5 -2 -7 -6 -7h-40c-5 0 -7 3 -7 9v209c0 7 2 11 7 11z" />
    <glyph glyph-name="numbersign" unicode="#" horiz-adv-x="580" 
d="M66 455v32c0 4 2 6 6 6h135c3 0 5 3 6 8l38 201c1 5 3 7 7 7h35c4 0 6 -2 5 -6l-40 -205c-1 -3 0 -5 3 -5h115c3 0 4 2 5 7l38 202c2 5 5 7 8 7h31c5 0 8 -3 7 -9l-38 -199c-1 -5 0 -8 3 -8h105c4 0 6 -2 6 -6v-30c0 -5 -2 -7 -6 -7h-113c-3 0 -5 -2 -6 -5l-33 -170
c0 -9 -10 -18 6 -18h105c5 0 7 -2 7 -7v-30c0 -4 -2 -6 -7 -6h-117c-4 0 -6 -2 -7 -7l-37 -202c-1 -3 -4 -5 -9 -5h-32c-5 0 -6 3 -5 8l38 199c3 8 -2 7 -8 7h-105c-6 0 -9 -2 -10 -6l-38 -202c-1 -4 -3 -6 -8 -6h-32c-4 0 -6 2 -5 7l38 200c1 7 1 7 -6 7h-117
c-5 0 -7 2 -7 5v31c0 5 2 7 7 7h124c9 0 10 3 10 11l1 4l33 174c1 3 0 4 -3 4h-126c-5 0 -7 2 -7 5zM248 447l-33 -176c0 -6 -7 -14 7 -14h102c12 0 13 8 13 16l32 171c0 4 -1 6 -3 6h-112c-3 0 -5 -1 -6 -3z" />
    <glyph glyph-name="dollar" unicode="$" horiz-adv-x="487" 
d="M436 185c0 -113 -57 -176 -158 -191v-86c0 -5 -2 -8 -6 -8h-40c-5 0 -8 3 -8 8v82c-59 1 -108 12 -145 33c-7 4 -10 9 -10 15v39c0 6 3 7 10 3c39 -27 86 -40 143 -40c107 0 160 48 160 144c-5 51 -11 82 -41 110c-11 11 -19 18 -25 23c-5 5 -16 12 -31 20s-26 13 -31 15
c-5 3 -16 8 -33 16c-45 21 -80 44 -104 71s-36 66 -36 115c0 88 49 145 145 154v80c0 5 2 8 6 8h42c4 0 6 -3 6 -8v-79c44 -3 81 -13 110 -31c5 -3 7 -7 7 -12v-37c0 -6 -3 -8 -8 -5c-36 24 -78 36 -125 36c-85 0 -127 -36 -127 -109c0 -40 11 -68 38 -91
c28 -23 46 -32 90 -52c21 -9 37 -17 49 -24s27 -17 44 -30c50 -36 74 -84 78 -169z" />
    <glyph glyph-name="percent" unicode="%" horiz-adv-x="1081" 
d="M326 -13h-45c-7 0 -9 3 -4 9l464 714c3 4 7 6 11 6h46c6 0 7 -3 3 -9l-464 -714c-3 -4 -6 -6 -11 -6zM268 289c-133 0 -212 86 -212 211c0 124 79 210 212 210c135 0 213 -86 213 -210c0 -63 -19 -114 -56 -153s-90 -58 -157 -58zM424 500c0 96 -59 166 -156 166
c-96 0 -155 -70 -155 -166c0 -97 59 -167 155 -167s156 70 156 167zM812 -10c-133 0 -211 86 -211 211c0 124 78 210 211 210c135 0 213 -86 213 -210c0 -63 -19 -114 -56 -153s-90 -58 -157 -58zM968 201c0 96 -59 166 -156 166c-96 0 -155 -70 -155 -166
c0 -97 59 -167 155 -167s156 70 156 167z" />
    <glyph glyph-name="ampersand" unicode="&#x26;" horiz-adv-x="621" 
d="M530 254l44 -1c5 0 5 -3 1 -9l-72 -101c-2 -2 -3 -4 -2 -5l102 -128c4 -4 3 -10 -1 -10h-43c-4 0 -8 3 -12 8l-79 97c-1 3 -3 3 -6 0c-72 -76 -138 -115 -226 -115c-116 0 -174 68 -174 159c0 45 13 84 40 119s69 73 126 114c2 2 2 5 0 8c-57 73 -86 134 -86 181
c0 40 14 73 43 99c29 27 64 40 107 40c89 0 149 -53 149 -138c0 -77 -47 -128 -132 -192c-1 -1 -1 -3 0 -7l153 -193c3 -3 6 -4 8 -2c10 13 26 36 48 69c3 5 7 7 12 7zM428 146l-160 200c-3 3 -5 3 -6 1c-93 -67 -144 -120 -144 -192c0 -68 45 -120 124 -120
c73 0 126 35 187 102c3 3 2 6 -1 9zM271 417c3 -3 6 -3 9 0c76 59 108 95 108 155c0 61 -39 96 -94 96c-57 0 -99 -38 -99 -97c0 -39 25 -90 76 -154z" />
    <glyph glyph-name="quotesingle" unicode="'" horiz-adv-x="228" 
d="M95 700h38c5 0 7 -3 7 -9v-211c0 -6 -2 -9 -7 -9h-36c-6 0 -9 3 -9 8v214c0 5 2 7 7 7z" />
    <glyph glyph-name="parenleft" unicode="(" horiz-adv-x="312" 
d="M238 -116l-13 -13c-3 -3 -7 -2 -11 1c-96 119 -144 265 -144 437c0 171 48 316 144 435c5 3 8 3 10 1l15 -14c3 -3 2 -6 -2 -10c-33 -55 -60 -120 -80 -193c-19 -73 -29 -146 -29 -220c0 -152 41 -302 110 -413c3 -3 3 -7 0 -11z" />
    <glyph glyph-name="parenright" unicode=")" horiz-adv-x="312" 
d="M89 -131l-15 17c-1 2 0 6 4 13c35 51 62 112 80 185c19 73 28 148 28 224c0 72 -10 144 -29 216c-19 73 -45 136 -78 191c-5 7 -6 12 -5 14l16 19c3 3 6 0 11 -7c95 -117 143 -261 143 -432c0 -182 -47 -326 -140 -432c-9 -7 -14 -9 -15 -8z" />
    <glyph glyph-name="asterisk" unicode="*" horiz-adv-x="513" 
d="M286 692l-13 -129c0 -3 2 -3 5 -2l124 51c5 3 9 2 10 -1l14 -32c2 -4 0 -7 -7 -8l-135 -35c-3 -1 -3 -2 -1 -5l87 -95c7 -5 8 -8 4 -11l-32 -25c-2 -1 -6 1 -11 6l-70 108c-2 3 -4 3 -5 1l-71 -110c-3 -5 -6 -6 -11 -3l-29 21c-3 2 -3 5 -1 10l89 98c2 3 2 5 -1 6
l-134 34c-6 1 -8 3 -6 7l13 34c1 3 5 2 12 -1l123 -51c3 -1 5 0 5 3l-12 127c0 7 2 11 5 11h42c4 0 6 -3 6 -9z" />
    <glyph glyph-name="plus" unicode="+" horiz-adv-x="570" 
d="M313 231v-198c0 -6 -2 -9 -6 -9h-40c-5 0 -7 3 -7 10v195c0 5 -3 7 -8 7h-204c-6 0 -9 2 -9 7v33c0 4 3 6 8 6h208c3 0 5 2 5 7v197c0 5 2 8 6 8h41c4 0 6 -3 6 -9v-197c0 -4 1 -6 3 -6h205c7 0 10 -2 10 -7v-32c0 -5 -4 -7 -12 -7h-202c-3 0 -4 -2 -4 -5z" />
    <glyph glyph-name="comma" unicode="," horiz-adv-x="248" 
d="M93 -107h-33c-5 0 -6 4 -3 13l38 145c3 9 6 13 11 13h43c7 0 9 -4 6 -12l-53 -150c-2 -6 -5 -9 -9 -9z" />
    <glyph glyph-name="hyphen" unicode="-" horiz-adv-x="261" 
d="M233 220h-205c-5 0 -8 3 -8 8v31c0 5 3 7 8 7h202c7 0 11 -2 11 -7v-33c0 -4 -3 -6 -8 -6z" />
    <glyph glyph-name="period" unicode="." horiz-adv-x="183" 
d="M92 73c21 0 37 -17 37 -37c6 -50 -80 -50 -75 0c0 20 15 37 38 37z" />
    <glyph glyph-name="slash" unicode="/" horiz-adv-x="419" 
d="M406 749l-330 -792c-3 -6 -7 -9 -12 -9h-41c-7 0 -9 3 -7 10l331 796c4 7 8 11 12 11h43c8 0 9 -5 4 -16z" />
    <glyph glyph-name="zero" unicode="0" horiz-adv-x="613" 
d="M308 710c75 0 135 -34 180 -101c46 -67 69 -154 69 -259s-23 -192 -69 -259c-45 -67 -105 -101 -180 -101c-76 0 -137 34 -183 101s-69 154 -69 259s23 192 69 259s107 101 183 101zM308 42c57 0 102 29 137 86c35 58 52 132 52 222s-17 164 -52 221
c-35 58 -80 87 -137 87s-104 -29 -139 -87c-35 -57 -53 -131 -53 -221s18 -164 53 -222c35 -57 82 -86 139 -86z" />
    <glyph glyph-name="one" unicode="1" horiz-adv-x="298" 
d="M62 579l1 40c0 5 2 10 7 13l74 65c3 2 6 3 9 3h35c5 0 8 -3 8 -9v-682c0 -8 -1 -9 -8 -9h-38c-8 0 -9 1 -9 12v617c0 3 -1 3 -3 1l-67 -53c-4 -4 -9 -3 -9 2z" />
    <glyph glyph-name="two" unicode="2" horiz-adv-x="535" 
d="M400 524c0 92 -59 134 -143 134c-68 0 -126 -18 -173 -54c-6 -3 -9 -2 -9 3l2 44c0 3 2 6 5 8c51 34 111 51 182 51c55 0 102 -14 139 -43s56 -74 56 -135c0 -77 -34 -140 -109 -225l-205 -248c-3 -4 -4 -6 -1 -6h316c6 0 9 -2 9 -7v-38c0 -5 -3 -8 -9 -8h-388
c-5 0 -8 2 -8 6l1 42c0 4 2 9 7 15l231 275c65 75 97 137 97 186z" />
    <glyph glyph-name="three" unicode="3" horiz-adv-x="534" 
d="M254 -10c-67 0 -130 16 -189 48c-5 3 -8 8 -8 13v44c1 4 5 3 12 -1c60 -35 122 -53 186 -53c96 0 166 59 166 162c0 105 -72 166 -172 166h-44c-4 0 -6 2 -6 7l-2 37c-1 4 2 6 7 6h41c83 0 133 56 133 125c0 64 -47 115 -132 115c-55 0 -104 -17 -148 -52
c-5 -2 -8 -2 -8 1l-1 39c0 6 2 10 7 13c49 33 102 50 159 50c112 0 179 -64 179 -161c0 -73 -42 -133 -111 -146c-3 -1 -1 -2 2 -2c42 -7 78 -27 108 -61c31 -34 46 -81 46 -140c0 -69 -22 -121 -65 -157c-43 -35 -96 -53 -160 -53z" />
    <glyph glyph-name="four" unicode="4" horiz-adv-x="508" 
d="M97 195h241c3 0 4 1 4 4v169c0 6 2 9 7 9h42c5 0 8 -2 8 -7v-170c0 -3 1 -5 3 -5h71c4 0 6 -3 6 -8v-41c0 -3 -1 -4 -4 -4h-73c-2 0 -3 -1 -3 -4v-131c0 -5 -2 -7 -7 -7h-43c-5 0 -7 2 -7 7v131c0 3 -1 4 -4 4h-301c-5 0 -8 2 -8 6v42c0 3 2 7 5 12l308 493c3 3 6 5 10 5
h51c6 0 7 -3 3 -9l-310 -491c-3 -3 -3 -5 1 -5z" />
    <glyph glyph-name="five" unicode="5" horiz-adv-x="510" 
d="M190 638l-36 -182c-1 -4 2 -5 9 -5c201 -1 281 -88 281 -239c0 -161 -129 -222 -237 -222c-61 0 -119 13 -174 39c-5 2 -8 5 -8 10v41c0 4 5 8 10 5c51 -29 106 -43 165 -43c48 0 91 14 129 42c39 28 58 70 58 127c0 121 -64 191 -243 191h-44c-7 0 -11 3 -10 10l56 280
c1 5 4 8 9 8h263c6 0 9 -2 9 -6v-42c0 -5 -3 -7 -8 -7h-222c-4 0 -6 -2 -7 -7z" />
    <glyph glyph-name="six" unicode="6" horiz-adv-x="584" 
d="M346 700l-167 -281c-1 -1 2 0 7 4l2 2c21 24 71 44 123 44c57 0 108 -21 151 -64c43 -42 65 -101 65 -176c0 -71 -23 -128 -70 -173c-47 -44 -102 -66 -165 -66s-119 22 -166 67s-70 102 -70 172c0 61 24 129 71 204l158 269c2 3 6 5 11 5h45c7 0 8 -2 5 -7zM113 228
c0 -54 18 -99 53 -135c35 -35 77 -53 126 -53c47 0 88 18 124 54c37 37 55 82 55 135c0 61 -18 108 -53 141c-35 34 -75 51 -122 51c-53 0 -97 -19 -132 -58c-34 -38 -51 -83 -51 -135z" />
    <glyph glyph-name="seven" unicode="7" horiz-adv-x="549" 
d="M410 647h-343c-7 0 -10 2 -10 7v39c0 5 3 7 9 7h402c7 0 10 -3 10 -8v-37c0 -3 -2 -8 -6 -16l-324 -634c-1 -3 -4 -5 -9 -5h-48c-7 0 -8 2 -5 7l327 635c2 3 1 5 -3 5z" />
    <glyph glyph-name="eight" unicode="8" horiz-adv-x="585" 
d="M56 206c0 84 53 161 134 196c-55 31 -90 84 -90 145c0 45 19 84 56 116s82 48 135 48s99 -16 137 -49c39 -32 58 -70 58 -115c0 -61 -36 -114 -92 -145c81 -36 135 -111 135 -196c0 -60 -23 -111 -69 -153s-102 -63 -168 -63c-65 0 -121 21 -167 62
c-46 42 -69 93 -69 154zM109 206c0 -46 18 -85 53 -117c36 -32 79 -48 130 -48s95 16 130 48s53 71 53 117s-18 85 -54 117c-35 33 -78 49 -129 49s-94 -16 -130 -49c-35 -33 -53 -72 -53 -117zM152 547c0 -34 14 -63 41 -87s60 -36 98 -36h6c38 1 70 14 96 37
c27 24 40 53 40 86c0 31 -14 58 -42 81c-27 23 -61 34 -100 34c-38 0 -71 -11 -98 -34s-41 -50 -41 -81z" />
    <glyph glyph-name="nine" unicode="9" horiz-adv-x="582" 
d="M238 0l166 280c1 3 -1 1 -8 -6c-21 -23 -73 -44 -124 -44c-57 0 -108 21 -151 63c-43 43 -65 102 -65 177c0 71 23 128 70 172c47 45 102 67 165 67s118 -22 164 -66c47 -44 70 -101 70 -171c0 -63 -23 -131 -70 -205l-158 -270c-3 -3 -6 -5 -10 -5h-45c-6 0 -7 3 -4 8z
M471 471c0 54 -18 99 -54 135c-35 36 -78 54 -127 54c-46 0 -87 -18 -124 -55c-36 -36 -54 -81 -54 -135c0 -61 17 -109 52 -143c35 -33 76 -50 123 -50c53 0 97 19 132 58s52 84 52 136z" />
    <glyph glyph-name="colon" unicode=":" horiz-adv-x="218" 
d="M81 465c16 15 40 15 55 0c16 -15 16 -39 0 -54c-15 -15 -39 -15 -55 0c-15 15 -15 39 0 54zM148 31c0 -20 -18 -37 -39 -37c-23 0 -39 17 -39 37c-4 50 82 49 78 0z" />
    <glyph glyph-name="semicolon" unicode=";" horiz-adv-x="247" 
d="M138 401c-21 0 -38 16 -38 37c0 34 42 53 65 27c26 -24 7 -64 -27 -64zM100 -111h-28c-6 0 -8 4 -7 11l40 147c1 7 6 11 13 11h43c7 0 9 -4 6 -11l-57 -151c-2 -5 -5 -7 -10 -7z" />
    <glyph glyph-name="less" unicode="&#x3c;" horiz-adv-x="492" 
d="M453 461v-37c0 -5 -2 -8 -5 -9l-342 -156c-3 -1 -4 -3 -1 -5l342 -155c4 -1 6 -4 6 -9v-34c0 -5 -2 -7 -7 -6l-403 183c-3 2 -5 5 -5 8v30c0 6 2 9 6 10l402 184c5 2 7 1 7 -4z" />
    <glyph glyph-name="equal" unicode="=" horiz-adv-x="519" 
d="M50 358h409c6 0 9 -3 9 -9v-29c0 -5 -4 -7 -11 -7h-407c-7 0 -10 2 -10 6v32c0 5 3 7 10 7zM468 152v-31c0 -5 -3 -8 -8 -8h-412c-6 0 -9 3 -9 8v32c0 4 3 6 8 6h413c5 0 8 -2 8 -7z" />
    <glyph glyph-name="greater" unicode="&#x3e;" horiz-adv-x="493" 
d="M38 54v38c0 5 2 8 6 9l340 155c3 1 3 3 0 4l-341 155c-3 1 -5 4 -5 8v37c0 5 2 6 7 5l403 -182c4 -3 6 -6 6 -9v-32c0 -5 -2 -8 -5 -9l-404 -184c-5 -1 -7 0 -7 5z" />
    <glyph glyph-name="question" unicode="?" horiz-adv-x="506" 
d="M217 67c21 0 39 -17 39 -37c0 -21 -18 -38 -39 -38c-51 -3 -51 79 0 75zM244 157h-41c-7 0 -8 2 -8 11v17c0 243 181 178 181 364c0 74 -44 111 -131 111c-59 0 -109 -14 -150 -41c-9 -5 -13 -5 -13 2v43c0 3 2 6 5 8c46 27 101 40 166 40c125 0 182 -59 182 -158
c0 -33 -5 -62 -14 -87c-17 -48 -45 -66 -77 -94c-16 -14 -31 -28 -44 -41c-27 -25 -47 -77 -47 -148v-17c0 -7 -3 -10 -9 -10z" />
    <glyph glyph-name="at" unicode="@" horiz-adv-x="771" 
d="M403 16v-28c1 -5 -3 -7 -10 -7c-107 4 -196 36 -265 95c-69 60 -104 140 -104 239c0 71 18 133 53 188c72 109 191 166 324 166c116 0 222 -44 287 -135c33 -45 50 -98 50 -158s-15 -113 -46 -158s-74 -67 -129 -67c-57 0 -88 25 -95 74c-27 -49 -70 -73 -130 -73
c-83 0 -140 51 -140 143c0 57 19 106 56 149c38 43 87 65 148 65c89 0 135 -57 135 -137c0 -22 -4 -46 -12 -72s-12 -44 -12 -54c0 -34 18 -51 54 -51c39 0 69 17 90 52c22 35 33 76 33 125c0 79 -28 141 -85 186c-56 46 -124 69 -205 69c-91 0 -169 -29 -232 -86
s-95 -133 -95 -226c0 -88 29 -156 88 -205s135 -77 227 -86c9 -1 14 -4 15 -8zM342 195c47 0 83 17 109 52c27 35 40 76 40 121c0 66 -30 99 -91 99c-46 0 -83 -17 -112 -51c-29 -33 -43 -73 -43 -119c0 -68 32 -102 97 -102z" />
    <glyph glyph-name="A" unicode="A" horiz-adv-x="652" 
d="M33 12l292 685c4 9 8 10 13 1l292 -687c3 -7 1 -11 -6 -11h-38c-7 0 -12 2 -13 7l-79 189h-325l-78 -188c-2 -5 -6 -8 -13 -8h-43c-5 0 -5 4 -2 12zM328 576l-137 -327h281l-135 326c-3 7 -6 8 -9 1z" />
    <glyph glyph-name="B" unicode="B" horiz-adv-x="552" 
d="M102 12v675c0 9 4 13 11 13h132c153 0 230 -47 230 -172c0 -41 -13 -76 -40 -105c-26 -29 -58 -45 -96 -48c107 -12 165 -80 165 -184c0 -127 -83 -191 -248 -191h-144c-7 0 -10 4 -10 12zM155 333v-275c0 -5 2 -7 5 -7h98c136 0 189 50 189 142c0 93 -60 146 -179 146
h-105c-5 0 -8 -2 -8 -6zM155 643v-247c0 -3 2 -5 7 -5h86c105 0 171 51 171 130c0 96 -52 128 -168 128h-92c-3 0 -4 -2 -4 -6z" />
    <glyph glyph-name="C" unicode="C" horiz-adv-x="652" 
d="M118 350c0 -85 30 -157 89 -217c60 -60 132 -90 217 -90c57 0 113 12 166 37c8 4 12 2 12 -3v-37c0 -5 -3 -9 -9 -12c-59 -25 -115 -38 -169 -38c-100 0 -185 35 -256 105c-70 70 -105 155 -105 255c0 99 35 184 105 255c71 71 156 106 256 106c65 0 119 -13 163 -38
c10 -6 15 -12 15 -17v-32c0 -10 -3 -9 -16 -3c-29 14 -54 24 -77 29c-22 6 -50 9 -85 9c-85 0 -157 -30 -217 -91c-59 -60 -89 -133 -89 -218z" />
    <glyph glyph-name="D" unicode="D" horiz-adv-x="673" 
d="M240 0h-129c-6 0 -9 4 -9 11v678c0 7 3 11 9 11h128c118 0 209 -34 274 -101s98 -150 98 -249s-33 -183 -98 -250s-156 -100 -273 -100zM158 644v-586c0 -5 2 -8 6 -8h75c100 0 177 29 232 86s82 128 82 211c0 87 -27 159 -82 216c-54 57 -132 86 -235 86h-73
c-3 0 -5 -2 -5 -5z" />
    <glyph glyph-name="E" unicode="E" horiz-adv-x="515" 
d="M102 8v686c0 4 2 6 6 6h337c7 0 10 -2 10 -7v-37c0 -5 0 -7 -8 -7h-287c-1 0 -2 -1 -2 -3v-254c0 -3 1 -4 3 -4h287c5 0 7 -3 7 -8v-31c0 -8 -3 -12 -8 -12h-285c-3 0 -4 -1 -4 -4v-278c0 -2 1 -3 3 -3h288c4 0 6 -4 6 -11v-32c0 -6 -3 -9 -10 -9h-335c-5 0 -8 3 -8 8z
" />
    <glyph glyph-name="F" unicode="F" horiz-adv-x="486" 
d="M102 9v677c0 12 2 14 13 14h318c7 0 10 -3 10 -9v-33c0 -7 -1 -9 -9 -9h-271c-3 0 -5 -2 -5 -5v-228c0 -2 1 -3 3 -3h275c4 0 6 -2 6 -6v-39c0 -4 -2 -6 -7 -6h-274c-2 0 -3 -1 -3 -4v-349c0 -6 -3 -9 -9 -9h-41c-4 0 -6 3 -6 9z" />
    <glyph glyph-name="G" unicode="G" horiz-adv-x="770" 
d="M120 350c0 -85 30 -157 89 -217s131 -90 216 -90c44 0 83 4 117 13c19 5 32 10 41 13c10 4 20 9 31 15v-3l2 1l5 3v263c0 7 -3 11 -8 11h-204c-6 0 -9 3 -9 8v35c0 5 4 8 12 8h250c13 0 16 -2 16 -11v-333c0 -13 -1 -16 -14 -21c-58 -31 -127 -49 -208 -54
c-4 0 -15 -1 -20 -1h-13c-100 0 -185 34 -255 103s-105 155 -105 257c0 103 35 188 104 257c70 69 155 104 256 104c83 0 160 -19 230 -58c7 -3 10 -7 10 -12v-38c0 -7 -5 -8 -15 -2c-63 39 -138 58 -225 58c-86 0 -158 -30 -216 -90s-87 -133 -87 -219z" />
    <glyph glyph-name="H" unicode="H" horiz-adv-x="666" 
d="M150 0h-40c-5 0 -8 2 -8 7v685c0 5 2 8 7 8h42c5 0 8 -2 8 -7v-302c0 -2 1 -3 2 -3h343c2 0 3 1 3 4v301c0 5 3 7 8 7h40c6 0 9 -3 9 -9v-683c0 -5 -2 -8 -7 -8h-39c-7 0 -11 4 -11 11v319c0 3 -1 5 -4 5h-341c-2 0 -3 -1 -3 -3v-323c0 -6 -3 -9 -9 -9z" />
    <glyph glyph-name="I" unicode="I" horiz-adv-x="260" 
d="M151 0h-40c-9 0 -9 1 -9 10v680c0 7 3 10 8 10h42c4 0 6 -3 6 -10v-681c0 -6 -2 -9 -7 -9z" />
    <glyph glyph-name="J" unicode="J" horiz-adv-x="338" 
d="M236 690v-491c0 -71 -20 -123 -61 -156s-92 -50 -155 -51c-7 0 -11 3 -11 8v36c0 8 1 9 13 9c92 0 158 49 158 162v483c0 7 2 10 7 10h42c5 0 7 -3 7 -10z" />
    <glyph glyph-name="K" unicode="K" horiz-adv-x="560" 
d="M151 0h-41c-5 0 -8 3 -8 10v682c0 5 1 8 4 8h46c4 0 6 -3 6 -8v-310l296 314c2 3 5 4 8 4h50c5 0 6 -3 2 -8l-297 -318c-3 -2 -3 -5 -1 -8l323 -356c5 -7 4 -10 -3 -10h-45c-8 0 -14 3 -19 10l-314 346v-345c0 -7 -2 -11 -7 -11z" />
    <glyph glyph-name="L" unicode="L" horiz-adv-x="434" 
d="M404 0h-288c-11 0 -14 2 -14 13v678c0 6 2 9 5 9h43c6 0 9 -4 9 -11v-630c0 -3 1 -5 4 -5h241c7 0 10 -3 10 -9v-36c0 -6 -3 -9 -10 -9z" />
    <glyph glyph-name="M" unicode="M" horiz-adv-x="859" 
d="M750 0h-40c-5 0 -7 4 -7 11v555c0 8 -3 8 -10 0l-256 -316c-8 -10 -16 -11 -23 -3l-258 319c-7 7 -10 4 -10 -7v-549c0 -7 -2 -10 -7 -10h-39c-6 0 -9 3 -9 10v690c0 7 6 8 9 4l315 -379c6 -7 12 -8 17 -3l313 376c8 10 12 9 12 -2v-687c0 -6 -2 -9 -7 -9z" />
    <glyph glyph-name="N" unicode="N" horiz-adv-x="711" 
d="M609 693v-691c0 -8 -3 -8 -10 0l-442 558v-552c0 -5 -2 -8 -6 -8h-44c-3 0 -5 3 -5 8v685c0 10 3 12 10 5l442 -561v556c0 5 2 7 5 7h44c4 0 6 -2 6 -7z" />
    <glyph glyph-name="O" unicode="O" horiz-adv-x="850" 
d="M63 350c0 99 35 184 106 255s157 106 256 106s184 -35 255 -106s107 -156 107 -255c0 -100 -35 -185 -106 -255s-156 -105 -256 -105s-185 35 -256 105s-106 155 -106 255zM119 350c0 -85 30 -157 89 -217c60 -60 132 -90 217 -90s157 30 216 90s89 132 89 217
s-30 158 -89 218c-59 61 -131 91 -216 91s-157 -30 -217 -91c-59 -60 -89 -133 -89 -218z" />
    <glyph glyph-name="P" unicode="P" horiz-adv-x="553" 
d="M113 700h130c165 0 247 -63 247 -190s-81 -190 -242 -190h-77c-9 0 -13 -4 -13 -11v-298c0 -7 -3 -11 -8 -11h-41c-5 0 -7 3 -7 9v680c0 9 2 11 11 11zM158 636v-253c0 -7 4 -10 11 -10h79c122 0 183 46 183 138c0 97 -61 137 -185 137h-79c-6 0 -9 -4 -9 -12z" />
    <glyph glyph-name="Q" unicode="Q" horiz-adv-x="852" 
d="M63 350c0 99 35 184 106 255s157 106 256 106s184 -35 255 -106s107 -156 107 -255c0 -129 -69 -245 -176 -309l105 -159c6 -9 4 -14 -6 -14h-34c-9 0 -17 4 -22 13l-89 137c-45 -19 -91 -28 -140 -28c-100 0 -185 35 -256 105s-106 155 -106 255zM119 350
c0 -85 30 -157 89 -217c60 -60 132 -90 217 -90c39 0 75 7 110 20l-84 130c-6 10 -4 12 7 12h34c10 0 17 -4 20 -11l70 -108c91 55 148 153 148 264c0 85 -30 158 -89 218c-59 61 -131 91 -216 91s-157 -30 -217 -91c-59 -60 -89 -133 -89 -218z" />
    <glyph glyph-name="R" unicode="R" 
d="M112 700h130c171 0 240 -62 240 -189c0 -103 -46 -166 -137 -189l248 -312c5 -7 4 -10 -4 -10h-51c-5 0 -10 3 -13 8l-242 305c-8 -1 -20 -1 -36 -1h-79c-9 0 -10 -1 -10 -10v-292c0 -7 -2 -10 -7 -10h-42c-5 0 -7 3 -7 10v681c0 6 3 9 10 9zM158 638v-264
c0 -9 1 -10 9 -10h75c125 0 182 43 182 143c0 101 -56 142 -183 142h-72c-9 0 -11 -2 -11 -11z" />
    <glyph glyph-name="S" unicode="S" horiz-adv-x="498" 
d="M444 185c0 -129 -74 -195 -205 -195c-61 0 -111 11 -152 33c-7 4 -10 9 -10 15v39c0 6 3 7 10 3c39 -27 86 -40 143 -40c107 0 160 48 160 144c-5 51 -11 82 -41 110c-11 11 -19 18 -25 23c-5 5 -16 12 -31 20s-26 13 -31 15c-5 3 -16 8 -33 16c-45 21 -80 44 -104 71
s-36 66 -36 115c0 97 59 156 175 156c55 0 99 -11 134 -32c5 -3 7 -7 7 -12v-37c0 -6 -3 -8 -8 -5c-36 24 -78 36 -125 36c-85 0 -127 -36 -127 -109c0 -40 11 -68 38 -91c28 -23 46 -32 90 -52c21 -9 37 -17 49 -24s27 -17 44 -30c50 -36 74 -84 78 -169z" />
    <glyph glyph-name="T" unicode="T" horiz-adv-x="540" 
d="M292 0h-44c-7 0 -8 1 -8 9v630c0 7 -2 10 -7 10h-229c-6 0 -9 2 -9 6v38c0 5 3 7 8 7h533c6 0 9 -2 9 -7v-38c0 -4 -3 -6 -10 -6h-230c-4 0 -6 -3 -6 -8v-630c0 -7 -2 -11 -7 -11z" />
    <glyph glyph-name="U" unicode="U" horiz-adv-x="657" 
d="M507 246v445c0 6 2 9 6 9h45c5 0 7 -3 7 -9v-448c0 -169 -77 -253 -231 -253c-155 0 -232 84 -232 253v449c0 5 2 8 6 8h46c4 0 6 -3 6 -10v-444c0 -75 16 -127 49 -157s75 -45 125 -45c115 0 173 67 173 202z" />
    <glyph glyph-name="V" unicode="V" horiz-adv-x="577" 
d="M289 0l-263 690c-3 7 -1 10 4 10h46c5 0 8 -3 11 -10l201 -559c3 -7 6 -6 9 1l199 556c3 8 7 12 12 12h47c6 0 7 -3 4 -9l-262 -690c-3 -6 -5 -6 -8 -1z" />
    <glyph glyph-name="W" unicode="W" horiz-adv-x="910" 
d="M641 9l-185 547l-184 -547c-6 -20 -9 -19 -17 0l-231 682c-4 7 -2 9 6 9h44c5 0 9 -3 11 -9l181 -556l178 534c11 35 13 35 25 0l178 -540l179 551c1 1 1 3 2 6c4 13 5 14 14 14h40c9 0 10 -4 5 -21l-228 -670c-8 -20 -10 -20 -18 0z" />
    <glyph glyph-name="X" unicode="X" horiz-adv-x="527" 
d="M30 11l205 343c3 5 3 11 -1 18l-205 318c-4 7 -3 10 3 10h45c6 0 11 -3 14 -8l172 -270c5 -9 9 -9 14 0l173 271c3 5 7 7 13 7h42c9 0 10 -3 4 -9l-202 -317c-5 -8 -5 -14 -2 -19l204 -344c5 -7 5 -11 -2 -11h-44c-6 0 -11 3 -15 10l-173 295c-5 6 -8 7 -11 2l-171 -296
c-5 -7 -10 -11 -16 -11h-43c-7 0 -9 4 -4 11z" />
    <glyph glyph-name="Y" unicode="Y" horiz-adv-x="549" 
d="M306 0h-46c-5 0 -7 4 -7 13v348c0 12 -2 20 -5 24l-217 304c-5 7 -4 11 3 11h44c5 0 9 -3 12 -8l184 -253c8 -17 10 -16 17 -2l180 253c5 7 9 10 12 10h46c6 0 7 -3 3 -10l-215 -306c-3 -5 -5 -13 -5 -26v-347c0 -7 -2 -11 -6 -11z" />
    <glyph glyph-name="Z" unicode="Z" horiz-adv-x="520" 
d="M59 15l321 630c3 4 2 6 -3 6h-278c-9 0 -13 4 -13 11v29c0 6 4 9 12 9h352c12 0 15 -5 10 -15l-320 -629c-2 -4 0 -6 5 -6h318c11 0 12 -2 12 -10v-30c0 -7 -3 -10 -10 -10h-399c-9 0 -11 5 -7 15z" />
    <glyph glyph-name="bracketleft" unicode="[" horiz-adv-x="270" 
d="M80 728h110c7 0 10 -3 10 -8v-26c0 -4 -3 -6 -10 -6h-59c-5 0 -7 -2 -7 -7v-788c0 -7 1 -8 8 -8h60c5 0 8 -2 8 -6v-26c0 -5 -2 -7 -7 -7h-114c-6 0 -9 4 -9 11v860c0 7 3 11 10 11z" />
    <glyph glyph-name="backslash" unicode="\" horiz-adv-x="277" 
d="M270 -14l-300 714c-3 7 -1 10 4 10h43c4 0 8 -3 11 -8l298 -714c2 -5 0 -8 -5 -8h-42c-5 0 -8 2 -9 6z" />
    <glyph glyph-name="bracketright" unicode="]" horiz-adv-x="270" 
d="M80 728h106c12 0 14 -4 14 -16v-854c0 -8 -4 -12 -11 -12h-110c-6 0 -9 3 -9 9v23c0 5 4 7 12 7h56c5 0 8 3 8 9v782c0 11 -1 12 -9 12h-57c-7 0 -10 2 -10 7v26c0 5 3 7 10 7z" />
    <glyph glyph-name="asciicircum" unicode="^" horiz-adv-x="581" 
d="M463 395l-150 181c-7 8 -15 7 -23 -3l-148 -179c-9 -9 -16 -11 -23 -6l-21 16c-9 6 -8 14 3 25l188 219c9 10 19 9 30 -3l188 -218c7 -9 8 -16 3 -21l-20 -18c-9 -6 -18 -4 -27 7z" />
    <glyph glyph-name="underscore" unicode="_" horiz-adv-x="475" 
d="M465 -47h-454c-9 0 -11 1 -11 9v31c0 5 3 7 9 7h452c9 0 13 -3 13 -8v-30c0 -8 -1 -9 -9 -9z" />
    <glyph glyph-name="grave" unicode="`" horiz-adv-x="183" 
d="M118 738l-106 120c-5 4 -4 9 3 9h42c7 0 12 -3 16 -9l95 -118c5 -5 3 -11 -2 -11h-29c-7 0 -13 3 -19 9z" />
    <glyph glyph-name="a" unicode="a" horiz-adv-x="556" 
d="M424 7l-5 28c-51 -30 -109 -45 -174 -45c-104 0 -166 54 -166 137c0 88 74 141 179 141c56 0 108 -11 157 -34v73c0 80 -46 120 -138 120c-59 0 -107 -8 -144 -25c-5 -4 -10 -1 -10 4v36c0 5 2 9 7 11c51 15 103 22 154 22c109 0 184 -53 184 -170v-298c0 -5 -2 -7 -6 -7
h-30c-5 0 -7 2 -8 7zM131 129c0 -55 48 -94 117 -94c66 0 122 15 167 44v108c-44 24 -97 36 -160 36c-69 0 -124 -38 -124 -94z" />
    <glyph glyph-name="b" unicode="b" horiz-adv-x="594" 
d="M142 733v-327c46 46 103 69 171 69c62 0 115 -22 158 -67c44 -45 66 -104 66 -178s-23 -133 -68 -176s-97 -64 -156 -64c-69 0 -128 23 -175 69l-7 -53c-1 -4 -3 -6 -6 -6h-31c-4 0 -6 2 -6 6v728c0 4 3 6 8 6h40c4 0 6 -2 6 -7zM307 427c-69 0 -124 -27 -165 -80v-232
c40 -51 95 -77 165 -77c46 0 87 18 122 53c36 36 54 82 54 139s-17 104 -51 141s-76 56 -125 56z" />
    <glyph glyph-name="c" unicode="c" horiz-adv-x="488" 
d="M111 231c0 -54 19 -100 57 -138c38 -37 85 -56 141 -56c45 0 85 11 121 32c5 2 7 1 7 -4v-35c0 -5 -2 -9 -5 -10c-38 -21 -81 -31 -129 -31c-69 0 -127 23 -175 70s-72 105 -72 172s24 125 72 172s106 71 175 71c39 0 81 -10 125 -30c6 -3 9 -6 9 -11v-35
c0 -6 -3 -7 -9 -4c-40 21 -80 32 -119 32c-56 0 -103 -19 -141 -57c-38 -37 -57 -83 -57 -138z" />
    <glyph glyph-name="d" unicode="d" horiz-adv-x="586" 
d="M287 475c63 0 116 -21 157 -62v320c0 5 2 7 7 7h40c5 0 7 -2 7 -6v-728c0 -4 -2 -6 -5 -6h-32c-2 0 -4 2 -5 6l-8 50c-44 -44 -98 -66 -161 -66s-118 22 -163 67s-68 104 -68 178s23 132 69 175c47 43 101 65 162 65zM293 38c63 0 113 24 151 71v249
c-38 46 -88 69 -151 69c-48 0 -91 -18 -128 -54c-37 -35 -55 -81 -55 -138s18 -104 53 -141s79 -56 130 -56z" />
    <glyph glyph-name="e" unicode="e" horiz-adv-x="552" 
d="M501 245v-8c0 -5 -3 -8 -9 -8h-384v-2c0 -111 58 -190 187 -190c45 0 90 11 135 33c7 3 10 1 10 -4v-31c0 -5 -2 -8 -6 -11c-44 -23 -92 -34 -145 -34c-80 0 -139 22 -177 66c-38 45 -57 101 -57 170c0 74 22 134 65 180s96 69 158 69c63 0 116 -21 159 -63
s64 -98 64 -167zM278 431c-85 0 -151 -64 -167 -159h337c-11 95 -75 159 -170 159z" />
    <glyph glyph-name="f" unicode="f" horiz-adv-x="416" 
d="M301 700c-63 0 -83 -34 -83 -119v-107c0 -8 0 -9 7 -9h125c6 0 9 -3 9 -8v-33c0 -5 -3 -8 -8 -8h-125c-8 0 -8 -2 -8 -10v-397c0 -6 -3 -9 -8 -9h-39c-5 0 -7 3 -7 10v399c0 5 -3 7 -8 7h-113c-6 0 -9 3 -9 8v33c0 5 3 8 8 8h114c8 0 8 0 8 7v110c0 121 37 168 128 168
c33 0 61 -6 85 -19c5 -3 8 -7 8 -12v-33c0 -6 -5 -8 -9 -4c-20 12 -45 18 -75 18z" />
    <glyph glyph-name="g" unicode="g" horiz-adv-x="591" 
d="M448 17v40c-45 -45 -99 -67 -162 -67s-118 22 -163 67s-68 104 -68 178s23 132 69 175c47 43 101 65 162 65c63 0 117 -22 162 -67v41c0 13 2 16 11 16h33c9 0 11 -2 11 -11v-436c0 -170 -111 -221 -216 -221c-45 0 -89 7 -131 22c-7 1 -11 5 -11 14v31c0 7 5 8 15 5
c38 -15 78 -22 119 -22c100 0 169 47 169 170zM291 38c67 0 119 26 157 77v236c-37 51 -90 76 -157 76c-48 0 -90 -18 -127 -54c-37 -35 -55 -81 -55 -138s17 -104 52 -141s79 -56 130 -56z" />
    <glyph glyph-name="h" unicode="h" horiz-adv-x="594" 
d="M151 732v-330c42 49 100 73 174 73c121 0 181 -64 181 -192v-275c0 -5 -3 -8 -8 -8h-39c-5 0 -7 3 -7 8v269c0 99 -45 149 -136 149c-62 0 -117 -27 -165 -80v-338c0 -5 -3 -8 -8 -8h-40c-4 0 -6 3 -6 9v722c0 6 3 9 8 9h36c7 0 10 -3 10 -8z" />
    <glyph glyph-name="i" unicode="i" horiz-adv-x="254" 
d="M167 643c0 -24 -16 -40 -40 -40c-25 0 -40 16 -40 40c0 23 16 41 40 41s40 -18 40 -41zM154 454v-445c0 -6 -3 -9 -8 -9h-37c-6 0 -9 3 -9 8v445c0 11 2 12 13 12h32c6 0 9 -4 9 -11z" />
    <glyph glyph-name="j" unicode="j" horiz-adv-x="249" 
d="M166 644c5 -52 -85 -52 -80 0c0 23 16 41 40 41s40 -18 40 -41zM63 -177c-19 0 -35 2 -48 7c-6 1 -9 5 -9 12v28c0 7 3 9 10 7c15 -3 29 -5 42 -5c27 0 40 20 40 59v525c0 6 2 9 7 9h39c5 0 8 -2 8 -7v-530c0 -73 -29 -105 -89 -105z" />
    <glyph glyph-name="k" unicode="k" horiz-adv-x="489" 
d="M401 6l-243 220c-5 5 -7 3 -7 -4v-211c0 -7 -3 -11 -9 -11h-36c-6 0 -9 3 -9 9v720c0 7 2 11 7 11h40c5 0 7 -3 7 -10v-462c0 -4 2 -5 6 -2l245 196c3 3 7 4 12 4h52c3 -1 4 -3 1 -7l-253 -207c-5 -4 -5 -8 -1 -12l254 -231c5 -6 4 -9 -3 -9h-49c-5 0 -10 2 -14 6z" />
    <glyph glyph-name="l" unicode="l" horiz-adv-x="239" 
d="M151 731v-722c0 -6 -3 -9 -8 -9h-38c-5 0 -8 4 -8 11v720c0 6 2 9 6 9h41c5 0 7 -3 7 -9z" />
    <glyph glyph-name="m" unicode="m" horiz-adv-x="857" 
d="M142 458v-41c40 39 90 58 150 58c70 0 118 -26 143 -77c41 51 97 77 168 77c111 0 166 -64 166 -192v-274c0 -6 -2 -9 -7 -9h-41c-4 0 -6 3 -6 10v269c0 98 -42 147 -125 147c-51 0 -97 -23 -140 -69c5 -23 8 -47 8 -74v-275c0 -5 -3 -8 -8 -8h-39c-5 0 -7 3 -7 10v269
c0 98 -41 147 -124 147c-51 0 -97 -22 -138 -66v-353c0 -5 -2 -7 -7 -7h-40c-5 0 -7 3 -7 8v449c0 5 2 8 7 8h39c5 0 8 -2 8 -7z" />
    <glyph glyph-name="n" unicode="n" horiz-adv-x="575" 
d="M142 458v-45c43 41 97 62 164 62c121 0 181 -64 181 -192v-275c0 -5 -3 -8 -8 -8h-39c-5 0 -7 3 -7 8v269c0 99 -45 149 -136 149c-58 0 -110 -23 -155 -69v-350c0 -5 -2 -7 -7 -7h-40c-5 0 -7 3 -7 8v449c0 5 2 8 7 8h39c5 0 8 -2 8 -7z" />
    <glyph glyph-name="o" unicode="o" horiz-adv-x="598" 
d="M55 232c0 67 24 125 71 172c48 47 106 71 173 71s125 -24 172 -71c48 -47 72 -105 72 -172s-24 -124 -72 -171c-47 -47 -105 -71 -172 -71s-125 24 -173 71c-47 47 -71 104 -71 171zM164 368c-37 -37 -56 -83 -56 -136s19 -99 56 -136s82 -55 135 -55s98 18 135 55
s56 83 56 136s-19 99 -56 136s-82 56 -135 56s-98 -19 -135 -56z" />
    <glyph glyph-name="p" unicode="p" horiz-adv-x="602" 
d="M151 459v-52c48 45 105 68 170 68c62 0 115 -22 158 -67c44 -45 66 -104 66 -178s-23 -133 -68 -176s-97 -64 -156 -64c-69 0 -125 22 -170 65v-245c0 -5 -2 -8 -7 -8h-40c-5 0 -7 3 -7 8v648c0 5 2 7 7 7h40c5 0 7 -2 7 -6zM315 427c-69 0 -124 -27 -164 -80v-232
c39 -51 94 -77 164 -77c47 0 88 18 123 53c35 36 53 82 53 139s-17 104 -51 141s-76 56 -125 56z" />
    <glyph glyph-name="q" unicode="q" horiz-adv-x="588" 
d="M446 -191l-1 244c-43 -42 -96 -63 -158 -63c-63 0 -118 22 -163 67s-68 104 -68 178s23 132 69 175c47 43 101 65 162 65c65 0 117 -21 158 -63v44c0 6 2 9 7 9h41c5 0 7 -3 7 -9v-647c0 -5 -3 -7 -8 -7h-39c-5 0 -7 2 -7 7zM293 38c64 0 115 24 152 73v245
c-38 47 -89 71 -152 71c-48 0 -91 -18 -128 -54c-37 -35 -55 -81 -55 -138s18 -104 53 -141s79 -56 130 -56z" />
    <glyph glyph-name="r" unicode="r" horiz-adv-x="388" 
d="M97 465h33c6 0 9 -3 9 -10l1 -60c36 53 84 80 143 80c31 0 57 -4 79 -13c5 -3 7 -6 7 -10v-29c0 -5 -3 -7 -9 -6c-20 7 -45 11 -75 11c-53 0 -100 -28 -143 -85v-335c0 -5 -3 -8 -8 -8h-39c-5 0 -7 2 -7 7v446c0 8 3 12 9 12z" />
    <glyph glyph-name="s" unicode="s" horiz-adv-x="431" 
d="M220 430c-57 0 -97 -21 -97 -65c0 -40 37 -63 84 -79c67 -21 155 -54 154 -166c0 -87 -54 -130 -162 -130c-61 0 -109 12 -143 35c-4 3 -6 7 -6 12v32c0 7 3 8 10 3c35 -25 80 -37 133 -37c76 0 114 29 114 87c0 55 -37 87 -84 104c-68 25 -154 44 -154 140
c0 69 56 109 143 109c48 0 87 -9 116 -27c7 -4 11 -9 11 -16v-27c0 -9 -4 -10 -13 -4c-28 19 -63 29 -106 29z" />
    <glyph glyph-name="t" unicode="t" horiz-adv-x="376" 
d="M320 25v-28c0 -5 -3 -7 -9 -7c-116 1 -174 56 -174 180v246h-109c-8 0 -10 2 -10 9v31c0 6 3 9 10 9h109v178c0 7 3 11 8 11h37c6 0 9 -4 9 -11v-178h121c7 0 10 -3 10 -8v-33c0 -5 -3 -8 -8 -8h-123v-240c0 -92 40 -139 120 -141c8 0 9 -1 9 -10z" />
    <glyph glyph-name="u" unicode="u" horiz-adv-x="552" 
d="M79 205v249c0 7 3 11 10 11h35c8 0 9 -2 9 -11v-248c0 -113 48 -169 143 -169s143 56 143 169v248c0 9 1 11 9 11h38c5 0 7 -3 7 -8v-252c0 -143 -66 -215 -197 -215s-197 72 -197 215z" />
    <glyph glyph-name="v" unicode="v" horiz-adv-x="465" 
d="M230 2l-207 455c-3 5 -2 8 3 8h42c5 0 9 -2 11 -7l157 -362l159 363c1 4 5 6 10 6h42c5 0 6 -3 3 -9l-208 -453c-3 -9 -7 -9 -12 -1z" />
    <glyph glyph-name="w" unicode="w" horiz-adv-x="760" 
d="M211 4l-187 452c-3 6 -2 9 5 9h40c4 0 8 -3 11 -8l140 -356l157 355c5 12 11 12 16 0l157 -356l140 355c2 7 5 10 10 10h41c5 0 7 -3 4 -10l-185 -451c-4 -8 -8 -8 -13 0l-163 365l-160 -365c-5 -9 -10 -9 -13 0z" />
    <glyph glyph-name="x" unicode="x" horiz-adv-x="464" 
d="M389 465h48c4 0 6 -4 3 -7l-172 -221l182 -230c3 -3 2 -7 -3 -7h-46c-4 0 -7 1 -10 4l-154 195l-154 -196c-2 -2 -5 -3 -9 -3h-46c-5 0 -6 3 -2 8l181 229l-171 220c-4 5 -3 8 4 8h46c4 0 7 -2 10 -5l141 -185l142 185c3 3 7 5 10 5z" />
    <glyph glyph-name="y" unicode="y" horiz-adv-x="482" 
d="M466 454l-292 -647c-1 -3 -5 -5 -10 -5h-41c-5 0 -6 2 -5 7l104 231l-188 417c-3 5 -1 8 4 8h42c5 0 8 -2 11 -7l157 -360l160 356c4 7 8 11 12 11h42c5 0 7 -6 4 -11z" />
    <glyph glyph-name="z" unicode="z" horiz-adv-x="441" 
d="M51 10l250 411h-234c-6 0 -9 3 -9 8v29c0 5 3 7 9 7h308c8 0 10 -3 5 -9l-252 -413h256c7 0 11 -3 11 -8v-27c0 -5 -3 -8 -10 -8h-330c-7 0 -9 3 -4 10z" />
    <glyph glyph-name="braceleft" unicode="{" horiz-adv-x="370" 
d="M70 256v28c0 6 8 6 14 9c53 20 80 69 80 147v126c0 90 36 135 107 135h22c4 0 6 -2 6 -6v-31c0 -3 -3 -4 -9 -5c-51 -5 -70 -36 -70 -93v-112c0 -39 -4 -66 -17 -101c-12 -33 -40 -63 -80 -83c65 -32 97 -93 97 -184v-112c0 -57 18 -87 71 -94c5 -1 8 -3 8 -6v-28
c0 -5 -2 -7 -5 -7h-23c-71 0 -107 45 -107 135v126c0 79 -27 128 -82 147c-8 3 -12 6 -12 9z" />
    <glyph glyph-name="bar" unicode="|" horiz-adv-x="286" 
d="M172 719v-879c0 -5 -3 -7 -8 -7h-40c-5 0 -7 2 -7 7v880c0 5 3 8 8 8h40c5 0 7 -3 7 -9z" />
    <glyph glyph-name="braceright" unicode="}" horiz-adv-x="370" 
d="M299 282v-25c0 -5 -5 -9 -16 -11c-51 -19 -77 -68 -77 -146v-126c0 -90 -36 -135 -107 -135h-22c-4 0 -7 2 -7 6v29c0 8 11 4 18 7c41 11 62 42 62 93v112c0 80 19 144 99 184c-80 40 -99 103 -99 184v112c0 59 -23 91 -68 94c-8 0 -12 2 -12 6v30c0 3 2 5 5 5h24
c71 0 107 -45 107 -135v-126c0 -66 22 -113 66 -141c8 -6 22 -6 26 -14v-1z" />
    <glyph glyph-name="asciitilde" unicode="~" horiz-adv-x="532" 
d="M360 186c-23 0 -54 10 -93 30s-70 30 -92 30c-31 0 -57 -14 -78 -41c-6 -8 -11 -11 -15 -10l-26 11c-6 3 -6 10 1 19c33 47 74 71 121 71c23 0 55 -10 96 -30s72 -30 94 -30c27 0 52 13 73 39c7 9 13 13 17 11l23 -10c6 -3 6 -9 0 -18c-28 -48 -68 -72 -121 -72z" />
    <glyph glyph-name="nbspace" unicode="&#xa0;" horiz-adv-x="221" 
d="M213 220h-205c-5 0 -8 3 -8 8v31c0 5 3 7 8 7h202c7 0 11 -2 11 -7v-33c0 -4 -3 -6 -8 -6z" />
    <glyph glyph-name="exclamdown" unicode="&#xa1;" horiz-adv-x="311" 
d="M135 230h42c5 0 7 -4 7 -11v-388c0 -7 -3 -11 -8 -11h-42c-4 0 -6 3 -6 9v393c0 5 2 8 7 8zM182 276c-33 -36 -90 21 -54 54c32 36 93 -21 54 -54z" />
    <glyph glyph-name="cent" unicode="&#xa2;" horiz-adv-x="489" 
d="M111 231c0 -54 19 -100 57 -138c38 -37 85 -56 141 -56c45 0 85 11 121 32c5 2 7 1 7 -4v-35c0 -5 -2 -9 -5 -10c-33 -19 -72 -29 -118 -31v-54c0 -4 -2 -6 -6 -6h-41c-4 0 -6 3 -6 8v56c-59 9 -108 36 -147 81s-58 98 -58 157c0 60 19 112 58 157s88 73 147 82v64
c0 6 2 9 5 9h42c4 0 6 -2 6 -7v-62c34 -2 72 -12 114 -30c6 -3 9 -6 9 -11v-35c0 -6 -3 -7 -9 -4c-40 21 -80 32 -119 32c-56 0 -103 -19 -141 -57c-38 -37 -57 -83 -57 -138z" />
    <glyph glyph-name="sterling" unicode="&#xa3;" horiz-adv-x="569" 
d="M409 321h-154c-2 0 -3 -2 -3 -5c7 -41 10 -68 10 -81c0 -50 -24 -141 -117 -186c-2 -1 -1 -2 3 -3h366c5 0 7 -1 7 -4v-37c0 -3 -2 -5 -6 -5h-451c-3 0 -5 2 -5 5v35c0 3 2 6 5 7c91 45 136 109 136 194c0 25 -2 50 -7 75c-1 3 -3 5 -6 5h-110c-4 0 -6 2 -6 6v35
c0 4 3 6 8 6h102c5 0 5 0 5 5c-11 64 -16 108 -16 133c0 149 67 205 188 205c49 0 95 -8 137 -25c4 -1 6 -5 6 -10v-32c0 -5 -3 -6 -8 -4c-47 17 -90 26 -129 26c-87 0 -134 -47 -134 -159c0 -29 5 -73 16 -133c0 -4 2 -6 6 -6h156c5 0 8 -2 8 -7v-33c0 -5 -2 -7 -7 -7z" />
    <glyph glyph-name="currency" unicode="&#xa4;" horiz-adv-x="622" 
d="M514 43l-18 -13c-4 -3 -8 -3 -13 2l-52 57c-38 -23 -85 -34 -140 -34s-102 11 -140 34l-51 -56c-5 -5 -10 -6 -14 -3l-19 13c-3 3 -3 7 0 11l51 60c-45 41 -67 96 -67 167c0 70 23 126 68 167l-49 59c-5 6 -5 10 -1 13l18 14c4 3 8 2 11 -1l54 -61c40 23 86 34 139 34
s99 -11 139 -34l54 59c4 4 8 5 13 2l17 -14c5 -3 5 -7 1 -12l-52 -59c46 -42 69 -98 69 -167c0 -70 -23 -126 -68 -167l50 -59c5 -5 5 -9 0 -12zM291 99c115 0 184 75 184 182c0 53 -16 96 -49 129c-33 34 -78 51 -135 51s-102 -17 -135 -51c-33 -33 -49 -76 -49 -129
s16 -96 49 -131c33 -34 78 -51 135 -51z" />
    <glyph glyph-name="yen" unicode="&#xa5;" horiz-adv-x="477" 
d="M262 0h-43c-5 0 -7 3 -7 8v141c0 3 -2 4 -5 4h-184c-4 0 -6 2 -6 6v36c0 3 3 5 8 5h184c2 0 3 1 3 4v83c0 3 -1 5 -4 5h-184c-5 0 -7 2 -7 5v36c0 3 2 5 7 5h169c3 0 3 2 2 3l-175 342c-3 5 -2 8 4 8h48c4 0 6 -1 7 -4l158 -315c2 -4 4 -4 6 1l156 313c1 3 4 5 8 5h48
c6 0 8 -3 5 -8l-174 -340c-1 -3 -1 -5 1 -5h169c7 0 10 -3 10 -8v-30c0 -5 -3 -8 -10 -8h-183c-3 0 -4 -2 -4 -5v-82c0 -3 2 -5 5 -5h184c5 0 8 -2 8 -7v-31c0 -6 -3 -9 -9 -9h-184c-3 0 -4 -2 -4 -5v-139c0 -6 -2 -9 -7 -9z" />
    <glyph glyph-name="brokenbar" unicode="&#xa6;" horiz-adv-x="285" 
d="M170 691v-351c0 -4 -2 -6 -6 -6h-41c-4 0 -6 3 -6 8v350c0 4 2 6 7 6h40c4 0 6 -2 6 -7zM170 195v-328c0 -5 -2 -8 -7 -8h-39c-5 0 -7 3 -7 8v329c0 5 2 7 6 7h41c4 0 6 -3 6 -8z" />
    <glyph glyph-name="section" unicode="&#xa7;" horiz-adv-x="433" 
d="M242 673c-76 0 -116 -19 -116 -78c0 -143 250 -69 250 -248c0 -67 -38 -109 -114 -127c69 -25 109 -57 109 -132c0 -90 -59 -135 -177 -135c-48 0 -92 4 -133 11c-4 1 -6 3 -5 6l4 25c1 5 4 6 11 5c44 -7 87 -10 128 -10c81 0 121 31 121 93c0 143 -250 67 -250 248
c0 67 41 108 124 122c-36 12 -57 22 -82 42c-25 21 -38 52 -38 95c0 88 58 120 163 120c41 0 82 -4 121 -11c4 -1 6 -4 5 -8l-4 -25c-1 -3 -4 -5 -9 -4c-39 7 -75 11 -108 11zM325 342c0 35 -17 62 -52 81c-97 -3 -152 -24 -152 -87c0 -39 22 -68 65 -88c93 3 139 35 139 94
z" />
    <glyph glyph-name="dieresis" unicode="&#xa8;" horiz-adv-x="283" 
d="M69 810c23 0 39 -16 39 -37c0 -20 -18 -37 -39 -37s-38 17 -38 37c0 21 17 37 38 37zM252 773c0 -20 -18 -37 -39 -37s-38 17 -38 37c0 48 77 48 77 0z" />
    <glyph glyph-name="copyright" unicode="&#xa9;" horiz-adv-x="822" 
d="M410 -14c-107 0 -197 36 -270 109s-109 157 -109 252c0 100 37 185 112 256s165 106 269 106c108 0 198 -36 270 -109c73 -73 109 -160 109 -262c0 -70 -19 -132 -57 -187c-75 -109 -196 -165 -324 -165zM410 16c91 0 171 30 240 90s103 138 103 233s-32 176 -97 241
c-64 66 -145 99 -244 99c-96 0 -177 -32 -243 -97c-66 -64 -99 -142 -99 -235c0 -87 32 -164 97 -231s146 -100 243 -100zM425 215c22 0 45 7 69 21c5 3 9 4 11 1l23 -24c2 -3 1 -7 -3 -11c-29 -23 -63 -34 -103 -34c-51 0 -93 17 -126 51c-33 35 -49 76 -49 125
c0 48 16 89 49 124s75 53 126 53c39 0 74 -12 105 -35c5 -3 5 -6 2 -9l-24 -26c-3 -3 -7 -2 -13 2c-20 13 -42 20 -67 20c-35 0 -65 -13 -89 -38c-23 -25 -35 -55 -35 -91s12 -67 35 -92c24 -25 54 -37 89 -37z" />
    <glyph glyph-name="ordfeminine" unicode="&#xaa;" horiz-adv-x="436" 
d="M194 710c63 0 113 -31 134 -75c1 3 2 6 2 9v47c0 6 2 9 6 9h41c5 0 7 -3 7 -8v-316c0 -4 -2 -6 -6 -6h-42c-4 0 -6 2 -6 7v49v2c0 9 0 8 -3 3c-24 -44 -72 -71 -131 -71c-99 0 -167 64 -167 175s69 175 165 175zM206 406c73 0 124 49 124 128c0 80 -52 130 -125 130
c-71 0 -121 -46 -121 -130s51 -128 122 -128z" />
    <glyph glyph-name="guillemotleft" unicode="&#xab;" horiz-adv-x="559" 
d="M460 443l27 -20c3 -2 3 -5 1 -9l-139 -172c-2 -2 -2 -4 0 -6l140 -172c3 -3 2 -5 -2 -8l-28 -19c-4 -2 -8 -1 -11 4l-165 192c-3 3 -3 7 0 11l166 196c4 3 8 4 11 3zM256 442l26 -19c4 -2 5 -5 3 -8l-141 -173c-1 -2 -1 -4 0 -6l139 -169c5 -5 5 -9 -1 -11l-27 -19
c-2 -2 -5 -1 -9 2l-167 194c-3 5 -3 9 0 12l165 193c5 5 9 6 12 4z" />
    <glyph glyph-name="logicalnot" unicode="&#xac;" horiz-adv-x="575" 
d="M47 366h484c7 0 10 -3 10 -8v-228c0 -5 -2 -7 -5 -7h-38c-4 0 -6 3 -6 9v187c0 2 -1 3 -3 3h-441c-6 0 -9 2 -9 7v30c0 5 3 7 8 7z" />
    <glyph glyph-name="uni00AD" unicode="&#xad;" horiz-adv-x="221" 
d="M213 220h-205c-5 0 -8 3 -8 8v31c0 5 3 7 8 7h202c7 0 11 -2 11 -7v-33c0 -4 -3 -6 -8 -6z" />
    <glyph glyph-name="registered" unicode="&#xae;" horiz-adv-x="823" 
d="M411 -14c-107 0 -196 36 -269 107c-72 71 -108 156 -108 254c0 103 37 189 110 258c74 69 163 104 268 104c109 0 199 -36 270 -107c72 -71 108 -159 108 -264c0 -69 -19 -132 -57 -187c-75 -109 -195 -165 -322 -165zM411 16c91 0 171 29 238 88s101 138 101 235
c0 98 -32 179 -95 243c-63 65 -144 97 -243 97c-96 0 -177 -32 -242 -95s-97 -142 -97 -237c0 -91 32 -169 95 -234c64 -65 145 -97 243 -97zM389 517c81 0 129 -48 129 -105c0 -41 -19 -72 -57 -91c-1 -1 -2 -2 -1 -3l61 -143c1 -4 -1 -6 -6 -6h-28c-3 0 -6 2 -8 6l-53 124
c-27 0 -45 2 -55 7c-3 1 -4 -1 -4 -5v-124c0 -5 -2 -8 -5 -8h-29c-3 0 -5 3 -5 8v327c0 3 1 5 4 6c21 5 40 7 57 7zM367 475v-128c0 -3 1 -5 4 -6c31 -5 57 0 77 15s30 34 30 55c0 43 -44 77 -105 72c-4 -1 -6 -3 -6 -8z" />
    <glyph glyph-name="overscore" unicode="&#xaf;" horiz-adv-x="269" 
d="M22 744v33c0 4 2 6 6 6h214c4 0 6 -2 6 -6v-34c0 -4 -2 -6 -5 -6h-215c-4 0 -6 2 -6 7z" />
    <glyph glyph-name="degree" unicode="&#xb0;" horiz-adv-x="375" 
d="M226 587c0 32 -2 58 -7 79c45 -9 76 -37 76 -81c0 -43 -32 -70 -76 -78c5 19 7 46 7 80zM80 588c0 41 31 69 75 78c-5 -21 -7 -47 -7 -79c0 -36 2 -63 7 -80c-44 9 -75 38 -75 81zM187 471c-16 0 -27 12 -32 36c10 -2 21 -3 33 -3c11 0 21 1 31 3c-7 -24 -17 -36 -32 -36
zM219 666c-11 2 -21 3 -32 3s-22 -1 -32 -3c13 48 51 48 64 0z" />
    <glyph glyph-name="plusminus" unicode="&#xb1;" horiz-adv-x="576" 
d="M313 231v-196c0 -6 -3 -9 -8 -9h-38c-5 0 -7 4 -7 11v194c0 3 -1 5 -4 5h-208c-6 0 -9 3 -9 8v32c0 4 3 6 9 6h208c3 0 4 1 4 4v199c0 6 2 9 7 9h40c4 0 6 -3 6 -8v-199c0 -3 2 -5 5 -5h206c5 0 7 -2 7 -6v-33c0 -5 -2 -7 -7 -7h-207c-3 0 -4 -2 -4 -5zM529 -87h-478
c-5 0 -8 2 -8 7v33c0 5 2 8 7 8h480c5 0 7 -3 7 -8v-32c0 -5 -3 -8 -8 -8z" />
    <glyph glyph-name="twosuperior" unicode="&#xb2;" horiz-adv-x="392" 
d="M288 642c0 59 -41 86 -100 86c-52 0 -94 -21 -98 -73c-1 -7 -3 -10 -6 -10h-38c-5 0 -6 3 -5 8c8 77 58 115 149 115c85 0 150 -36 150 -124c0 -43 -25 -90 -75 -140l-148 -159c-3 -3 -4 -5 -1 -5h226c5 0 7 -2 7 -7v-27c0 -4 -2 -6 -7 -6h-293c-3 0 -5 2 -5 6v29
c0 3 2 7 6 11l169 178c46 47 69 87 69 118z" />
    <glyph glyph-name="threesuperior" unicode="&#xb3;" horiz-adv-x="348" 
d="M166 293c-83 0 -134 31 -155 92c-1 6 1 9 6 10l32 5c5 1 9 0 11 -5c17 -41 53 -61 106 -61c65 0 108 35 108 102c0 65 -45 104 -108 104h-22c-5 0 -7 2 -8 6l-6 25c-2 4 0 6 6 6h22c56 0 88 34 88 78c0 41 -29 75 -81 75c-35 0 -60 -13 -77 -39c-3 -5 -6 -7 -11 -6l-30 6
c-7 1 -8 5 -4 10c23 44 64 66 124 66c79 0 127 -41 127 -108c0 -49 -26 -87 -75 -95c-1 -1 0 -1 1 -2c59 -9 105 -51 105 -130c0 -93 -70 -139 -159 -139z" />
    <glyph glyph-name="acute" unicode="&#xb4;" horiz-adv-x="138" 
d="M50 730h-33c-4 0 -5 2 -3 7l83 106c4 5 8 7 13 7h42c9 0 10 -3 4 -9l-94 -106c-3 -3 -7 -5 -12 -5z" />
    <glyph glyph-name="mu" unicode="&#xb5;" horiz-adv-x="582" 
d="M431 190v266c0 6 2 9 6 9h41c4 0 6 -3 6 -8v-448c0 -6 -2 -9 -5 -9h-40c-3 0 -5 3 -5 8v61c0 3 1 3 -2 2c-29 -54 -84 -81 -164 -81c-54 0 -96 13 -125 39v-211c0 -5 -3 -8 -8 -8h-40c-5 0 -7 3 -7 9v638c0 5 3 8 8 8h41c4 0 6 -2 6 -7v-281c3 -91 41 -142 137 -142
c93 0 151 50 151 155z" />
    <glyph glyph-name="paragraph" unicode="&#xb6;" horiz-adv-x="547" 
d="M445 689v-805c0 -6 -2 -9 -7 -9h-28c-5 0 -7 2 -7 7v774c0 3 -2 5 -6 5h-64c-3 0 -5 -1 -5 -3v-775c0 -5 -2 -8 -7 -8h-28c-5 0 -7 3 -7 8v426c0 4 0 5 -4 4c-132 3 -219 78 -219 193c0 57 19 103 58 139c39 37 90 55 153 55h160c9 0 11 -2 11 -11z" />
    <glyph glyph-name="middot" unicode="&#xb7;" horiz-adv-x="234" 
d="M115 224c23 0 39 -17 39 -38c0 -20 -18 -37 -39 -37s-39 18 -39 37c0 21 18 38 39 38z" />
    <glyph glyph-name="cedilla" unicode="&#xb8;" horiz-adv-x="189" 
d="M97 -6h31l-14 -27c-1 -3 -1 -5 1 -5c43 -3 67 -21 73 -55c5 -39 -15 -63 -60 -74c-10 -3 -22 -4 -36 -4c-21 0 -41 3 -59 9c-5 1 -7 4 -7 7v11c1 4 5 5 13 3c10 -3 26 -4 49 -4c37 0 62 20 58 48c-5 25 -27 38 -68 38c-5 0 -7 2 -5 5z" />
    <glyph glyph-name="onesuperior" unicode="&#xb9;" horiz-adv-x="248" 
d="M63 680l-19 18c-3 1 -3 9 2 12l59 47c3 3 7 4 12 4h35c7 0 11 -4 11 -13v-434c0 -9 -3 -14 -10 -14h-32c-7 0 -10 4 -10 11v390c0 4 -2 4 -6 1l-30 -24c-4 -3 -8 -2 -12 2z" />
    <glyph glyph-name="ordmasculine" unicode="&#xba;" horiz-adv-x="393" 
d="M208 710c50 0 92 -16 127 -47s52 -73 52 -128s-17 -98 -52 -129s-77 -46 -127 -46s-92 15 -127 46s-52 74 -52 129s17 97 52 128s78 47 127 47zM208 664c-71 0 -124 -46 -124 -130s52 -128 124 -128s125 44 125 128s-53 130 -125 130z" />
    <glyph glyph-name="guillemotright" unicode="&#xbb;" horiz-adv-x="559" 
d="M80 422l26 20c5 2 8 1 11 -2l161 -189c7 -8 7 -16 0 -24l-162 -189c-2 -3 -5 -4 -8 -1l-27 19c-5 3 -5 6 -1 11l136 166c3 4 3 8 0 12l-138 170c-1 3 -1 5 2 7zM284 422l27 20c4 1 7 1 9 -1l165 -194c6 -6 6 -11 0 -16l-166 -195c-2 -2 -5 -2 -8 0l-27 20c-3 3 -4 6 -1 9
l140 171c1 1 1 4 0 7l-139 170c-3 3 -3 6 0 9z" />
    <glyph glyph-name="onequarter" unicode="&#xbc;" horiz-adv-x="900" 
d="M266 -45h-42c-5 0 -7 3 -4 10l313 749c2 5 5 7 10 7h41c6 0 7 -3 4 -9l-312 -750c-3 -5 -6 -7 -10 -7zM95 619l-19 18c-3 1 -3 9 2 12l59 47c3 3 7 4 12 4h35c7 0 11 -4 11 -13v-434c0 -9 -3 -14 -10 -14h-32c-7 0 -10 4 -10 11v390c0 4 -2 4 -6 1l-30 -24
c-4 -3 -8 -2 -12 2zM671 -7c-83 0 -134 31 -155 92c-1 6 1 9 6 10l32 5c5 1 9 0 11 -5c17 -41 53 -61 106 -61c65 0 108 35 108 102c0 65 -45 104 -108 104h-22c-5 0 -7 2 -8 6l-6 25c-2 4 0 6 6 6h22c57 0 88 34 88 78c0 41 -29 75 -81 75c-35 0 -60 -13 -77 -39
c-3 -5 -6 -7 -11 -6l-30 6c-7 1 -8 5 -4 10c23 44 64 66 124 66c79 0 127 -41 127 -108c0 -49 -26 -87 -75 -95c-1 -1 -1 -1 1 -2c59 -9 105 -51 105 -130c0 -93 -70 -139 -159 -139z" />
    <glyph glyph-name="onehalf" unicode="&#xbd;" horiz-adv-x="924" 
d="M267 -45h-42c-5 0 -7 3 -6 9l313 749c2 5 6 8 12 8h42c6 0 8 -3 5 -9l-313 -750c-1 -5 -5 -7 -11 -7zM95 619l-19 18c-3 1 -3 9 2 12l59 47c3 3 7 4 12 4h35c7 0 11 -4 11 -13v-434c0 -9 -3 -14 -10 -14h-32c-7 0 -10 4 -10 11v390c0 4 -2 4 -6 1l-30 -24
c-4 -3 -8 -2 -12 2zM793 342c0 59 -41 86 -100 86c-52 0 -94 -21 -98 -73c-1 -7 -3 -10 -6 -10h-38c-5 0 -6 3 -5 8c8 77 58 115 149 115c85 0 150 -36 150 -124c0 -43 -25 -90 -75 -140l-148 -159c-3 -3 -4 -5 -1 -5h226c5 0 7 -2 7 -7v-27c0 -4 -2 -6 -7 -6h-293
c-3 0 -5 2 -5 6v29c0 3 2 7 6 11l169 178c46 47 69 87 69 118z" />
    <glyph glyph-name="threequarters" unicode="&#xbe;" horiz-adv-x="1047" 
d="M398 -45h-42c-6 0 -7 3 -4 8l313 750c2 5 6 8 11 8h39c7 0 9 -2 6 -7l-314 -754c-1 -3 -4 -5 -9 -5zM203 233c-83 0 -134 31 -155 92c-1 6 1 9 6 10l32 5c5 1 9 0 11 -5c17 -41 53 -61 106 -61c65 0 108 35 108 102c0 65 -45 104 -108 104h-22c-5 0 -7 2 -8 6l-6 25
c-2 4 0 6 6 6h22c57 0 88 34 88 78c0 41 -29 75 -81 75c-35 0 -60 -13 -77 -39c-3 -5 -6 -7 -11 -6l-30 6c-7 1 -8 5 -4 10c23 44 64 66 124 66c79 0 127 -41 127 -108c0 -49 -26 -87 -75 -95c-1 -1 -1 -1 1 -2c59 -9 105 -51 105 -130c0 -93 -70 -139 -159 -139zM711 130
h169c1 0 2 1 2 4v314c0 3 2 5 5 5h39c3 0 5 -2 5 -6v-313c0 -3 1 -4 3 -4h48c4 0 6 -2 6 -6v-28c0 -3 -2 -5 -5 -5h-49c-2 0 -3 -1 -3 -3v-90c0 -4 -2 -6 -6 -6h-36c-5 0 -7 3 -7 8v86c0 3 -1 5 -3 5h-214c-4 0 -6 2 -6 6v30l3 12l93 251c1 3 3 4 6 4h37c4 0 5 -2 3 -7
l-92 -254c0 -2 1 -3 2 -3z" />
    <glyph glyph-name="questiondown" unicode="&#xbf;" horiz-adv-x="519" 
d="M299 317v-55c0 -147 -174 -181 -174 -305c0 -69 55 -117 139 -117c75 0 137 32 150 104c1 7 4 10 9 10h42c5 0 6 -4 5 -11c-12 -103 -94 -153 -207 -153c-115 0 -197 56 -197 164c0 56 28 105 61 137c51 49 114 95 114 171v56c0 5 2 8 7 8h44c5 0 7 -3 7 -9zM269 402
c-23 0 -40 17 -40 37c0 21 17 38 40 38c49 3 49 -79 0 -75z" />
    <glyph glyph-name="Agrave" unicode="&#xc0;" horiz-adv-x="652" 
d="M33 12l292 685c4 9 8 10 13 1l292 -687c3 -7 1 -11 -6 -11h-38c-7 0 -12 2 -13 7l-79 189h-325l-78 -188c-2 -5 -6 -8 -13 -8h-43c-5 0 -5 4 -2 12zM328 576l-137 -327h281l-135 326c-3 7 -6 8 -9 1zM301 738l-106 120c-5 4 -4 9 3 9h42c7 0 12 -3 16 -9l95 -118
c5 -5 3 -11 -2 -11h-29c-7 0 -13 3 -19 9z" />
    <glyph glyph-name="Aacute" unicode="&#xc1;" horiz-adv-x="652" 
d="M33 12l292 685c4 9 8 10 13 1l292 -687c3 -7 1 -11 -6 -11h-38c-7 0 -12 2 -13 7l-79 189h-325l-78 -188c-2 -5 -6 -8 -13 -8h-43c-5 0 -5 4 -2 12zM328 576l-137 -327h281l-135 326c-3 7 -6 8 -9 1zM350 730h-33c-4 0 -5 2 -3 7l83 106c4 5 8 7 13 7h42c9 0 10 -3 4 -9
l-94 -106c-3 -3 -7 -5 -12 -5z" />
    <glyph glyph-name="Acircumflex" unicode="&#xc2;" horiz-adv-x="652" 
d="M33 12l292 685c4 9 8 10 13 1l292 -687c3 -7 1 -11 -6 -11h-38c-7 0 -12 2 -13 7l-79 189h-325l-78 -188c-2 -5 -6 -8 -13 -8h-43c-5 0 -5 4 -2 12zM328 576l-137 -327h281l-135 326c-3 7 -6 8 -9 1zM322 850h16c3 0 7 -2 10 -5l104 -109c4 -3 3 -7 -1 -7h-25
c-4 0 -7 2 -10 5l-81 73c-3 1 -4 2 -5 2s-3 -1 -4 -2l-81 -73c-3 -3 -7 -5 -11 -5h-24c-5 0 -5 4 -2 7l104 109c3 3 7 5 10 5z" />
    <glyph glyph-name="Atilde" unicode="&#xc3;" horiz-adv-x="652" 
d="M33 12l292 685c4 9 8 10 13 1l292 -687c3 -7 1 -11 -6 -11h-38c-7 0 -12 2 -13 7l-77 185h-328l-77 -184c-2 -5 -6 -8 -13 -8h-43c-5 0 -5 4 -2 12zM328 576l-139 -332h285l-137 331c-3 7 -6 8 -9 1zM378 731c-13 0 -30 6 -51 18c-21 13 -37 19 -47 19
c-11 0 -25 -10 -41 -30c-3 -3 -5 -4 -8 -3l-15 13c-3 3 -3 5 -2 8c20 34 44 51 73 51c12 0 29 -6 50 -18s37 -18 48 -18c18 0 32 9 41 28c2 4 5 5 8 4l15 -12c4 -2 5 -5 3 -8c-20 -35 -45 -52 -74 -52z" />
    <glyph glyph-name="Adieresis" unicode="&#xc4;" horiz-adv-x="652" 
d="M33 12l292 685c4 9 8 10 13 1l292 -687c3 -7 1 -11 -6 -11h-38c-7 0 -12 2 -13 7l-79 189h-325l-78 -188c-2 -5 -6 -8 -13 -8h-43c-5 0 -5 4 -2 12zM328 576l-137 -327h281l-135 326c-3 7 -6 8 -9 1zM259 810c23 0 39 -16 39 -37c0 -20 -18 -37 -39 -37s-38 17 -38 37
c0 21 17 37 38 37zM442 773c0 -20 -18 -37 -39 -37s-38 17 -38 37c0 48 77 48 77 0z" />
    <glyph glyph-name="Aring" unicode="&#xc5;" horiz-adv-x="652" 
d="M33 12l292 685c4 9 8 10 13 1l292 -687c3 -7 1 -11 -6 -11h-38c-7 0 -12 2 -13 7l-79 189h-325l-78 -188c-2 -5 -6 -8 -13 -8h-43c-5 0 -5 4 -2 12zM328 576l-137 -327h281l-135 326c-3 7 -6 8 -9 1zM419 809c0 -40 -33 -72 -86 -72c-52 0 -85 32 -85 72
c0 39 33 71 85 71c53 0 86 -32 86 -71zM333 765c60 0 60 86 0 86c-59 0 -58 -86 0 -86z" />
    <glyph glyph-name="AE" unicode="&#xc6;" horiz-adv-x="1014" 
d="M517 8v198h-285l-130 -196c-5 -7 -11 -10 -20 -10h-35c-13 0 -9 6 -3 16l442 673c5 7 11 11 19 11h355c7 0 10 -2 10 -7v-37c0 -5 0 -7 -8 -7h-287c-1 0 -2 -1 -2 -3v-254c0 -3 1 -4 3 -4h287c5 0 7 -3 7 -8v-31c0 -8 -3 -12 -8 -12h-285c-3 0 -4 -1 -4 -4v-278
c0 -2 1 -3 3 -3h288c4 0 6 -4 6 -11v-32c0 -6 -3 -9 -10 -9h-335c-5 0 -8 3 -8 8zM517 632l-251 -376h251v376z" />
    <glyph glyph-name="Ccedilla" unicode="&#xc7;" horiz-adv-x="652" 
d="M118 350c0 -85 30 -157 89 -217c60 -60 132 -90 217 -90c57 0 113 12 166 37c8 4 12 2 12 -3v-37c0 -5 -3 -9 -9 -12c-53 -23 -107 -36 -160 -38l-7 -14c-1 -3 -1 -5 1 -5c43 -3 67 -21 73 -55c5 -39 -15 -63 -60 -74c-10 -3 -22 -4 -36 -4c-21 0 -41 3 -59 9
c-5 1 -7 4 -7 7v11c1 4 5 5 13 3c10 -3 26 -4 49 -4c37 0 62 20 58 48c-5 25 -27 38 -68 38c-5 0 -7 2 -5 5l18 36c-95 5 -176 42 -242 111c-65 69 -98 152 -98 248c0 99 35 184 105 255c71 71 156 106 256 106c65 0 119 -13 163 -38c10 -6 15 -12 15 -17v-32
c0 -10 -3 -9 -16 -3c-29 14 -54 24 -77 29c-22 6 -50 9 -85 9c-85 0 -157 -30 -217 -91c-59 -60 -89 -133 -89 -218z" />
    <glyph glyph-name="Egrave" unicode="&#xc8;" horiz-adv-x="515" 
d="M102 8v686c0 4 2 6 6 6h337c7 0 10 -2 10 -7v-37c0 -5 0 -7 -8 -7h-287c-1 0 -2 -1 -2 -3v-254c0 -3 1 -4 3 -4h287c5 0 7 -3 7 -8v-31c0 -8 -3 -12 -8 -12h-285c-3 0 -4 -1 -4 -4v-278c0 -2 1 -3 3 -3h288c4 0 6 -4 6 -11v-32c0 -6 -3 -9 -10 -9h-335c-5 0 -8 3 -8 8z
M254 738l-106 120c-5 4 -4 9 3 9h42c7 0 12 -3 16 -9l95 -118c5 -5 3 -11 -2 -11h-29c-7 0 -13 3 -19 9z" />
    <glyph glyph-name="Eacute" unicode="&#xc9;" horiz-adv-x="515" 
d="M102 8v686c0 4 2 6 6 6h337c7 0 10 -2 10 -7v-37c0 -5 0 -7 -8 -7h-287c-1 0 -2 -1 -2 -3v-254c0 -3 1 -4 3 -4h287c5 0 7 -3 7 -8v-31c0 -8 -3 -12 -8 -12h-285c-3 0 -4 -1 -4 -4v-278c0 -2 1 -3 3 -3h288c4 0 6 -4 6 -11v-32c0 -6 -3 -9 -10 -9h-335c-5 0 -8 3 -8 8z
M303 730h-33c-4 0 -5 2 -3 7l83 106c4 5 8 7 13 7h42c9 0 10 -3 4 -9l-94 -106c-3 -3 -7 -5 -12 -5z" />
    <glyph glyph-name="Ecircumflex" unicode="&#xca;" horiz-adv-x="515" 
d="M102 8v686c0 4 2 6 6 6h337c7 0 10 -2 10 -7v-37c0 -5 0 -7 -8 -7h-287c-1 0 -2 -1 -2 -3v-254c0 -3 1 -4 3 -4h287c5 0 7 -3 7 -8v-31c0 -8 -3 -12 -8 -12h-285c-3 0 -4 -1 -4 -4v-278c0 -2 1 -3 3 -3h288c4 0 6 -4 6 -11v-32c0 -6 -3 -9 -10 -9h-335c-5 0 -8 3 -8 8z
M274 850h16c3 0 7 -2 10 -5l104 -109c4 -3 3 -7 -1 -7h-25c-4 0 -7 2 -10 5l-81 73c-3 1 -4 2 -5 2s-3 -1 -4 -2l-81 -73c-3 -3 -7 -5 -11 -5h-24c-5 0 -5 4 -2 7l104 109c3 3 7 5 10 5z" />
    <glyph glyph-name="Edieresis" unicode="&#xcb;" horiz-adv-x="515" 
d="M102 8v686c0 4 2 6 6 6h337c7 0 10 -2 10 -7v-37c0 -5 0 -7 -8 -7h-287c-1 0 -2 -1 -2 -3v-254c0 -3 1 -4 3 -4h287c5 0 7 -3 7 -8v-31c0 -8 -3 -12 -8 -12h-285c-3 0 -4 -1 -4 -4v-278c0 -2 1 -3 3 -3h288c4 0 6 -4 6 -11v-32c0 -6 -3 -9 -10 -9h-335c-5 0 -8 3 -8 8z
M215 810c23 0 39 -16 39 -37c0 -20 -18 -37 -39 -37s-38 17 -38 37c0 21 17 37 38 37zM398 773c0 -20 -18 -37 -39 -37s-38 17 -38 37c0 48 77 48 77 0z" />
    <glyph glyph-name="Igrave" unicode="&#xcc;" horiz-adv-x="247" 
d="M101 738l-106 120c-5 4 -4 9 3 9h42c7 0 12 -3 16 -9l95 -118c5 -5 3 -11 -2 -11h-29c-7 0 -13 3 -19 9zM152 0h-40c-9 0 -9 1 -9 10v680c0 7 3 10 8 10h42c4 0 6 -3 6 -10v-681c0 -6 -2 -9 -7 -9z" />
    <glyph glyph-name="Iacute" unicode="&#xcd;" horiz-adv-x="247" 
d="M145 0h-40c-9 0 -9 1 -9 10v680c0 7 3 10 8 10h42c4 0 6 -3 6 -10v-681c0 -6 -2 -9 -7 -9zM149 730h-33c-4 0 -5 2 -3 7l83 106c4 5 8 7 13 7h42c9 0 10 -3 4 -9l-94 -106c-3 -3 -7 -5 -12 -5z" />
    <glyph glyph-name="Icircumflex" unicode="&#xce;" horiz-adv-x="247" 
d="M122 850h16c3 0 7 -2 10 -5l104 -109c4 -3 3 -7 -1 -7h-25c-4 0 -7 2 -10 5l-81 73c-3 1 -4 2 -5 2s-3 -1 -4 -2l-81 -73c-3 -3 -7 -5 -11 -5h-24c-5 0 -5 4 -2 7l104 109c3 3 7 5 10 5zM151 0h-40c-9 0 -9 1 -9 10v680c0 7 3 10 8 10h42c4 0 6 -3 6 -10v-681
c0 -6 -2 -9 -7 -9z" />
    <glyph glyph-name="Idieresis" unicode="&#xcf;" horiz-adv-x="247" 
d="M51 810c23 0 39 -16 39 -37c0 -20 -18 -37 -39 -37s-38 17 -38 37c0 21 17 37 38 37zM234 773c0 -20 -18 -37 -39 -37s-38 17 -38 37c0 48 77 48 77 0zM145 0h-40c-9 0 -9 1 -9 10v680c0 7 3 10 8 10h42c4 0 6 -3 6 -10v-681c0 -6 -2 -9 -7 -9z" />
    <glyph glyph-name="Eth" unicode="&#xd0;" horiz-adv-x="656" 
d="M223 0h-129c-6 0 -9 4 -9 11v318h-72c-6 0 -9 3 -9 8v31c0 5 3 7 9 7h72v314c0 7 3 11 9 11h128c118 0 209 -34 274 -101s98 -150 98 -249s-33 -183 -98 -250s-156 -100 -273 -100zM141 644v-269h136c7 0 11 -2 11 -7v-33c0 -4 -3 -6 -8 -6h-139v-271c0 -5 2 -8 6 -8h75
c100 0 177 29 232 86s82 128 82 211c0 87 -27 159 -82 216c-54 57 -132 86 -235 86h-73c-3 0 -5 -2 -5 -5z" />
    <glyph glyph-name="Ntilde" unicode="&#xd1;" horiz-adv-x="711" 
d="M609 693v-691c0 -8 -3 -8 -10 0l-442 558v-552c0 -5 -2 -8 -6 -8h-44c-3 0 -5 3 -5 8v685c0 10 3 12 10 5l442 -561v556c0 5 2 7 5 7h44c4 0 6 -2 6 -7zM404 742c-12 0 -29 6 -50 18c-21 13 -37 19 -48 19s-25 -10 -41 -30c-3 -3 -5 -4 -8 -3l-15 13c-3 3 -3 5 -2 8
c20 34 44 51 73 51c12 0 29 -6 50 -18s37 -18 48 -18c18 0 32 9 41 28c2 4 5 5 8 4l15 -12c4 -2 5 -5 3 -8c-20 -35 -45 -52 -74 -52z" />
    <glyph glyph-name="Ograve" unicode="&#xd2;" horiz-adv-x="850" 
d="M63 350c0 99 35 184 106 255s157 106 256 106s184 -35 255 -106s107 -156 107 -255c0 -100 -35 -185 -106 -255s-156 -105 -256 -105s-185 35 -256 105s-106 155 -106 255zM119 350c0 -85 30 -157 89 -217c60 -60 132 -90 217 -90s157 30 216 90s89 132 89 217
s-30 158 -89 218c-59 61 -131 91 -216 91s-157 -30 -217 -91c-59 -60 -89 -133 -89 -218zM394 749l-106 120c-5 4 -4 9 3 9h42c7 0 12 -3 16 -9l95 -118c5 -5 3 -11 -2 -11h-29c-7 0 -13 3 -19 9z" />
    <glyph glyph-name="Oacute" unicode="&#xd3;" horiz-adv-x="850" 
d="M63 350c0 99 35 184 106 255s157 106 256 106s184 -35 255 -106s107 -156 107 -255c0 -100 -35 -185 -106 -255s-156 -105 -256 -105s-185 35 -256 105s-106 155 -106 255zM119 350c0 -85 30 -157 89 -217c60 -60 132 -90 217 -90s157 30 216 90s89 132 89 217
s-30 158 -89 218c-59 61 -131 91 -216 91s-157 -30 -217 -91c-59 -60 -89 -133 -89 -218zM442 741h-33c-5 0 -6 2 -3 7l83 106c4 5 8 7 13 7h42c9 0 10 -3 4 -9l-94 -106c-3 -3 -7 -5 -12 -5z" />
    <glyph glyph-name="Ocircumflex" unicode="&#xd4;" horiz-adv-x="850" 
d="M63 350c0 99 35 184 106 255s157 106 256 106s184 -35 255 -106s107 -156 107 -255c0 -100 -35 -185 -106 -255s-156 -105 -256 -105s-185 35 -256 105s-106 155 -106 255zM119 350c0 -85 30 -157 89 -217c60 -60 132 -90 217 -90s157 30 216 90s89 132 89 217
s-30 158 -89 218c-59 61 -131 91 -216 91s-157 -30 -217 -91c-59 -60 -89 -133 -89 -218zM413 861h16c3 0 7 -2 10 -5l104 -109c4 -3 3 -7 -1 -7h-25c-4 0 -7 2 -10 5l-81 73c-3 1 -4 2 -5 2s-3 -1 -4 -2l-81 -73c-3 -3 -7 -5 -11 -5h-24c-5 0 -5 4 -2 7l104 109
c3 3 7 5 10 5z" />
    <glyph glyph-name="Otilde" unicode="&#xd5;" horiz-adv-x="850" 
d="M63 350c0 99 35 184 106 255s157 106 256 106s184 -35 255 -106s107 -156 107 -255c0 -100 -35 -185 -106 -255s-156 -105 -256 -105s-185 35 -256 105s-106 155 -106 255zM119 350c0 -85 30 -157 89 -217c60 -60 132 -90 217 -90s157 30 216 90s89 132 89 217
s-30 158 -89 218c-59 61 -131 91 -216 91s-157 -30 -217 -91c-59 -60 -89 -133 -89 -218zM472 742c-12 0 -29 6 -50 18c-21 13 -37 19 -48 19s-25 -10 -41 -30c-3 -3 -5 -4 -8 -3l-15 13c-3 3 -3 5 -2 8c20 34 44 51 73 51c12 0 29 -6 50 -18s37 -18 48 -18c18 0 32 9 41 28
c2 4 5 5 8 4l15 -12c4 -2 5 -5 3 -8c-20 -35 -45 -52 -74 -52z" />
    <glyph glyph-name="Odieresis" unicode="&#xd6;" horiz-adv-x="850" 
d="M63 350c0 99 35 184 106 255s157 106 256 106s184 -35 255 -106s107 -156 107 -255c0 -100 -35 -185 -106 -255s-156 -105 -256 -105s-185 35 -256 105s-106 155 -106 255zM119 350c0 -85 30 -157 89 -217c60 -60 132 -90 217 -90s157 30 216 90s89 132 89 217
s-30 158 -89 218c-59 61 -131 91 -216 91s-157 -30 -217 -91c-59 -60 -89 -133 -89 -218zM354 821c23 0 39 -16 39 -37c0 -20 -18 -37 -39 -37s-38 17 -38 37c0 21 17 37 38 37zM537 784c0 -20 -18 -37 -39 -37s-38 17 -38 37c0 48 77 48 77 0z" />
    <glyph glyph-name="multiply" unicode="&#xd7;" horiz-adv-x="545" 
d="M468 40l-196 185l-198 -185l-36 34l197 184l-196 186l35 32l197 -184l198 184l36 -33l-197 -185l195 -183c-9 -8 -23 -27 -35 -35z" />
    <glyph glyph-name="Oslash" unicode="&#xd8;" horiz-adv-x="850" 
d="M618 754l-34 -80c61 -30 110 -74 147 -132s56 -122 56 -192c0 -100 -35 -185 -106 -255s-156 -105 -256 -105c-39 0 -79 6 -118 19l-19 -47c-3 -6 -7 -9 -12 -9h-41c-7 0 -9 3 -7 10l28 68c-117 61 -193 182 -193 319c0 99 35 184 106 255s157 106 256 106
c35 0 71 -5 107 -16l27 64c3 7 7 11 12 11h43c8 0 9 -5 4 -16zM730 350c0 117 -66 223 -166 275l-236 -567c30 -10 62 -15 97 -15c85 0 157 30 216 90s89 132 89 217zM119 350c0 -113 62 -214 158 -269l235 565c-31 9 -60 13 -87 13c-85 0 -157 -30 -217 -91
c-59 -60 -89 -133 -89 -218z" />
    <glyph glyph-name="Ugrave" unicode="&#xd9;" horiz-adv-x="657" 
d="M303 749l-106 120c-5 4 -4 9 3 9h42c7 0 12 -3 16 -9l95 -118c5 -5 3 -11 -2 -11h-29c-7 0 -13 3 -19 9zM507 246v445c0 6 2 9 6 9h45c5 0 7 -3 7 -9v-448c0 -169 -77 -253 -231 -253c-155 0 -232 84 -232 253v449c0 5 2 8 6 8h46c4 0 6 -3 6 -10v-444
c0 -75 16 -127 49 -157s75 -45 125 -45c115 0 173 67 173 202z" />
    <glyph glyph-name="Uacute" unicode="&#xda;" horiz-adv-x="657" 
d="M507 246v445c0 6 2 9 6 9h45c5 0 7 -3 7 -9v-448c0 -169 -77 -253 -231 -253c-155 0 -232 84 -232 253v449c0 5 2 8 6 8h46c4 0 6 -3 6 -10v-444c0 -75 16 -127 49 -157s75 -45 125 -45c115 0 173 67 173 202zM352 741h-33c-5 0 -6 2 -3 7l83 106c4 5 8 7 13 7h42
c9 0 10 -3 4 -9l-94 -106c-3 -3 -7 -5 -12 -5z" />
    <glyph glyph-name="Ucircumflex" unicode="&#xdb;" horiz-adv-x="657" 
d="M322 861h16c3 0 7 -2 10 -5l104 -109c4 -3 3 -7 -1 -7h-25c-4 0 -7 2 -10 5l-81 73c-3 1 -4 2 -5 2s-3 -1 -4 -2l-81 -73c-3 -3 -7 -5 -11 -5h-24c-5 0 -5 4 -2 7l104 109c3 3 7 5 10 5zM507 246v445c0 6 2 9 6 9h45c5 0 7 -3 7 -9v-448c0 -169 -77 -253 -231 -253
c-155 0 -232 84 -232 253v449c0 5 2 8 6 8h46c4 0 6 -3 6 -10v-444c0 -75 16 -127 49 -157s75 -45 125 -45c115 0 173 67 173 202z" />
    <glyph glyph-name="Udieresis" unicode="&#xdc;" horiz-adv-x="657" 
d="M507 246v445c0 6 2 9 6 9h45c5 0 7 -3 7 -9v-448c0 -169 -77 -253 -231 -253c-155 0 -232 84 -232 253v449c0 5 2 8 6 8h46c4 0 6 -3 6 -10v-444c0 -75 16 -127 49 -157s75 -45 125 -45c115 0 173 67 173 202zM264 821c23 0 39 -16 39 -37c0 -20 -18 -37 -39 -37
s-38 17 -38 37c0 21 17 37 38 37zM447 784c0 -20 -18 -37 -39 -37s-38 17 -38 37c0 48 77 48 77 0z" />
    <glyph glyph-name="Yacute" unicode="&#xdd;" horiz-adv-x="549" 
d="M306 0h-46c-5 0 -7 4 -7 13v348c0 12 -2 20 -5 24l-217 304c-5 7 -4 11 3 11h44c5 0 9 -3 12 -8l184 -253c8 -17 10 -16 17 -2l180 253c5 7 9 10 12 10h46c6 0 7 -3 3 -10l-215 -306c-3 -5 -5 -13 -5 -26v-347c0 -7 -2 -11 -6 -11zM292 745h-33c-4 0 -5 2 -3 7l83 106
c4 5 8 7 13 7h42c9 0 10 -3 4 -9l-94 -106c-3 -3 -7 -5 -12 -5z" />
    <glyph glyph-name="Thorn" unicode="&#xde;" horiz-adv-x="553" 
d="M152 0h-41c-9 0 -9 1 -9 9v681c0 7 3 10 8 10h42c4 0 6 -3 6 -10v-130h85c165 0 247 -63 247 -189c0 -127 -81 -191 -242 -191h-77c-8 0 -12 -3 -13 -8v-164c0 -5 -2 -8 -6 -8zM246 508h-79c-6 0 -9 -3 -9 -9v-259c0 -5 4 -7 11 -7h79c122 0 183 46 183 138
c0 97 -61 137 -185 137z" />
    <glyph glyph-name="germandbls" unicode="&#xdf;" horiz-adv-x="639" 
d="M140 0h-33c-6 0 -9 4 -9 13v510c0 60 19 105 58 136s85 47 138 47c55 0 102 -16 140 -48c38 -31 57 -74 57 -127c0 -73 -40 -134 -107 -169c51 -20 84 -37 125 -69c43 -31 67 -74 67 -125c0 -101 -92 -168 -264 -168h-15c-9 0 -13 4 -13 11v26c0 7 5 10 15 10h17
c58 0 106 10 145 30c39 21 59 51 59 90c0 61 -48 109 -155 156c-20 9 -23 9 -36 16c-12 8 -15 15 -15 23c0 18 22 25 43 41c51 35 77 77 77 126c0 77 -56 130 -144 130c-36 0 -68 -11 -96 -33s-42 -56 -42 -103v-504c0 -13 -4 -19 -12 -19z" />
    <glyph glyph-name="agrave" unicode="&#xe0;" horiz-adv-x="556" 
d="M424 7l-5 28c-51 -30 -109 -45 -174 -45c-104 0 -166 54 -166 137c0 88 74 141 179 141c56 0 108 -11 157 -34v73c0 80 -46 120 -138 120c-59 0 -107 -8 -144 -25c-5 -4 -10 -1 -10 4v36c0 5 2 9 7 11c51 15 103 22 154 22c109 0 184 -53 184 -170v-298c0 -5 -2 -7 -6 -7
h-30c-5 0 -7 2 -8 7zM131 129c0 -55 48 -94 117 -94c66 0 122 15 167 44v108c-44 24 -97 36 -160 36c-69 0 -124 -38 -124 -94zM259 557l-106 120c-5 4 -4 9 3 9h42c7 0 12 -3 16 -9l95 -118c5 -5 3 -11 -2 -11h-29c-7 0 -13 3 -19 9z" />
    <glyph glyph-name="aacute" unicode="&#xe1;" horiz-adv-x="556" 
d="M424 7l-5 28c-51 -30 -109 -45 -174 -45c-104 0 -166 54 -166 137c0 88 74 141 179 141c56 0 108 -11 157 -34v73c0 80 -46 120 -138 120c-59 0 -107 -8 -144 -25c-5 -4 -10 -1 -10 4v36c0 5 2 9 7 11c51 15 103 22 154 22c109 0 184 -53 184 -170v-298c0 -5 -2 -7 -6 -7
h-30c-5 0 -7 2 -8 7zM131 129c0 -55 48 -94 117 -94c66 0 122 15 167 44v108c-44 24 -97 36 -160 36c-69 0 -124 -38 -124 -94zM303 549h-33c-4 0 -5 2 -3 7l83 106c4 5 8 7 13 7h42c9 0 10 -3 4 -9l-94 -106c-3 -3 -7 -5 -12 -5z" />
    <glyph glyph-name="acircumflex" unicode="&#xe2;" horiz-adv-x="556" 
d="M424 7l-5 28c-51 -30 -109 -45 -174 -45c-104 0 -166 54 -166 137c0 88 74 141 179 141c56 0 108 -11 157 -34v73c0 80 -46 120 -138 120c-59 0 -107 -8 -144 -25c-5 -4 -10 -1 -10 4v36c0 5 2 9 7 11c51 15 103 22 154 22c109 0 184 -53 184 -170v-298c0 -5 -2 -7 -6 -7
h-30c-5 0 -7 2 -8 7zM131 129c0 -55 48 -94 117 -94c66 0 122 15 167 44v108c-44 24 -97 36 -160 36c-69 0 -124 -38 -124 -94zM278 669h16c3 0 7 -2 10 -5l104 -109c4 -3 3 -7 -1 -7h-25c-4 0 -7 2 -10 5l-81 73c-3 1 -4 2 -5 2s-3 -1 -4 -2l-81 -73c-3 -3 -7 -5 -11 -5
h-24c-5 0 -5 4 -2 7l104 109c3 3 7 5 10 5z" />
    <glyph glyph-name="atilde" unicode="&#xe3;" horiz-adv-x="556" 
d="M424 7l-5 28c-51 -30 -109 -45 -174 -45c-104 0 -166 54 -166 137c0 88 74 141 179 141c56 0 108 -11 157 -34v73c0 80 -46 120 -138 120c-59 0 -107 -8 -144 -25c-5 -4 -10 -1 -10 4v36c0 5 2 9 7 11c51 15 103 22 154 22c109 0 184 -53 184 -170v-298c0 -5 -2 -7 -6 -7
h-30c-5 0 -7 2 -8 7zM131 129c0 -55 48 -94 117 -94c66 0 122 15 167 44v108c-44 24 -97 36 -160 36c-69 0 -124 -38 -124 -94zM333 550c-13 0 -30 6 -51 18c-21 13 -37 19 -47 19c-11 0 -25 -10 -41 -30c-3 -3 -5 -4 -8 -3l-15 13c-3 3 -3 5 -2 8c20 34 44 51 73 51
c12 0 29 -6 50 -18s37 -18 48 -18c18 0 32 9 41 28c2 4 5 5 8 4l15 -12c4 -2 5 -5 3 -8c-20 -35 -45 -52 -74 -52z" />
    <glyph glyph-name="adieresis" unicode="&#xe4;" horiz-adv-x="556" 
d="M424 7l-5 28c-51 -30 -109 -45 -174 -45c-104 0 -166 54 -166 137c0 88 74 141 179 141c56 0 108 -11 157 -34v73c0 80 -46 120 -138 120c-59 0 -107 -8 -144 -25c-5 -4 -10 -1 -10 4v36c0 5 2 9 7 11c51 15 103 22 154 22c109 0 184 -53 184 -170v-298c0 -5 -2 -7 -6 -7
h-30c-5 0 -7 2 -8 7zM131 129c0 -55 48 -94 117 -94c66 0 122 15 167 44v108c-44 24 -97 36 -160 36c-69 0 -124 -38 -124 -94zM219 629c23 0 39 -16 39 -37c0 -20 -18 -37 -39 -37s-38 17 -38 37c0 21 17 37 38 37zM402 592c0 -20 -18 -37 -39 -37s-38 17 -38 37
c0 48 77 48 77 0z" />
    <glyph glyph-name="aring" unicode="&#xe5;" horiz-adv-x="556" 
d="M424 7l-5 28c-51 -30 -109 -45 -174 -45c-104 0 -166 54 -166 137c0 88 74 141 179 141c56 0 108 -11 157 -34v73c0 80 -46 120 -138 120c-59 0 -107 -8 -144 -25c-5 -4 -10 -1 -10 4v36c0 5 2 9 7 11c51 15 103 22 154 22c109 0 184 -53 184 -170v-298c0 -5 -2 -7 -6 -7
h-30c-5 0 -7 2 -8 7zM131 129c0 -55 48 -94 117 -94c66 0 122 15 167 44v108c-44 24 -97 36 -160 36c-69 0 -124 -38 -124 -94zM374 628c0 -40 -33 -72 -86 -72c-52 0 -85 32 -85 72c0 39 33 71 85 71c53 0 86 -32 86 -71zM288 584c60 0 60 86 0 86c-59 0 -58 -86 0 -86z
" />
    <glyph glyph-name="ae" unicode="&#xe6;" horiz-adv-x="913" 
d="M470 229v-2c0 -111 58 -190 187 -190c61 0 115 10 164 31c5 1 7 0 7 -5v-32c0 -5 -1 -8 -4 -10c-49 -21 -107 -31 -174 -31c-81 0 -142 25 -183 74c-67 -49 -140 -74 -220 -74c-104 0 -168 54 -168 137c0 88 74 141 179 141c56 0 108 -11 157 -34v73
c0 80 -46 120 -138 120c-59 0 -107 -8 -144 -25c-5 -4 -10 -1 -10 4v36c0 5 2 9 7 11c51 15 103 22 154 22c91 0 149 -33 173 -100c40 63 106 100 181 100c64 0 117 -21 160 -63s64 -98 64 -167v-8c0 -5 -3 -8 -9 -8h-383zM419 180l-4 3v4c-44 24 -97 36 -160 36
c-69 0 -124 -38 -124 -94c0 -55 48 -94 117 -94s146 27 193 68c-10 21 -17 47 -22 77zM638 431c-43 0 -79 -15 -109 -45c-30 -29 -49 -68 -56 -115h336c-5 46 -24 84 -55 114c-31 31 -70 46 -116 46z" />
    <glyph glyph-name="ccedilla" unicode="&#xe7;" horiz-adv-x="488" 
d="M111 231c0 -54 19 -100 57 -138c38 -37 85 -56 141 -56c45 0 85 11 121 32c5 2 7 1 7 -4v-35c0 -5 -2 -9 -5 -10c-35 -19 -74 -29 -117 -31l-10 -20c-1 -3 -1 -5 1 -5c43 -3 67 -21 73 -55c5 -39 -15 -63 -60 -74c-10 -3 -22 -4 -36 -4c-21 0 -41 3 -59 9c-5 1 -7 4 -7 7
v11c1 4 5 5 13 3c10 -3 26 -4 49 -4c37 0 62 20 58 48c-5 25 -27 38 -68 38c-5 0 -7 2 -5 5l21 42c-65 5 -119 30 -163 76s-66 101 -66 165c0 67 24 125 72 172s106 71 175 71c39 0 81 -10 125 -30c6 -3 9 -6 9 -11v-35c0 -6 -3 -7 -9 -4c-40 21 -80 32 -119 32
c-56 0 -103 -19 -141 -57c-38 -37 -57 -83 -57 -138z" />
    <glyph glyph-name="egrave" unicode="&#xe8;" horiz-adv-x="553" 
d="M502 245v-8c0 -5 -3 -8 -9 -8h-384v-2c0 -111 58 -190 187 -190c45 0 90 11 135 33c7 3 10 1 10 -4v-31c0 -5 -2 -8 -6 -11c-44 -23 -92 -34 -145 -34c-80 0 -139 22 -177 66c-38 45 -57 101 -57 170c0 74 22 134 65 180s96 69 158 69c63 0 116 -21 159 -63
s64 -98 64 -167zM279 431c-85 0 -151 -64 -167 -159h337c-11 95 -75 159 -170 159zM246 557l-106 120c-5 4 -4 9 3 9h42c7 0 12 -3 16 -9l95 -118c5 -5 3 -11 -2 -11h-29c-7 0 -13 3 -19 9z" />
    <glyph glyph-name="eacute" unicode="&#xe9;" horiz-adv-x="553" 
d="M502 245v-8c0 -5 -3 -8 -9 -8h-384v-2c0 -111 58 -190 187 -190c45 0 90 11 135 33c7 3 10 1 10 -4v-31c0 -5 -2 -8 -6 -11c-44 -23 -92 -34 -145 -34c-80 0 -139 22 -177 66c-38 45 -57 101 -57 170c0 74 22 134 65 180s96 69 158 69c63 0 116 -21 159 -63
s64 -98 64 -167zM279 431c-85 0 -151 -64 -167 -159h337c-11 95 -75 159 -170 159zM295 549h-33c-4 0 -5 2 -3 7l83 106c4 5 8 7 13 7h42c9 0 10 -3 4 -9l-94 -106c-3 -3 -7 -5 -12 -5z" />
    <glyph glyph-name="ecircumflex" unicode="&#xea;" horiz-adv-x="553" 
d="M502 245v-8c0 -5 -3 -8 -9 -8h-384v-2c0 -111 58 -190 187 -190c45 0 90 11 135 33c7 3 10 1 10 -4v-31c0 -5 -2 -8 -6 -11c-44 -23 -92 -34 -145 -34c-80 0 -139 22 -177 66c-38 45 -57 101 -57 170c0 74 22 134 65 180s96 69 158 69c63 0 116 -21 159 -63
s64 -98 64 -167zM279 431c-85 0 -151 -64 -167 -159h337c-11 95 -75 159 -170 159zM266 669h16c3 0 7 -2 10 -5l104 -109c4 -3 3 -7 -1 -7h-25c-4 0 -7 2 -10 5l-81 73c-3 1 -4 2 -5 2s-3 -1 -4 -2l-81 -73c-3 -3 -7 -5 -11 -5h-24c-5 0 -5 4 -2 7l104 109c3 3 7 5 10 5z
" />
    <glyph glyph-name="edieresis" unicode="&#xeb;" horiz-adv-x="553" 
d="M502 245v-8c0 -5 -3 -8 -9 -8h-384v-2c0 -111 58 -190 187 -190c45 0 90 11 135 33c7 3 10 1 10 -4v-31c0 -5 -2 -8 -6 -11c-44 -23 -92 -34 -145 -34c-80 0 -139 22 -177 66c-38 45 -57 101 -57 170c0 74 22 134 65 180s96 69 158 69c63 0 116 -21 159 -63
s64 -98 64 -167zM279 431c-85 0 -151 -64 -167 -159h337c-11 95 -75 159 -170 159zM207 629c23 0 39 -16 39 -37c0 -20 -18 -37 -39 -37s-38 17 -38 37c0 21 17 37 38 37zM390 592c0 -20 -18 -37 -39 -37s-38 17 -38 37c0 48 77 48 77 0z" />
    <glyph glyph-name="igrave" unicode="&#xec;" horiz-adv-x="230" 
d="M86 557l-106 120c-5 4 -4 9 3 9h42c7 0 12 -3 16 -9l95 -118c5 -5 3 -11 -2 -11h-29c-7 0 -13 3 -19 9zM143 454v-445c0 -6 -3 -9 -8 -9h-37c-6 0 -9 3 -9 8v445c0 11 2 12 13 12h32c6 0 9 -4 9 -11z" />
    <glyph glyph-name="iacute" unicode="&#xed;" horiz-adv-x="230" 
d="M142 454v-445c0 -6 -3 -9 -8 -9h-37c-6 0 -9 3 -9 8v445c0 11 2 12 13 12h32c6 0 9 -4 9 -11zM134 549h-33c-5 0 -6 2 -3 7l83 106c4 5 8 7 13 7h42c9 0 10 -3 4 -9l-94 -106c-3 -3 -7 -5 -12 -5z" />
    <glyph glyph-name="icircumflex" unicode="&#xee;" horiz-adv-x="230" 
d="M104 669h16c3 0 7 -2 10 -5l104 -109c4 -3 3 -7 -1 -7h-25c-4 0 -7 2 -10 5l-81 73c-3 1 -4 2 -5 2s-3 -1 -4 -2l-81 -73c-3 -3 -7 -5 -11 -5h-24c-5 0 -5 4 -2 7l104 109c3 3 7 5 10 5zM142 454v-445c0 -6 -3 -9 -8 -9h-37c-6 0 -9 3 -9 8v445c0 11 2 12 13 12h32
c6 0 9 -4 9 -11z" />
    <glyph glyph-name="idieresis" unicode="&#xef;" horiz-adv-x="230" 
d="M46 629c23 0 39 -16 39 -37c0 -20 -18 -37 -39 -37s-38 17 -38 37c0 21 17 37 38 37zM229 592c0 -20 -18 -37 -39 -37s-38 17 -38 37c0 48 77 48 77 0zM142 454v-445c0 -6 -3 -9 -8 -9h-37c-6 0 -9 3 -9 8v445c0 11 2 12 13 12h32c6 0 9 -4 9 -11z" />
    <glyph glyph-name="eth" unicode="&#xf0;" horiz-adv-x="562" 
d="M417 419l-101 171l-64 -35c-9 -3 -16 -1 -21 6l-6 9c-9 11 -9 13 4 18l66 36l-35 61c-7 10 -4 15 9 15h19c15 0 25 -5 31 -16l20 -36l52 29c11 5 19 5 24 0l9 -12c9 -7 6 -13 -8 -20l-57 -31l99 -171c47 -73 71 -144 71 -213c0 -159 -90 -240 -229 -240
c-140 0 -230 82 -230 242c0 78 20 138 59 181s89 64 149 64c59 0 105 -19 139 -58zM470 231c0 55 -16 103 -49 142s-75 59 -126 59c-95 0 -166 -69 -166 -200c0 -133 71 -198 171 -198c103 0 170 64 170 197z" />
    <glyph glyph-name="ntilde" unicode="&#xf1;" horiz-adv-x="575" 
d="M142 458v-45c43 41 97 62 164 62c121 0 181 -64 181 -192v-275c0 -5 -3 -8 -8 -8h-39c-5 0 -7 3 -7 8v269c0 99 -45 149 -136 149c-58 0 -110 -23 -155 -69v-350c0 -5 -2 -7 -7 -7h-40c-5 0 -7 3 -7 8v449c0 5 2 8 7 8h39c5 0 8 -2 8 -7zM338 550c-12 0 -29 6 -50 18
c-21 13 -37 19 -48 19s-25 -10 -41 -30c-3 -3 -5 -4 -8 -3l-15 13c-3 3 -3 5 -2 8c20 34 44 51 73 51c12 0 29 -6 50 -18s37 -18 48 -18c18 0 32 9 41 28c2 4 5 5 8 4l15 -12c4 -2 5 -5 3 -8c-20 -35 -45 -52 -74 -52z" />
    <glyph glyph-name="ograve" unicode="&#xf2;" 
d="M56 232c0 67 24 125 71 172c48 47 106 71 173 71s125 -24 172 -71c48 -47 72 -105 72 -172s-24 -124 -72 -171c-47 -47 -105 -71 -172 -71s-125 24 -173 71c-47 47 -71 104 -71 171zM492 232c0 53 -19 99 -56 136s-83 56 -136 56s-98 -19 -135 -56s-56 -83 -56 -136
s18 -99 55 -136s83 -55 136 -55s99 19 136 56s56 82 56 135zM271 557l-106 120c-5 4 -4 9 3 9h42c7 0 12 -3 16 -9l95 -118c5 -5 3 -11 -2 -11h-29c-7 0 -13 3 -19 9z" />
    <glyph glyph-name="oacute" unicode="&#xf3;" 
d="M56 232c0 67 24 125 71 172c48 47 106 71 173 71s125 -24 172 -71c48 -47 72 -105 72 -172s-24 -124 -72 -171c-47 -47 -105 -71 -172 -71s-125 24 -173 71c-47 47 -71 104 -71 171zM492 232c0 53 -19 99 -56 136s-83 56 -136 56s-98 -19 -135 -56s-56 -83 -56 -136
s18 -99 55 -136s83 -55 136 -55s99 19 136 56s56 82 56 135zM320 549h-33c-5 0 -6 2 -3 7l83 106c4 5 8 7 13 7h42c9 0 10 -3 4 -9l-94 -106c-3 -3 -7 -5 -12 -5z" />
    <glyph glyph-name="ocircumflex" unicode="&#xf4;" 
d="M56 232c0 67 24 125 71 172c48 47 106 71 173 71s125 -24 172 -71c48 -47 72 -105 72 -172s-24 -124 -72 -171c-47 -47 -105 -71 -172 -71s-125 24 -173 71c-47 47 -71 104 -71 171zM492 232c0 53 -19 99 -56 136s-83 56 -136 56s-98 -19 -135 -56s-56 -83 -56 -136
s18 -99 55 -136s83 -55 136 -55s99 19 136 56s56 82 56 135zM291 669h16c3 0 7 -2 10 -5l104 -109c4 -3 3 -7 -1 -7h-25c-4 0 -7 2 -10 5l-81 73c-3 1 -4 2 -5 2s-3 -1 -4 -2l-81 -73c-3 -3 -7 -5 -11 -5h-24c-5 0 -5 4 -2 7l104 109c3 3 7 5 10 5z" />
    <glyph glyph-name="otilde" unicode="&#xf5;" 
d="M56 232c0 67 24 125 71 172c48 47 106 71 173 71s125 -24 172 -71c48 -47 72 -105 72 -172s-24 -124 -72 -171c-47 -47 -105 -71 -172 -71s-125 24 -173 71c-47 47 -71 104 -71 171zM492 232c0 53 -19 99 -56 136s-83 56 -136 56s-98 -19 -135 -56s-56 -83 -56 -136
s18 -99 55 -136s83 -55 136 -55s99 19 136 56s56 82 56 135zM350 550c-12 0 -29 6 -50 18c-21 13 -37 19 -48 19s-25 -10 -41 -30c-3 -3 -5 -4 -8 -3l-15 13c-3 3 -3 5 -2 8c20 34 44 51 73 51c12 0 29 -6 50 -18s37 -18 48 -18c18 0 32 9 41 28c2 4 5 5 8 4l15 -12
c4 -2 5 -5 3 -8c-20 -35 -45 -52 -74 -52z" />
    <glyph glyph-name="odieresis" unicode="&#xf6;" 
d="M56 232c0 67 24 125 71 172c48 47 106 71 173 71s125 -24 172 -71c48 -47 72 -105 72 -172s-24 -124 -72 -171c-47 -47 -105 -71 -172 -71s-125 24 -173 71c-47 47 -71 104 -71 171zM492 232c0 53 -19 99 -56 136s-83 56 -136 56s-98 -19 -135 -56s-56 -83 -56 -136
s18 -99 55 -136s83 -55 136 -55s99 19 136 56s56 82 56 135zM232 629c23 0 39 -16 39 -37c0 -20 -18 -37 -39 -37s-38 17 -38 37c0 21 17 37 38 37zM415 592c0 -20 -18 -37 -39 -37s-38 17 -38 37c0 48 77 48 77 0z" />
    <glyph glyph-name="divide" unicode="&#xf7;" horiz-adv-x="418" 
d="M185 472c31 31 84 -17 50 -48c-13 -13 -37 -13 -50 0c-12 13 -12 35 0 48zM210 60c21 0 36 -15 36 -35c0 -19 -15 -33 -36 -33c-20 0 -34 14 -34 33c0 20 14 35 34 35zM414 265v-43h-412v43h412z" />
    <glyph glyph-name="oslash" unicode="&#xf8;" 
d="M444 517l-30 -71c79 -41 130 -123 130 -214c0 -67 -24 -124 -72 -171c-47 -47 -105 -71 -172 -71c-23 0 -46 3 -71 10l-23 -55c-3 -5 -7 -8 -11 -8h-32c-6 0 -8 3 -6 9l30 71c-80 41 -131 123 -131 215c0 67 24 125 71 172c48 47 106 71 173 71c24 0 48 -4 72 -11l24 57
c3 7 6 11 11 11h33c8 0 9 0 4 -15zM109 232c0 -71 38 -135 97 -167l146 351c-17 5 -35 8 -52 8c-53 0 -98 -19 -135 -56s-56 -83 -56 -136zM492 232c0 69 -39 134 -98 167l-146 -351c16 -5 33 -7 52 -7c53 0 99 19 136 56s56 82 56 135z" />
    <glyph glyph-name="ugrave" unicode="&#xf9;" horiz-adv-x="552" 
d="M246 557l-106 120c-5 4 -4 9 3 9h42c7 0 12 -3 16 -9l95 -118c5 -5 3 -11 -2 -11h-29c-7 0 -13 3 -19 9zM79 205v249c0 7 3 11 10 11h35c8 0 9 -2 9 -11v-248c0 -113 48 -169 143 -169s143 56 143 169v248c0 9 1 11 9 11h38c5 0 7 -3 7 -8v-252
c0 -143 -66 -215 -197 -215s-197 72 -197 215z" />
    <glyph glyph-name="uacute" unicode="&#xfa;" horiz-adv-x="552" 
d="M79 205v249c0 7 3 11 10 11h35c8 0 9 -2 9 -11v-248c0 -113 48 -169 143 -169s143 56 143 169v248c0 9 1 11 9 11h38c5 0 7 -3 7 -8v-252c0 -143 -66 -215 -197 -215s-197 72 -197 215zM294 549h-33c-5 0 -6 2 -3 7l83 106c4 5 8 7 13 7h42c9 0 10 -3 4 -9l-94 -106
c-3 -3 -7 -5 -12 -5z" />
    <glyph glyph-name="ucircumflex" unicode="&#xfb;" horiz-adv-x="552" 
d="M265 669h16c3 0 7 -2 10 -5l104 -109c4 -3 3 -7 -1 -7h-25c-4 0 -7 2 -10 5l-81 73c-3 1 -4 2 -5 2s-3 -1 -4 -2l-81 -73c-3 -3 -7 -5 -11 -5h-24c-5 0 -5 4 -2 7l104 109c3 3 7 5 10 5zM79 205v249c0 7 3 11 10 11h35c8 0 9 -2 9 -11v-248c0 -113 48 -169 143 -169
s143 56 143 169v248c0 9 1 11 9 11h38c5 0 7 -3 7 -8v-252c0 -143 -66 -215 -197 -215s-197 72 -197 215z" />
    <glyph glyph-name="udieresis" unicode="&#xfc;" horiz-adv-x="552" 
d="M206 629c23 0 39 -16 39 -37c0 -20 -18 -37 -39 -37s-38 17 -38 37c0 21 17 37 38 37zM389 592c0 -20 -18 -37 -39 -37s-38 17 -38 37c0 48 77 48 77 0zM79 205v249c0 7 3 11 10 11h35c8 0 9 -2 9 -11v-248c0 -113 48 -169 143 -169s143 56 143 169v248c0 9 1 11 9 11h38
c5 0 7 -3 7 -8v-252c0 -143 -66 -215 -197 -215s-197 72 -197 215z" />
    <glyph glyph-name="yacute" unicode="&#xfd;" horiz-adv-x="482" 
d="M466 454l-292 -647c-1 -3 -5 -5 -10 -5h-41c-5 0 -6 2 -5 7l104 231l-188 417c-3 5 -1 8 4 8h42c5 0 8 -2 11 -7l157 -360l160 356c4 7 8 11 12 11h42c5 0 7 -6 4 -11zM268 549h-33c-5 0 -6 2 -3 7l83 106c4 5 8 7 13 7h42c9 0 10 -3 4 -9l-94 -106c-3 -3 -7 -5 -12 -5z
" />
    <glyph glyph-name="thorn" unicode="&#xfe;" horiz-adv-x="595" 
d="M151 719v-308c44 43 99 64 165 64c62 0 115 -22 158 -67c44 -45 66 -104 66 -178s-23 -133 -68 -176s-97 -64 -156 -64c-66 0 -121 20 -165 60v-210c0 -5 -3 -7 -8 -7h-40c-4 0 -6 2 -6 7v880c0 5 2 8 7 8h40c5 0 7 -3 7 -9zM310 427c-65 0 -118 -24 -159 -72v-248
c40 -46 93 -69 159 -69c46 0 87 18 122 53c36 36 54 82 54 139s-17 104 -51 141s-76 56 -125 56z" />
    <glyph glyph-name="ydieresis" unicode="&#xff;" horiz-adv-x="482" 
d="M466 454l-292 -647c-1 -3 -5 -5 -10 -5h-41c-5 0 -6 2 -5 7l104 231l-188 417c-3 5 -1 8 4 8h42c5 0 8 -2 11 -7l157 -360l160 356c4 7 8 11 12 11h42c5 0 7 -6 4 -11zM180 629c23 0 39 -16 39 -37c0 -20 -18 -37 -39 -37s-38 17 -38 37c0 21 17 37 38 37zM363 592
c0 -20 -18 -37 -39 -37s-38 17 -38 37c0 48 77 48 77 0z" />
    <glyph glyph-name="Amacron" unicode="&#x100;" horiz-adv-x="652" 
d="M33 12l292 685c4 9 8 10 13 1l292 -687c3 -7 1 -11 -6 -11h-38c-7 0 -12 2 -13 7l-79 189h-325l-78 -188c-2 -5 -6 -8 -13 -8h-43c-5 0 -5 4 -2 12zM328 576l-137 -327h281l-135 326c-3 7 -6 8 -9 1zM220 744v33c0 4 2 6 6 6h214c4 0 6 -2 6 -6v-34c0 -4 -2 -6 -5 -6
h-215c-4 0 -6 2 -6 7z" />
    <glyph glyph-name="amacron" unicode="&#x101;" horiz-adv-x="556" 
d="M424 7l-5 28c-51 -30 -109 -45 -174 -45c-104 0 -166 54 -166 137c0 88 74 141 179 141c56 0 108 -11 157 -34v73c0 80 -46 120 -138 120c-59 0 -107 -8 -144 -25c-5 -4 -10 -1 -10 4v36c0 5 2 9 7 11c51 15 103 22 154 22c109 0 184 -53 184 -170v-298c0 -5 -2 -7 -6 -7
h-30c-5 0 -7 2 -8 7zM131 129c0 -55 48 -94 117 -94c66 0 122 15 167 44v108c-44 24 -97 36 -160 36c-69 0 -124 -38 -124 -94zM175 563v33c0 4 2 6 6 6h214c4 0 6 -2 6 -6v-34c0 -4 -2 -6 -5 -6h-215c-4 0 -6 2 -6 7z" />
    <glyph glyph-name="Abreve" unicode="&#x102;" horiz-adv-x="652" 
d="M33 12l292 685c4 9 8 10 13 1l292 -687c3 -7 1 -11 -6 -11h-38c-7 0 -12 2 -13 7l-79 189h-325l-78 -188c-2 -5 -6 -8 -13 -8h-43c-5 0 -5 4 -2 12zM328 576l-137 -327h281l-135 326c-3 7 -6 8 -9 1zM397 824h28c3 0 4 -3 4 -9c-7 -52 -39 -78 -95 -78
c-55 0 -91 28 -96 76c-1 7 0 11 5 11h27c3 0 6 -3 7 -9c5 -28 24 -42 57 -42c32 0 51 14 56 43c2 5 4 8 7 8z" />
    <glyph glyph-name="abreve" unicode="&#x103;" horiz-adv-x="556" 
d="M424 7l-5 28c-51 -30 -109 -45 -174 -45c-104 0 -166 54 -166 137c0 88 74 141 179 141c56 0 108 -11 157 -34v73c0 80 -46 120 -138 120c-59 0 -107 -8 -144 -25c-5 -4 -10 -1 -10 4v36c0 5 2 9 7 11c51 15 103 22 154 22c109 0 184 -53 184 -170v-298c0 -5 -2 -7 -6 -7
h-30c-5 0 -7 2 -8 7zM131 129c0 -55 48 -94 117 -94c66 0 122 15 167 44v108c-44 24 -97 36 -160 36c-69 0 -124 -38 -124 -94zM353 643h28c3 0 4 -3 4 -9c-7 -52 -39 -78 -95 -78c-55 0 -91 28 -96 76c-1 7 0 11 5 11h27c4 0 6 -3 7 -9c5 -28 24 -42 57 -42
c32 0 51 14 56 43c2 5 4 8 7 8z" />
    <glyph glyph-name="Aogonek" unicode="&#x104;" horiz-adv-x="652" 
d="M659 -107v-11c-1 -5 -3 -9 -7 -12c-23 -11 -48 -17 -75 -17c-49 0 -76 25 -76 62s25 65 75 86l-3 6l-79 189h-325l-78 -188c-2 -5 -6 -8 -13 -8h-43c-5 0 -5 4 -2 12l292 685c4 9 8 10 13 1l292 -687c3 -7 1 -11 -6 -11h-12c-43 -27 -64 -53 -64 -79s15 -39 46 -39
c14 0 32 4 55 13c7 3 10 3 10 -2zM328 576l-137 -327h281l-135 326c-3 7 -6 8 -9 1z" />
    <glyph glyph-name="aogonek" unicode="&#x105;" horiz-adv-x="556" 
d="M504 -109v-11c-1 -5 -3 -9 -7 -12c-23 -11 -48 -17 -75 -17c-49 0 -76 25 -76 62c0 38 27 67 80 88c-1 1 -2 3 -2 6l-5 28c-51 -30 -109 -45 -174 -45c-104 0 -166 54 -166 137c0 88 74 141 179 141c56 0 108 -11 157 -34v73c0 80 -46 120 -138 120
c-59 0 -107 -8 -144 -25c-5 -4 -10 -1 -10 4v36c0 5 2 9 7 11c51 15 103 22 154 22c109 0 184 -53 184 -170v-298c0 -5 -2 -7 -6 -7h-2c-45 -27 -67 -54 -67 -81c0 -26 15 -39 46 -39c14 0 32 4 55 13c7 3 10 3 10 -2zM131 129c0 -55 48 -94 117 -94c66 0 122 15 167 44v108
c-44 24 -97 36 -160 36c-69 0 -124 -38 -124 -94z" />
    <glyph glyph-name="Cacute" unicode="&#x106;" horiz-adv-x="652" 
d="M118 350c0 -85 30 -157 89 -217c60 -60 132 -90 217 -90c57 0 113 12 166 37c8 4 12 2 12 -3v-37c0 -5 -3 -9 -9 -12c-59 -25 -115 -38 -169 -38c-100 0 -185 35 -256 105c-70 70 -105 155 -105 255c0 99 35 184 105 255c71 71 156 106 256 106c65 0 119 -13 163 -38
c10 -6 15 -12 15 -17v-32c0 -10 -3 -9 -16 -3c-29 14 -54 24 -77 29c-22 6 -50 9 -85 9c-85 0 -157 -30 -217 -91c-59 -60 -89 -133 -89 -218zM440 744h-33c-5 0 -6 2 -3 7l83 106c4 5 8 7 13 7h42c9 0 10 -3 4 -9l-94 -106c-3 -3 -7 -5 -12 -5z" />
    <glyph glyph-name="cacute" unicode="&#x107;" horiz-adv-x="488" 
d="M111 231c0 -54 19 -100 57 -138c38 -37 85 -56 141 -56c45 0 85 11 121 32c5 2 7 1 7 -4v-35c0 -5 -2 -9 -5 -10c-38 -21 -81 -31 -129 -31c-69 0 -127 23 -175 70s-72 105 -72 172s24 125 72 172s106 71 175 71c39 0 81 -10 125 -30c6 -3 9 -6 9 -11v-35
c0 -6 -3 -7 -9 -4c-40 21 -80 32 -119 32c-56 0 -103 -19 -141 -57c-38 -37 -57 -83 -57 -138zM321 549h-33c-4 0 -5 2 -3 7l83 106c4 5 8 7 13 7h42c9 0 10 -3 4 -9l-94 -106c-3 -3 -7 -5 -12 -5z" />
    <glyph glyph-name="Ccircumflex" unicode="&#x108;" horiz-adv-x="652" 
d="M118 350c0 -85 30 -157 89 -217c60 -60 132 -90 217 -90c57 0 113 12 166 37c8 4 12 2 12 -3v-37c0 -5 -3 -9 -9 -12c-59 -25 -115 -38 -169 -38c-100 0 -185 35 -256 105c-70 70 -105 155 -105 255c0 99 35 184 105 255c71 71 156 106 256 106c65 0 119 -13 163 -38
c10 -6 15 -12 15 -17v-32c0 -10 -3 -9 -16 -3c-29 14 -54 24 -77 29c-22 6 -50 9 -85 9c-85 0 -157 -30 -217 -91c-59 -60 -89 -133 -89 -218zM407 864h16c3 0 7 -2 10 -5l104 -109c4 -3 3 -7 -1 -7h-25c-4 0 -7 2 -10 5l-81 73c-3 1 -4 2 -5 2s-3 -1 -4 -2l-81 -73
c-3 -3 -7 -5 -11 -5h-24c-5 0 -5 4 -2 7l104 109c3 3 7 5 10 5z" />
    <glyph glyph-name="ccircumflex" unicode="&#x109;" horiz-adv-x="488" 
d="M111 231c0 -54 19 -100 57 -138c38 -37 85 -56 141 -56c45 0 85 11 121 32c5 2 7 1 7 -4v-35c0 -5 -2 -9 -5 -10c-38 -21 -81 -31 -129 -31c-69 0 -127 23 -175 70s-72 105 -72 172s24 125 72 172s106 71 175 71c39 0 81 -10 125 -30c6 -3 9 -6 9 -11v-35
c0 -6 -3 -7 -9 -4c-40 21 -80 32 -119 32c-56 0 -103 -19 -141 -57c-38 -37 -57 -83 -57 -138zM292 669h16c3 0 7 -2 10 -5l104 -109c4 -3 3 -7 -1 -7h-25c-4 0 -7 2 -10 5l-81 73c-3 1 -4 2 -5 2s-3 -1 -4 -2l-81 -73c-3 -3 -7 -5 -11 -5h-24c-5 0 -5 4 -2 7l104 109
c3 3 7 5 10 5z" />
    <glyph glyph-name="Cdotaccent" unicode="&#x10a;" horiz-adv-x="652" 
d="M118 350c0 -85 30 -157 89 -217c60 -60 132 -90 217 -90c57 0 113 12 166 37c8 4 12 2 12 -3v-37c0 -5 -3 -9 -9 -12c-59 -25 -115 -38 -169 -38c-100 0 -185 35 -256 105c-70 70 -105 155 -105 255c0 99 35 184 105 255c71 71 156 106 256 106c65 0 119 -13 163 -38
c10 -6 15 -12 15 -17v-32c0 -10 -3 -9 -16 -3c-29 14 -54 24 -77 29c-22 6 -50 9 -85 9c-85 0 -157 -30 -217 -91c-59 -60 -89 -133 -89 -218zM426 826c23 0 41 -18 41 -39s-18 -38 -41 -38c-20 0 -38 17 -38 38s18 39 38 39z" />
    <glyph glyph-name="cdotaccent" unicode="&#x10b;" horiz-adv-x="488" 
d="M111 231c0 -54 19 -100 57 -138c38 -37 85 -56 141 -56c45 0 85 11 121 32c5 2 7 1 7 -4v-35c0 -5 -2 -9 -5 -10c-38 -21 -81 -31 -129 -31c-69 0 -127 23 -175 70s-72 105 -72 172s24 125 72 172s106 71 175 71c39 0 81 -10 125 -30c6 -3 9 -6 9 -11v-35
c0 -6 -3 -7 -9 -4c-40 21 -80 32 -119 32c-56 0 -103 -19 -141 -57c-38 -37 -57 -83 -57 -138zM303 631c23 0 41 -18 41 -39s-18 -38 -41 -38c-20 0 -38 17 -38 38s18 39 38 39z" />
    <glyph glyph-name="Ccaron" unicode="&#x10c;" horiz-adv-x="652" 
d="M118 350c0 -85 30 -157 89 -217c60 -60 132 -90 217 -90c57 0 113 12 166 37c8 4 12 2 12 -3v-37c0 -5 -3 -9 -9 -12c-59 -25 -115 -38 -169 -38c-100 0 -185 35 -256 105c-70 70 -105 155 -105 255c0 99 35 184 105 255c71 71 156 106 256 106c65 0 119 -13 163 -38
c10 -6 15 -12 15 -17v-32c0 -10 -3 -9 -16 -3c-29 14 -54 24 -77 29c-22 6 -50 9 -85 9c-85 0 -157 -30 -217 -91c-59 -60 -89 -133 -89 -218zM423 783c1 0 2 1 5 2l82 73c5 3 9 5 11 5h23c4 0 5 -4 1 -7l-104 -109c-3 -3 -7 -5 -10 -5h-16c-3 0 -7 2 -10 5l-104 109
c-3 3 -3 7 2 7h22c3 0 6 -2 11 -5l83 -73c1 -1 3 -2 4 -2z" />
    <glyph glyph-name="ccaron" unicode="&#x10d;" horiz-adv-x="488" 
d="M111 231c0 -54 19 -100 57 -138c38 -37 85 -56 141 -56c45 0 85 11 121 32c5 2 7 1 7 -4v-35c0 -5 -2 -9 -5 -10c-38 -21 -81 -31 -129 -31c-69 0 -127 23 -175 70s-72 105 -72 172s24 125 72 172s106 71 175 71c39 0 81 -10 125 -30c6 -3 9 -6 9 -11v-35
c0 -6 -3 -7 -9 -4c-40 21 -80 32 -119 32c-56 0 -103 -19 -141 -57c-38 -37 -57 -83 -57 -138zM304 588c1 0 2 1 5 2l82 73c5 3 9 5 11 5h23c4 0 5 -4 1 -7l-104 -109c-3 -3 -7 -5 -10 -5h-16c-3 0 -7 2 -10 5l-104 109c-3 3 -3 7 2 7h22c3 0 6 -2 11 -5l83 -73
c1 -1 3 -2 4 -2z" />
    <glyph glyph-name="Dcaron" unicode="&#x10e;" horiz-adv-x="731" 
d="M241 0h-129c-6 0 -9 4 -9 11v678c0 7 3 11 9 11h128c118 0 209 -34 274 -101s98 -150 98 -249s-33 -183 -98 -250s-156 -100 -273 -100zM159 644v-586c0 -5 2 -8 6 -8h75c100 0 177 29 232 86s82 128 82 211c0 87 -27 159 -82 216c-54 57 -132 86 -235 86h-73
c-3 0 -5 -2 -5 -5zM317 769c1 0 2 1 5 2l82 73c5 3 9 5 11 5h23c4 0 5 -4 1 -7l-104 -109c-3 -3 -7 -5 -10 -5h-16c-3 0 -7 2 -10 5l-104 109c-3 3 -3 7 2 7h22c3 0 6 -2 11 -5l83 -73c1 -1 3 -2 4 -2z" />
    <glyph glyph-name="dcaron" unicode="&#x10f;" horiz-adv-x="634" 
d="M287 475c63 0 116 -21 157 -62v320c0 5 2 7 7 7h40c5 0 7 -2 7 -6v-728c0 -4 -2 -6 -5 -6h-32c-2 0 -4 2 -5 6l-8 50c-44 -44 -98 -66 -161 -66s-118 22 -163 67s-68 104 -68 178s23 132 69 175c47 43 101 65 162 65zM293 38c63 0 113 24 151 71v249
c-38 46 -88 69 -151 69c-48 0 -91 -18 -128 -54c-37 -35 -55 -81 -55 -138s18 -104 53 -141s79 -56 130 -56zM582 556h-31c-4 0 -5 3 -4 9l52 146c3 6 6 9 10 9h41c6 0 8 -3 6 -8l-66 -147c-4 -6 -7 -9 -8 -9z" />
    <glyph glyph-name="Dcroat" unicode="&#x110;" horiz-adv-x="673" 
d="M240 0h-129c-6 0 -9 4 -9 11v313h-65c-4 0 -6 2 -6 7v31c0 4 2 6 6 6h65v321c0 7 3 11 9 11h128c118 0 209 -34 274 -101s98 -150 98 -249s-33 -183 -98 -250s-156 -100 -273 -100zM158 644v-276h146c4 0 6 -2 6 -6v-32c0 -4 -2 -6 -5 -6h-147v-266c0 -5 2 -8 6 -8h75
c100 0 177 29 232 86s82 128 82 211c0 87 -27 159 -82 216c-54 57 -132 86 -235 86h-73c-3 0 -5 -2 -5 -5z" />
    <glyph glyph-name="dslash" unicode="&#x111;" horiz-adv-x="586" 
d="M561 573h-63v-567c0 -4 -2 -6 -5 -6h-32c-2 0 -4 2 -5 6l-8 50c-44 -44 -98 -66 -161 -66s-118 22 -163 67s-68 104 -68 178s23 132 69 175c47 43 101 65 162 65c63 0 116 -21 157 -62v160h-118c-6 0 -9 3 -9 8v31c0 5 3 7 9 7h118v114c0 5 2 7 7 7h40c5 0 7 -2 7 -6
v-115h60c7 0 11 -2 11 -7v-33c0 -4 -3 -6 -8 -6zM293 38c63 0 113 24 151 71v249c-38 46 -88 69 -151 69c-48 0 -91 -18 -128 -54c-37 -35 -55 -81 -55 -138s18 -104 53 -141s79 -56 130 -56z" />
    <glyph glyph-name="Emacron" unicode="&#x112;" horiz-adv-x="515" 
d="M102 8v686c0 4 2 6 6 6h337c7 0 10 -2 10 -7v-37c0 -5 0 -7 -8 -7h-287c-1 0 -2 -1 -2 -3v-254c0 -3 1 -4 3 -4h287c5 0 7 -3 7 -8v-31c0 -8 -3 -12 -8 -12h-285c-3 0 -4 -1 -4 -4v-278c0 -2 1 -3 3 -3h288c4 0 6 -4 6 -11v-32c0 -6 -3 -9 -10 -9h-335c-5 0 -8 3 -8 8z
M173 744v33c0 4 2 6 6 6h214c4 0 6 -2 6 -6v-34c0 -4 -2 -6 -5 -6h-215c-4 0 -6 2 -6 7z" />
    <glyph glyph-name="emacron" unicode="&#x113;" horiz-adv-x="553" 
d="M502 245v-8c0 -5 -3 -8 -9 -8h-384v-2c0 -111 58 -190 187 -190c45 0 90 11 135 33c7 3 10 1 10 -4v-31c0 -5 -2 -8 -6 -11c-44 -23 -92 -34 -145 -34c-80 0 -139 22 -177 66c-38 45 -57 101 -57 170c0 74 22 134 65 180s96 69 158 69c63 0 116 -21 159 -63
s64 -98 64 -167zM279 431c-85 0 -151 -64 -167 -159h337c-11 95 -75 159 -170 159zM165 563v33c0 4 2 6 6 6h214c4 0 6 -2 6 -6v-34c0 -4 -2 -6 -5 -6h-215c-4 0 -6 2 -6 7z" />
    <glyph glyph-name="Ebreve" unicode="&#x114;" horiz-adv-x="515" 
d="M102 8v686c0 4 2 6 6 6h337c7 0 10 -2 10 -7v-37c0 -5 0 -7 -8 -7h-287c-1 0 -2 -1 -2 -3v-254c0 -3 1 -4 3 -4h287c5 0 7 -3 7 -8v-31c0 -8 -3 -12 -8 -12h-285c-3 0 -4 -1 -4 -4v-278c0 -2 1 -3 3 -3h288c4 0 6 -4 6 -11v-32c0 -6 -3 -9 -10 -9h-335c-5 0 -8 3 -8 8z
M348 824h28c3 0 4 -3 4 -9c-7 -52 -39 -78 -95 -78c-55 0 -91 28 -96 76c-1 7 0 11 5 11h27c3 0 6 -3 7 -9c5 -28 24 -42 57 -42c32 0 51 14 56 43c2 5 4 8 7 8z" />
    <glyph glyph-name="ebreve" unicode="&#x115;" horiz-adv-x="553" 
d="M502 245v-8c0 -5 -3 -8 -9 -8h-384v-2c0 -111 58 -190 187 -190c45 0 90 11 135 33c7 3 10 1 10 -4v-31c0 -5 -2 -8 -6 -11c-44 -23 -92 -34 -145 -34c-80 0 -139 22 -177 66c-38 45 -57 101 -57 170c0 74 22 134 65 180s96 69 158 69c63 0 116 -21 159 -63
s64 -98 64 -167zM279 431c-85 0 -151 -64 -167 -159h337c-11 95 -75 159 -170 159zM340 643h28c3 0 4 -3 4 -9c-7 -52 -39 -78 -95 -78c-55 0 -91 28 -96 76c-1 7 0 11 5 11h27c3 0 6 -3 7 -9c5 -28 24 -42 57 -42c32 0 51 14 56 43c2 5 4 8 7 8z" />
    <glyph glyph-name="Edotaccent" unicode="&#x116;" horiz-adv-x="515" 
d="M102 8v686c0 4 2 6 6 6h337c7 0 10 -2 10 -7v-37c0 -5 0 -7 -8 -7h-287c-1 0 -2 -1 -2 -3v-254c0 -3 1 -4 3 -4h287c5 0 7 -3 7 -8v-31c0 -8 -3 -12 -8 -12h-285c-3 0 -4 -1 -4 -4v-278c0 -2 1 -3 3 -3h288c4 0 6 -4 6 -11v-32c0 -6 -3 -9 -10 -9h-335c-5 0 -8 3 -8 8z
M285 812c23 0 41 -18 41 -39s-18 -38 -41 -38c-20 0 -38 17 -38 38s18 39 38 39z" />
    <glyph glyph-name="edotaccent" unicode="&#x117;" horiz-adv-x="553" 
d="M502 245v-8c0 -5 -3 -8 -9 -8h-384v-2c0 -111 58 -190 187 -190c45 0 90 11 135 33c7 3 10 1 10 -4v-31c0 -5 -2 -8 -6 -11c-44 -23 -92 -34 -145 -34c-80 0 -139 22 -177 66c-38 45 -57 101 -57 170c0 74 22 134 65 180s96 69 158 69c63 0 116 -21 159 -63
s64 -98 64 -167zM279 431c-85 0 -151 -64 -167 -159h337c-11 95 -75 159 -170 159zM277 631c23 0 41 -18 41 -39s-18 -38 -41 -38c-20 0 -38 17 -38 38s18 39 38 39z" />
    <glyph glyph-name="Eogonek" unicode="&#x118;" horiz-adv-x="515" 
d="M490 -111v-11c-1 -5 -3 -9 -7 -12c-23 -11 -48 -17 -75 -17c-49 0 -76 25 -76 62s27 67 81 89h-303c-5 0 -8 3 -8 8v686c0 4 2 6 6 6h337c7 0 10 -2 10 -7v-37c0 -5 0 -7 -8 -7h-287c-1 0 -2 -1 -2 -3v-254c0 -3 1 -4 3 -4h287c5 0 7 -3 7 -8v-31c0 -8 -3 -12 -8 -12
h-285c-3 0 -4 -1 -4 -4v-278c0 -2 1 -3 3 -3h288c4 0 6 -4 6 -11v-32c0 -3 -1 -6 -3 -7h1c-53 -32 -74 -54 -74 -85c0 -26 15 -39 46 -39c14 0 32 4 55 13c7 3 10 3 10 -2z" />
    <glyph glyph-name="eogonek" unicode="&#x119;" horiz-adv-x="553" 
d="M379 -114v-11c-1 -5 -3 -9 -7 -12c-23 -11 -48 -17 -75 -17c-49 0 -76 25 -76 62c0 34 22 61 65 82c-164 4 -234 111 -230 236c0 74 22 134 65 180s96 69 158 69c63 0 116 -21 159 -63s64 -98 64 -167v-8c0 -5 -3 -8 -9 -8h-384v-2c0 -111 58 -190 187 -190
c45 0 90 11 135 33c7 3 10 1 10 -4v-31c0 -5 -2 -8 -6 -11c-32 -16 -67 -26 -104 -31c-42 -27 -63 -53 -63 -79s15 -39 46 -39c14 0 32 4 55 13c7 3 10 3 10 -2zM279 431c-85 0 -151 -64 -167 -159h337c-11 95 -75 159 -170 159z" />
    <glyph glyph-name="Ecaron" unicode="&#x11a;" horiz-adv-x="515" 
d="M102 8v686c0 4 2 6 6 6h337c7 0 10 -2 10 -7v-37c0 -5 0 -7 -8 -7h-287c-1 0 -2 -1 -2 -3v-254c0 -3 1 -4 3 -4h287c5 0 7 -3 7 -8v-31c0 -8 -3 -12 -8 -12h-285c-3 0 -4 -1 -4 -4v-278c0 -2 1 -3 3 -3h288c4 0 6 -4 6 -11v-32c0 -6 -3 -9 -10 -9h-335c-5 0 -8 3 -8 8z
M286 769c1 0 2 1 5 2l82 73c5 3 9 5 11 5h23c4 0 5 -4 1 -7l-104 -109c-3 -3 -7 -5 -10 -5h-16c-3 0 -7 2 -10 5l-104 109c-3 3 -3 7 2 7h22c3 0 6 -2 11 -5l83 -73c1 -1 3 -2 4 -2z" />
    <glyph glyph-name="ecaron" unicode="&#x11b;" horiz-adv-x="553" 
d="M502 245v-8c0 -5 -3 -8 -9 -8h-384v-2c0 -111 58 -190 187 -190c45 0 90 11 135 33c7 3 10 1 10 -4v-31c0 -5 -2 -8 -6 -11c-44 -23 -92 -34 -145 -34c-80 0 -139 22 -177 66c-38 45 -57 101 -57 170c0 74 22 134 65 180s96 69 158 69c63 0 116 -21 159 -63
s64 -98 64 -167zM279 431c-85 0 -151 -64 -167 -159h337c-11 95 -75 159 -170 159zM278 588c1 0 2 1 5 2l82 73c5 3 9 5 11 5h23c4 0 5 -4 1 -7l-104 -109c-3 -3 -7 -5 -10 -5h-16c-3 0 -7 2 -10 5l-104 109c-3 3 -3 7 2 7h22c3 0 6 -2 11 -5l83 -73c1 -1 3 -2 4 -2z" />
    <glyph glyph-name="Gcircumflex" unicode="&#x11c;" horiz-adv-x="770" 
d="M120 350c0 -85 30 -157 89 -217s131 -90 216 -90c44 0 83 4 117 13c19 5 32 10 41 13c10 4 20 9 31 15v-3l2 1l5 3v263c0 7 -3 11 -8 11h-204c-6 0 -9 3 -9 8v35c0 5 4 8 12 8h250c13 0 16 -2 16 -11v-333c0 -13 -1 -16 -14 -21c-58 -31 -127 -49 -208 -54
c-4 0 -15 -1 -20 -1h-13c-100 0 -185 34 -255 103s-105 155 -105 257c0 103 35 188 104 257c70 69 155 104 256 104c83 0 160 -19 230 -58c7 -3 10 -7 10 -12v-38c0 -7 -5 -8 -15 -2c-63 39 -138 58 -225 58c-86 0 -158 -30 -216 -90s-87 -133 -87 -219zM410 861h16
c3 0 7 -2 10 -5l104 -109c4 -3 3 -7 -1 -7h-25c-4 0 -7 2 -10 5l-81 73c-3 1 -4 2 -5 2s-3 -1 -4 -2l-81 -73c-3 -3 -7 -5 -11 -5h-24c-5 0 -5 4 -2 7l104 109c3 3 7 5 10 5z" />
    <glyph glyph-name="gcircumflex" unicode="&#x11d;" horiz-adv-x="592" 
d="M449 17v40c-45 -45 -99 -67 -162 -67s-118 22 -163 67s-68 104 -68 178s23 132 69 175c47 43 101 65 162 65c66 0 120 -22 162 -67v41c0 13 2 16 11 16h33c9 0 11 -2 11 -11v-436c0 -170 -111 -221 -216 -221c-45 0 -89 7 -131 22c-7 1 -11 5 -11 14v31c0 7 5 9 15 5
c39 -15 79 -22 120 -22c100 0 168 47 168 170zM293 38c66 0 118 26 156 77v236c-37 51 -89 76 -156 76c-48 0 -91 -18 -128 -54c-37 -35 -55 -81 -55 -138s18 -104 53 -141s79 -56 130 -56zM279 669h16c3 0 7 -2 10 -5l104 -109c4 -3 3 -7 -1 -7h-25c-4 0 -7 2 -10 5l-81 73
c-3 1 -4 2 -5 2s-3 -1 -4 -2l-81 -73c-3 -3 -7 -5 -11 -5h-24c-5 0 -5 4 -2 7l104 109c3 3 7 5 10 5z" />
    <glyph glyph-name="Gbreve" unicode="&#x11e;" horiz-adv-x="770" 
d="M120 350c0 -85 30 -157 89 -217s131 -90 216 -90c44 0 83 4 117 13c19 5 32 10 41 13c10 4 20 9 31 15v-3l2 1l5 3v263c0 7 -3 11 -8 11h-204c-6 0 -9 3 -9 8v35c0 5 4 8 12 8h250c13 0 16 -2 16 -11v-333c0 -13 -1 -16 -14 -21c-58 -31 -127 -49 -208 -54
c-4 0 -15 -1 -20 -1h-13c-100 0 -185 34 -255 103s-105 155 -105 257c0 103 35 188 104 257c70 69 155 104 256 104c83 0 160 -19 230 -58c7 -3 10 -7 10 -12v-38c0 -7 -5 -8 -15 -2c-63 39 -138 58 -225 58c-86 0 -158 -30 -216 -90s-87 -133 -87 -219zM480 835h28
c3 0 4 -3 4 -9c-7 -52 -39 -78 -95 -78c-55 0 -91 28 -96 76c-1 7 0 11 5 11h27c3 0 6 -3 7 -9c5 -28 24 -42 57 -42c32 0 51 14 56 43c2 5 4 8 7 8z" />
    <glyph glyph-name="gbreve" unicode="&#x11f;" horiz-adv-x="592" 
d="M449 17v40c-45 -45 -99 -67 -162 -67s-118 22 -163 67s-68 104 -68 178s23 132 69 175c47 43 101 65 162 65c66 0 120 -22 162 -67v41c0 13 2 16 11 16h33c9 0 11 -2 11 -11v-436c0 -170 -111 -221 -216 -221c-45 0 -89 7 -131 22c-7 1 -11 5 -11 14v31c0 7 5 9 15 5
c39 -15 79 -22 120 -22c100 0 168 47 168 170zM293 38c66 0 118 26 156 77v236c-37 51 -89 76 -156 76c-48 0 -91 -18 -128 -54c-37 -35 -55 -81 -55 -138s18 -104 53 -141s79 -56 130 -56zM354 643h28c3 0 4 -3 4 -9c-7 -52 -39 -78 -95 -78c-55 0 -91 28 -96 76
c-1 7 0 11 5 11h27c3 0 6 -3 7 -9c5 -28 24 -42 57 -42c32 0 51 14 56 43c2 5 4 8 7 8z" />
    <glyph glyph-name="Gdotaccent" unicode="&#x120;" horiz-adv-x="770" 
d="M120 350c0 -85 30 -157 89 -217s131 -90 216 -90c44 0 83 4 117 13c19 5 32 10 41 13c10 4 20 9 31 15v-3l2 1l5 3v263c0 7 -3 11 -8 11h-204c-6 0 -9 3 -9 8v35c0 5 4 8 12 8h250c13 0 16 -2 16 -11v-333c0 -13 -1 -16 -14 -21c-58 -31 -127 -49 -208 -54
c-4 0 -15 -1 -20 -1h-13c-100 0 -185 34 -255 103s-105 155 -105 257c0 103 35 188 104 257c70 69 155 104 256 104c83 0 160 -19 230 -58c7 -3 10 -7 10 -12v-38c0 -7 -5 -8 -15 -2c-63 39 -138 58 -225 58c-86 0 -158 -30 -216 -90s-87 -133 -87 -219zM421 823
c23 0 41 -18 41 -39s-18 -38 -41 -38c-20 0 -38 17 -38 38s18 39 38 39z" />
    <glyph glyph-name="gdotaccent" unicode="&#x121;" horiz-adv-x="592" 
d="M449 17v40c-45 -45 -99 -67 -162 -67s-118 22 -163 67s-68 104 -68 178s23 132 69 175c47 43 101 65 162 65c66 0 120 -22 162 -67v41c0 13 2 16 11 16h33c9 0 11 -2 11 -11v-436c0 -170 -111 -221 -216 -221c-45 0 -89 7 -131 22c-7 1 -11 5 -11 14v31c0 7 5 9 15 5
c39 -15 79 -22 120 -22c100 0 168 47 168 170zM293 38c66 0 118 26 156 77v236c-37 51 -89 76 -156 76c-48 0 -91 -18 -128 -54c-37 -35 -55 -81 -55 -138s18 -104 53 -141s79 -56 130 -56zM291 631c23 0 41 -18 41 -39s-18 -38 -41 -38c-20 0 -38 17 -38 38s18 39 38 39z
" />
    <glyph glyph-name="Gcommaaccent" unicode="&#x122;" horiz-adv-x="770" 
d="M120 350c0 -85 30 -157 89 -217s131 -90 216 -90c44 0 83 4 117 13c19 5 32 10 41 13c10 4 20 9 31 15v-3l2 1l5 3v263c0 7 -3 11 -8 11h-204c-6 0 -9 3 -9 8v35c0 5 4 8 12 8h250c13 0 16 -2 16 -11v-333c0 -13 -1 -16 -14 -21c-58 -31 -127 -49 -208 -54
c-4 0 -15 -1 -20 -1h-13c-100 0 -185 34 -255 103s-105 155 -105 257c0 103 35 188 104 257c70 69 155 104 256 104c83 0 160 -19 230 -58c7 -3 10 -7 10 -12v-38c0 -7 -5 -8 -15 -2c-63 39 -138 58 -225 58c-86 0 -158 -30 -216 -90s-87 -133 -87 -219zM369 -197h-28
c-7 0 -8 4 -5 13l42 127c3 7 7 11 13 11h36c7 0 9 -5 4 -16l-51 -125c-3 -7 -6 -10 -11 -10z" />
    <glyph glyph-name="gcommaaccent" unicode="&#x123;" horiz-adv-x="592" 
d="M449 17v40c-45 -45 -99 -67 -162 -67s-118 22 -163 67s-68 104 -68 178s23 132 69 175c47 43 101 65 162 65c66 0 120 -22 162 -67v41c0 13 2 16 11 16h33c9 0 11 -2 11 -11v-436c0 -170 -111 -221 -216 -221c-45 0 -89 7 -131 22c-7 1 -11 5 -11 14v31c0 7 5 9 15 5
c39 -15 79 -22 120 -22c100 0 168 47 168 170zM293 38c66 0 118 26 156 77v236c-37 51 -89 76 -156 76c-48 0 -91 -18 -128 -54c-37 -35 -55 -81 -55 -138s18 -104 53 -141s79 -56 130 -56zM343 703h28c5 0 6 -3 3 -9l-52 -146c-3 -6 -6 -9 -9 -9h-44c-4 0 -5 6 -2 11
l68 147c1 4 4 6 8 6z" />
    <glyph glyph-name="Hcircumflex" unicode="&#x124;" horiz-adv-x="666" 
d="M150 0h-40c-5 0 -8 2 -8 7v685c0 5 2 8 7 8h42c5 0 8 -2 8 -7v-302c0 -2 1 -3 2 -3h343c2 0 3 1 3 4v301c0 5 3 7 8 7h40c6 0 9 -3 9 -9v-683c0 -5 -2 -8 -7 -8h-39c-7 0 -11 4 -11 11v319c0 3 -1 5 -4 5h-341c-2 0 -3 -1 -3 -3v-323c0 -6 -3 -9 -9 -9zM325 850h16
c3 0 7 -2 10 -5l104 -109c4 -3 3 -7 -1 -7h-25c-4 0 -7 2 -10 5l-81 73c-3 1 -4 2 -5 2s-3 -1 -4 -2l-81 -73c-3 -3 -7 -5 -11 -5h-24c-5 0 -5 4 -2 7l104 109c3 3 7 5 10 5z" />
    <glyph glyph-name="hcircumflex" unicode="&#x125;" horiz-adv-x="585" 
d="M151 732v-330c42 49 100 73 174 73c121 0 181 -64 181 -192v-275c0 -5 -3 -8 -8 -8h-39c-5 0 -7 3 -7 8v269c0 99 -45 149 -136 149c-62 0 -117 -27 -165 -80v-338c0 -5 -3 -8 -8 -8h-40c-4 0 -6 3 -6 9v722c0 6 3 9 8 9h36c7 0 10 -3 10 -8zM351 669c3 0 7 -2 10 -5
l104 -109c4 -3 3 -7 -1 -7h-25c-4 0 -7 2 -10 5l-81 73c-3 1 -4 2 -5 2s-3 -1 -4 -2l-81 -73c-3 -3 -7 -5 -11 -5h-24c-5 0 -5 4 -2 7l104 109c3 3 7 5 10 5h16z" />
    <glyph glyph-name="Hbar" unicode="&#x126;" horiz-adv-x="682" 
d="M158 0h-40c-5 0 -8 2 -8 7v543h-100c-7 0 -10 5 -10 15v14c0 9 3 14 9 14h101v99c0 5 2 8 7 8h42c5 0 8 -2 8 -7v-100h348v100c0 5 3 7 8 7h40c6 0 9 -3 9 -9v-98h98c8 0 12 -3 12 -9v-22c0 -11 -1 -12 -12 -12h-98v-542c0 -5 -2 -8 -7 -8h-39c-7 0 -11 4 -11 11v319
c0 3 -1 5 -4 5h-341c-2 0 -3 -1 -3 -3v-323c0 -6 -3 -9 -9 -9zM169 388h343c2 0 3 1 3 4v158h-348v-159c0 -2 1 -3 2 -3z" />
    <glyph glyph-name="hbar" unicode="&#x127;" horiz-adv-x="585" 
d="M151 346v-338c0 -5 -3 -8 -8 -8h-40c-4 0 -6 3 -6 9v593h-80c-4 0 -6 2 -6 6v34c0 3 2 5 6 5h80v84c0 6 3 9 8 9h36c7 0 10 -3 10 -8v-85h146c4 0 6 -2 6 -6v-33c0 -4 -2 -6 -5 -6h-147v-200c42 49 100 73 174 73c121 0 181 -64 181 -192v-275c0 -5 -3 -8 -8 -8h-39
c-5 0 -7 3 -7 8v269c0 99 -45 149 -136 149c-62 0 -117 -27 -165 -80z" />
    <glyph glyph-name="Itilde" unicode="&#x128;" horiz-adv-x="247" 
d="M171 739c-13 0 -30 6 -51 18c-21 13 -37 19 -47 19c-11 0 -25 -10 -41 -30c-3 -3 -5 -4 -8 -3l-15 13c-3 3 -3 5 -2 8c20 34 44 51 73 51c12 0 29 -6 50 -18s37 -18 48 -18c18 0 32 9 41 28c2 4 5 5 8 4l15 -12c4 -2 5 -5 3 -8c-20 -35 -45 -52 -74 -52zM147 0h-40
c-9 0 -9 1 -9 10v680c0 7 3 10 8 10h42c4 0 6 -3 6 -10v-681c0 -6 -2 -9 -7 -9z" />
    <glyph glyph-name="itilde" unicode="&#x129;" horiz-adv-x="230" 
d="M144 454v-445c0 -6 -3 -9 -8 -9h-37c-6 0 -9 3 -9 8v445c0 11 2 12 13 12h32c6 0 9 -4 9 -11zM166 550c-12 0 -29 6 -50 18c-21 13 -37 19 -48 19s-25 -10 -41 -30c-3 -3 -5 -4 -8 -3l-15 13c-3 3 -3 5 -2 8c20 34 44 51 73 51c12 0 29 -6 50 -18s37 -18 48 -18
c18 0 32 9 41 28c2 4 5 5 8 4l15 -12c4 -2 5 -5 3 -8c-20 -35 -45 -52 -74 -52z" />
    <glyph glyph-name="Imacron" unicode="&#x12a;" horiz-adv-x="247" 
d="M151 0h-40c-9 0 -9 1 -9 10v680c0 7 3 10 8 10h42c4 0 6 -3 6 -10v-681c0 -6 -2 -9 -7 -9zM19 744v33c0 4 2 6 6 6h214c4 0 6 -2 6 -6v-34c0 -4 -2 -6 -5 -6h-215c-4 0 -6 2 -6 7z" />
    <glyph glyph-name="imacron" unicode="&#x12b;" horiz-adv-x="230" 
d="M142 454v-445c0 -6 -3 -9 -8 -9h-37c-6 0 -9 3 -9 8v445c0 11 2 12 13 12h32c6 0 9 -4 9 -11zM4 563v33c0 4 2 6 6 6h214c4 0 6 -2 6 -6v-34c0 -4 -2 -6 -5 -6h-215c-4 0 -6 2 -6 7z" />
    <glyph glyph-name="Ibreve" unicode="&#x12c;" horiz-adv-x="247" 
d="M153 0h-40c-9 0 -9 1 -9 10v680c0 7 3 10 8 10h42c4 0 6 -3 6 -10v-681c0 -6 -2 -9 -7 -9zM199 824h28c3 0 4 -3 4 -9c-7 -52 -39 -78 -95 -78c-55 0 -91 28 -96 76c-1 7 0 11 5 11h27c4 0 6 -3 7 -9c5 -28 24 -42 57 -42c32 0 51 14 56 43c2 5 4 8 7 8z" />
    <glyph glyph-name="ibreve" unicode="&#x12d;" horiz-adv-x="230" 
d="M144 454v-445c0 -6 -3 -9 -8 -9h-37c-6 0 -9 3 -9 8v445c0 11 2 12 13 12h32c6 0 9 -4 9 -11zM181 643h28c3 0 4 -3 4 -9c-7 -52 -39 -78 -95 -78c-55 0 -91 28 -96 76c-1 7 0 11 5 11h27c4 0 6 -3 7 -9c5 -28 24 -42 57 -42c32 0 51 14 56 43c2 5 4 8 7 8z" />
    <glyph glyph-name="Iogonek" unicode="&#x12e;" horiz-adv-x="247" 
d="M187 -111v-11c-1 -5 -3 -9 -7 -12c-23 -11 -48 -17 -75 -17c-49 0 -76 25 -76 62s27 67 81 89c-8 0 -8 1 -8 10v680c0 7 3 10 8 10h42c4 0 6 -3 6 -10v-681c0 -6 -2 -9 -7 -9h-5c-51 -31 -70 -52 -70 -83c0 -26 15 -39 46 -39c14 0 32 4 55 13c7 3 10 3 10 -2z" />
    <glyph glyph-name="iogonek" unicode="&#x12f;" horiz-adv-x="254" 
d="M185 -107v-11c-1 -5 -3 -9 -7 -12c-23 -11 -48 -17 -75 -17c-49 0 -76 25 -76 62s25 65 75 86c-1 1 -2 3 -2 7v445c0 11 2 12 13 12h32c6 0 9 -4 9 -11v-445c0 -6 -3 -9 -8 -9h-8c-43 -27 -64 -53 -64 -79s15 -39 46 -39c14 0 32 4 55 13c7 3 10 3 10 -2zM167 643
c0 -24 -16 -40 -40 -40c-25 0 -40 16 -40 40c0 23 16 41 40 41s40 -18 40 -41z" />
    <glyph glyph-name="Idot" unicode="&#x130;" horiz-adv-x="247" 
d="M134 812c23 0 41 -18 41 -39s-18 -38 -41 -38c-20 0 -38 17 -38 38s18 39 38 39zM151 0h-40c-9 0 -9 1 -9 10v680c0 7 3 10 8 10h42c4 0 6 -3 6 -10v-681c0 -6 -2 -9 -7 -9z" />
    <glyph glyph-name="dotlessi" unicode="&#x131;" horiz-adv-x="230" 
d="M142 454v-445c0 -6 -3 -9 -8 -9h-37c-6 0 -9 3 -9 8v445c0 11 2 12 13 12h32c6 0 9 -4 9 -11z" />
    <glyph glyph-name="IJ" unicode="&#x132;" horiz-adv-x="598" 
d="M496 690v-491c0 -71 -20 -123 -61 -156s-92 -50 -155 -51c-7 0 -11 3 -11 8v36c0 8 1 9 13 9c92 0 158 49 158 162v483c0 7 2 10 7 10h42c5 0 7 -3 7 -10zM151 0h-40c-9 0 -9 1 -9 10v680c0 7 3 10 8 10h42c4 0 6 -3 6 -10v-681c0 -6 -2 -9 -7 -9z" />
    <glyph glyph-name="ij" unicode="&#x133;" horiz-adv-x="503" 
d="M167 643c0 -24 -16 -40 -40 -40c-25 0 -40 16 -40 40c0 23 16 41 40 41s40 -18 40 -41zM154 454v-445c0 -6 -3 -9 -8 -9h-37c-6 0 -9 3 -9 8v445c0 11 2 12 13 12h32c6 0 9 -4 9 -11z" />
    <glyph glyph-name="Jcircumflex" unicode="&#x134;" horiz-adv-x="338" 
d="M197 861h16c3 0 7 -2 10 -5l104 -109c4 -3 3 -7 -1 -7h-25c-4 0 -7 2 -10 5l-81 73c-3 1 -4 2 -5 2s-3 -1 -4 -2l-81 -73c-3 -3 -7 -5 -11 -5h-24c-5 0 -5 4 -2 7l104 109c3 3 7 5 10 5zM236 690v-491c0 -71 -20 -123 -61 -156s-92 -50 -155 -51c-7 0 -11 3 -11 8v36
c0 8 1 9 13 9c92 0 158 49 158 162v483c0 7 2 10 7 10h42c5 0 7 -3 7 -10z" />
    <glyph glyph-name="jcircumflex" unicode="&#x135;" horiz-adv-x="233" 
d="M108 662h16c3 0 7 -2 10 -5l104 -109c4 -3 3 -7 -1 -7h-25c-4 0 -7 2 -10 5l-81 73c-3 1 -4 2 -5 2s-3 -1 -4 -2l-81 -73c-3 -3 -7 -5 -11 -5h-24c-5 0 -5 4 -2 7l104 109c3 3 7 5 10 5zM56 -177c-19 0 -35 2 -48 7c-6 2 -9 6 -9 12v28c0 7 3 9 10 7c15 -3 29 -5 42 -5
c27 0 40 20 40 59v525c0 6 2 9 7 9h39c5 0 8 -2 8 -7v-530c0 -73 -29 -105 -89 -105z" />
    <glyph glyph-name="Kcommaaccent" unicode="&#x136;" horiz-adv-x="594" 
d="M151 0h-41c-5 0 -8 3 -8 10v682c0 5 1 8 4 8h46c4 0 6 -3 6 -8v-310l296 314c2 3 5 4 8 4h50c5 0 6 -3 2 -8l-297 -318c-3 -2 -3 -5 -1 -8l323 -356c5 -7 4 -10 -3 -10h-45c-8 0 -14 3 -19 10l-314 346v-345c0 -7 -2 -11 -7 -11zM281 -182h-28c-7 0 -8 4 -5 13l42 127
c3 7 7 11 13 11h36c7 0 9 -5 4 -16l-51 -125c-3 -7 -6 -10 -11 -10z" />
    <glyph glyph-name="kcommaaccent" unicode="&#x137;" horiz-adv-x="515" 
d="M399 6l-243 220c-5 5 -7 3 -7 -4v-211c0 -7 -3 -11 -9 -11h-36c-6 0 -9 3 -9 9v720c0 7 2 11 7 11h40c5 0 7 -3 7 -10v-462c0 -4 2 -5 6 -2l245 196c3 3 7 4 12 4h52c3 -1 4 -3 1 -7l-253 -207c-5 -4 -5 -8 -1 -12l254 -231c5 -6 4 -9 -3 -9h-49c-5 0 -10 2 -14 6z
M242 -182h-28c-7 0 -8 4 -5 13l42 127c3 7 7 11 13 11h36c7 0 9 -5 4 -16l-51 -125c-3 -7 -6 -10 -11 -10z" />
    <glyph glyph-name="kgreenlandic" unicode="&#x138;" horiz-adv-x="515" 
d="M399 6l-243 220c-5 5 -7 3 -7 -4v-211c0 -7 -3 -11 -9 -11h-36c-6 0 -9 3 -9 9v720c0 7 2 11 7 11h40c5 0 7 -3 7 -10v-462c0 -4 2 -5 6 -2l245 196c3 3 7 4 12 4h52c3 -1 4 -3 1 -7l-253 -207c-5 -4 -5 -8 -1 -12l254 -231c5 -6 4 -9 -3 -9h-49c-5 0 -10 2 -14 6z" />
    <glyph glyph-name="Lacute" unicode="&#x139;" horiz-adv-x="453" 
d="M404 0h-288c-11 0 -14 2 -14 13v678c0 6 2 9 5 9h43c6 0 9 -4 9 -11v-630c0 -3 1 -5 4 -5h241c7 0 10 -3 10 -9v-36c0 -6 -3 -9 -10 -9zM149 730h-33c-4 0 -5 2 -3 7l83 106c4 5 8 7 13 7h42c9 0 10 -3 4 -9l-94 -106c-3 -3 -7 -5 -12 -5z" />
    <glyph glyph-name="lacute" unicode="&#x13a;" horiz-adv-x="239" 
d="M151 731v-722c0 -6 -3 -9 -8 -9h-38c-5 0 -8 4 -8 11v720c0 6 2 9 6 9h41c5 0 7 -3 7 -9zM141 760h-33c-4 0 -5 2 -3 7l83 106c4 5 8 7 13 7h42c9 0 10 -3 4 -9l-94 -106c-3 -3 -7 -5 -12 -5z" />
    <glyph glyph-name="Lcommaaccent" unicode="&#x13b;" horiz-adv-x="453" 
d="M231 -182h-28c-7 0 -8 4 -5 13l42 127c3 7 7 11 13 11h36c7 0 9 -5 4 -16l-51 -125c-3 -7 -6 -10 -11 -10zM404 0h-288c-11 0 -14 2 -14 13v678c0 6 2 9 5 9h43c6 0 9 -4 9 -11v-630c0 -3 1 -5 4 -5h241c7 0 10 -3 10 -9v-36c0 -6 -3 -9 -10 -9z" />
    <glyph glyph-name="lcommaaccent" unicode="&#x13c;" horiz-adv-x="239" 
d="M88 -182h-28c-7 0 -8 4 -5 13l42 127c3 7 7 11 13 11h36c7 0 9 -5 4 -16l-51 -125c-3 -7 -6 -10 -11 -10zM156 731v-722c0 -6 -3 -9 -8 -9h-38c-5 0 -8 4 -8 11v720c0 6 2 9 6 9h41c5 0 7 -3 7 -9z" />
    <glyph glyph-name="Lcaron" unicode="&#x13d;" horiz-adv-x="453" 
d="M404 0h-288c-11 0 -14 2 -14 13v678c0 6 2 9 5 9h43c6 0 9 -4 9 -11v-630c0 -3 1 -5 4 -5h241c7 0 10 -3 10 -9v-36c0 -6 -3 -9 -10 -9zM338 536h-31c-4 0 -5 3 -4 9l52 146c3 6 6 9 10 9h41c6 0 8 -3 6 -8l-66 -147c-4 -6 -7 -9 -8 -9z" />
    <glyph glyph-name="lcaron" unicode="&#x13e;" horiz-adv-x="289" 
d="M151 731v-722c0 -6 -3 -9 -8 -9h-38c-5 0 -8 4 -8 11v720c0 6 2 9 6 9h41c5 0 7 -3 7 -9zM223 536h-31c-4 0 -5 3 -4 9l52 146c3 6 6 9 10 9h41c6 0 8 -3 6 -8l-66 -147c-4 -6 -7 -9 -8 -9z" />
    <glyph glyph-name="Ldot" unicode="&#x13f;" horiz-adv-x="453" 
d="M404 0h-288c-11 0 -14 2 -14 13v678c0 6 2 9 5 9h43c6 0 9 -4 9 -11v-630c0 -3 1 -5 4 -5h241c7 0 10 -3 10 -9v-36c0 -6 -3 -9 -10 -9zM324 256c23 0 39 -17 39 -38c0 -20 -18 -37 -39 -37s-39 18 -39 37c0 21 18 38 39 38z" />
    <glyph glyph-name="ldot" unicode="&#x140;" horiz-adv-x="310" 
d="M151 731v-722c0 -6 -3 -9 -8 -9h-38c-5 0 -8 4 -8 11v720c0 6 2 9 6 9h41c5 0 7 -3 7 -9zM271 380c23 0 39 -17 39 -38c0 -20 -18 -37 -39 -37s-39 18 -39 37c0 21 18 38 39 38z" />
    <glyph glyph-name="Lslash" unicode="&#x141;" horiz-adv-x="448" 
d="M420 0h-288c-11 0 -14 2 -14 13v197l-66 -63c-3 -3 -6 -6 -9 -4l-27 32c-1 1 0 4 4 8l98 93v415c0 6 2 9 5 9h43c6 0 9 -4 9 -11v-359l174 166c5 3 8 4 9 3l27 -31c1 -1 -1 -3 -4 -8l-206 -196v-205c0 -3 1 -5 4 -5h241c7 0 10 -3 10 -9v-36c0 -6 -3 -9 -10 -9z" />
    <glyph glyph-name="lslash" unicode="&#x142;" horiz-adv-x="353" 
d="M207 731v-292l112 109c4 4 7 4 10 0l25 -27c3 -3 2 -7 -2 -11l-145 -140v-361c0 -6 -3 -9 -8 -9h-38c-5 0 -8 4 -8 11v307l-115 -111c-3 -3 -6 -3 -8 0l-25 27c-2 2 -2 5 0 9l148 144v344c0 6 2 9 6 9h41c5 0 7 -3 7 -9z" />
    <glyph glyph-name="Nacute" unicode="&#x143;" horiz-adv-x="711" 
d="M609 693v-691c0 -8 -3 -8 -10 0l-442 558v-552c0 -5 -2 -8 -6 -8h-44c-3 0 -5 3 -5 8v685c0 10 3 12 10 5l442 -561v556c0 5 2 7 5 7h44c4 0 6 -2 6 -7zM374 741h-33c-5 0 -6 2 -3 7l83 106c4 5 8 7 13 7h42c9 0 10 -3 4 -9l-94 -106c-3 -3 -7 -5 -12 -5z" />
    <glyph glyph-name="nacute" unicode="&#x144;" horiz-adv-x="575" 
d="M142 458v-45c43 41 97 62 164 62c121 0 181 -64 181 -192v-275c0 -5 -3 -8 -8 -8h-39c-5 0 -7 3 -7 8v269c0 99 -45 149 -136 149c-58 0 -110 -23 -155 -69v-350c0 -5 -2 -7 -7 -7h-40c-5 0 -7 3 -7 8v449c0 5 2 8 7 8h39c5 0 8 -2 8 -7zM308 549h-33c-5 0 -6 2 -3 7
l83 106c4 5 8 7 13 7h42c9 0 10 -3 4 -9l-94 -106c-3 -3 -7 -5 -12 -5z" />
    <glyph glyph-name="Ncommaaccent" unicode="&#x145;" horiz-adv-x="711" 
d="M609 693v-691c0 -8 -3 -8 -10 0l-442 558v-552c0 -5 -2 -8 -6 -8h-44c-3 0 -5 3 -5 8v685c0 10 3 12 10 5l442 -561v556c0 5 2 7 5 7h44c4 0 6 -2 6 -7zM339 -182h-28c-7 0 -8 4 -5 13l42 127c3 7 7 11 13 11h36c7 0 9 -5 4 -16l-51 -125c-3 -7 -6 -10 -11 -10z" />
    <glyph glyph-name="ncommaaccent" unicode="&#x146;" horiz-adv-x="575" 
d="M142 458v-45c43 41 97 62 164 62c121 0 181 -64 181 -192v-275c0 -5 -3 -8 -8 -8h-39c-5 0 -7 3 -7 8v269c0 99 -45 149 -136 149c-58 0 -110 -23 -155 -69v-350c0 -5 -2 -7 -7 -7h-40c-5 0 -7 3 -7 8v449c0 5 2 8 7 8h39c5 0 8 -2 8 -7zM272 -182h-28c-7 0 -8 4 -5 13
l42 127c3 7 7 11 13 11h36c7 0 9 -5 4 -16l-51 -125c-3 -7 -6 -10 -11 -10z" />
    <glyph glyph-name="Ncaron" unicode="&#x147;" horiz-adv-x="711" 
d="M609 693v-691c0 -8 -3 -8 -10 0l-442 558v-552c0 -5 -2 -8 -6 -8h-44c-3 0 -5 3 -5 8v685c0 10 3 12 10 5l442 -561v556c0 5 2 7 5 7h44c4 0 6 -2 6 -7zM358 780c1 0 2 1 5 2l82 73c5 3 9 5 11 5h23c4 0 5 -4 1 -7l-104 -109c-3 -3 -7 -5 -10 -5h-16c-3 0 -7 2 -10 5
l-104 109c-3 3 -3 7 2 7h22c3 0 6 -2 11 -5l83 -73c1 -1 3 -2 4 -2z" />
    <glyph glyph-name="ncaron" unicode="&#x148;" horiz-adv-x="575" 
d="M142 458v-45c43 41 97 62 164 62c121 0 181 -64 181 -192v-275c0 -5 -3 -8 -8 -8h-39c-5 0 -7 3 -7 8v269c0 99 -45 149 -136 149c-58 0 -110 -23 -155 -69v-350c0 -5 -2 -7 -7 -7h-40c-5 0 -7 3 -7 8v449c0 5 2 8 7 8h39c5 0 8 -2 8 -7zM291 588c1 0 2 1 5 2l82 73
c5 3 9 5 11 5h23c4 0 5 -4 1 -7l-104 -109c-3 -3 -7 -5 -10 -5h-16c-3 0 -7 2 -10 5l-104 109c-3 3 -3 7 2 7h22c3 0 6 -2 11 -5l83 -73c1 -1 3 -2 4 -2z" />
    <glyph glyph-name="napostrophe" unicode="&#x149;" horiz-adv-x="575" 
d="M143 458v-45c43 41 97 62 164 62c121 0 181 -64 181 -192v-275c0 -5 -3 -8 -8 -8h-39c-5 0 -7 3 -7 8v269c0 99 -45 149 -136 149c-58 0 -110 -23 -155 -69v-350c0 -5 -2 -7 -7 -7h-40c-5 0 -7 3 -7 8v449c0 5 2 8 7 8h39c5 0 8 -2 8 -7zM126 549h-28c-7 0 -8 4 -5 13
l42 127c3 7 7 11 13 11h36c7 0 9 -5 4 -16l-51 -125c-3 -7 -6 -10 -11 -10z" />
    <glyph glyph-name="Eng" unicode="&#x14a;" horiz-adv-x="711" 
d="M609 693v-765c0 -73 -29 -105 -89 -105c-19 0 -35 2 -48 7c-6 1 -9 5 -9 12v28c0 7 3 9 10 7c15 -3 29 -5 42 -5c27 0 40 20 40 59v126l-398 503v-552c0 -5 -2 -8 -6 -8h-44c-3 0 -5 3 -5 8v685c0 10 3 12 10 5l442 -561v556c0 5 2 7 5 7h44c4 0 6 -2 6 -7z" />
    <glyph glyph-name="eng" unicode="&#x14b;" horiz-adv-x="575" 
d="M397 -177c-18 0 -34 2 -47 7c-7 1 -10 5 -10 12v28c0 7 4 9 11 7c15 -3 29 -5 41 -5c27 0 41 20 41 59v346c0 99 -45 149 -136 149c-58 0 -110 -23 -155 -69v-350c0 -5 -2 -7 -7 -7h-40c-5 0 -7 3 -7 8v449c0 5 2 8 7 8h39c5 0 8 -2 8 -7v-45c43 41 97 62 164 62
c121 0 181 -64 181 -192v-355c0 -73 -29 -105 -90 -105z" />
    <glyph glyph-name="Omacron" unicode="&#x14c;" horiz-adv-x="850" 
d="M63 350c0 99 35 184 106 255s157 106 256 106s184 -35 255 -106s107 -156 107 -255c0 -100 -35 -185 -106 -255s-156 -105 -256 -105s-185 35 -256 105s-106 155 -106 255zM119 350c0 -85 30 -157 89 -217c60 -60 132 -90 217 -90s157 30 216 90s89 132 89 217
s-30 158 -89 218c-59 61 -131 91 -216 91s-157 -30 -217 -91c-59 -60 -89 -133 -89 -218zM312 755v33c0 4 2 6 6 6h214c4 0 6 -2 6 -6v-34c0 -4 -2 -6 -5 -6h-215c-4 0 -6 2 -6 7z" />
    <glyph glyph-name="omacron" unicode="&#x14d;" 
d="M56 232c0 67 24 125 71 172c48 47 106 71 173 71s125 -24 172 -71c48 -47 72 -105 72 -172s-24 -124 -72 -171c-47 -47 -105 -71 -172 -71s-125 24 -173 71c-47 47 -71 104 -71 171zM492 232c0 53 -19 99 -56 136s-83 56 -136 56s-98 -19 -135 -56s-56 -83 -56 -136
s18 -99 55 -136s83 -55 136 -55s99 19 136 56s56 82 56 135zM190 563v33c0 4 2 6 6 6h214c4 0 6 -2 6 -6v-34c0 -4 -2 -6 -5 -6h-215c-4 0 -6 2 -6 7z" />
    <glyph glyph-name="Obreve" unicode="&#x14e;" horiz-adv-x="850" 
d="M63 350c0 99 35 184 106 255s157 106 256 106s184 -35 255 -106s107 -156 107 -255c0 -100 -35 -185 -106 -255s-156 -105 -256 -105s-185 35 -256 105s-106 155 -106 255zM119 350c0 -85 30 -157 89 -217c60 -60 132 -90 217 -90s157 30 216 90s89 132 89 217
s-30 158 -89 218c-59 61 -131 91 -216 91s-157 -30 -217 -91c-59 -60 -89 -133 -89 -218zM488 835h28c3 0 4 -3 4 -9c-7 -52 -39 -78 -95 -78c-55 0 -91 28 -96 76c-1 7 0 11 5 11h27c3 0 6 -3 7 -9c5 -28 24 -42 57 -42c32 0 51 14 56 43c2 5 4 8 7 8z" />
    <glyph glyph-name="obreve" unicode="&#x14f;" 
d="M56 232c0 67 24 125 71 172c48 47 106 71 173 71s125 -24 172 -71c48 -47 72 -105 72 -172s-24 -124 -72 -171c-47 -47 -105 -71 -172 -71s-125 24 -173 71c-47 47 -71 104 -71 171zM492 232c0 53 -19 99 -56 136s-83 56 -136 56s-98 -19 -135 -56s-56 -83 -56 -136
s18 -99 55 -136s83 -55 136 -55s99 19 136 56s56 82 56 135zM365 643h28c3 0 4 -3 4 -9c-7 -52 -39 -78 -95 -78c-55 0 -91 28 -96 76c-1 7 0 11 5 11h27c4 0 6 -3 7 -9c5 -28 24 -42 57 -42c32 0 51 14 56 43c2 5 4 8 7 8z" />
    <glyph glyph-name="Ohungarumlaut" unicode="&#x150;" horiz-adv-x="850" 
d="M63 350c0 99 35 184 106 255s157 106 256 106s184 -35 255 -106s107 -156 107 -255c0 -100 -35 -185 -106 -255s-156 -105 -256 -105s-185 35 -256 105s-106 155 -106 255zM119 350c0 -85 30 -157 89 -217c60 -60 132 -90 217 -90s157 30 216 90s89 132 89 217
s-30 158 -89 218c-59 61 -131 91 -216 91s-157 -30 -217 -91c-59 -60 -89 -133 -89 -218zM506 748h-36c-4 0 -5 2 -2 7l96 121c3 3 7 5 10 5h49c4 0 6 -5 2 -8l-108 -118c-5 -5 -8 -7 -11 -7zM382 748h-34c-4 0 -6 3 -2 7l94 120c4 4 8 6 12 6h47c5 0 6 -2 3 -7l-108 -121
c-3 -3 -7 -5 -12 -5z" />
    <glyph glyph-name="ohungarumlaut" unicode="&#x151;" 
d="M56 232c0 67 24 125 71 172c48 47 106 71 173 71s125 -24 172 -71c48 -47 72 -105 72 -172s-24 -124 -72 -171c-47 -47 -105 -71 -172 -71s-125 24 -173 71c-47 47 -71 104 -71 171zM492 232c0 53 -19 99 -56 136s-83 56 -136 56s-98 -19 -135 -56s-56 -83 -56 -136
s18 -99 55 -136s83 -55 136 -55s99 19 136 56s56 82 56 135zM383 556h-36c-3 0 -4 2 -2 7l96 121c3 3 7 5 10 5h49c4 0 6 -5 2 -8l-108 -118c-5 -5 -8 -7 -11 -7zM259 556h-34c-4 0 -6 3 -2 7l94 120c4 4 8 6 12 6h47c5 0 6 -2 3 -7l-108 -121c-3 -3 -7 -5 -12 -5z" />
    <glyph glyph-name="OE" unicode="&#x152;" horiz-adv-x="997" 
d="M593 8v18c-51 -24 -108 -36 -169 -36c-107 0 -194 34 -261 101s-100 154 -100 259s33 192 100 259s154 101 261 101c60 0 116 -12 169 -37v21c0 4 2 6 6 6h337c7 0 10 -2 10 -7v-37c0 -5 0 -7 -8 -7h-287c-1 0 -2 -1 -2 -3v-254c0 -3 1 -4 3 -4h287c5 0 7 -3 7 -8v-31
c0 -8 -3 -12 -8 -12h-285c-3 0 -4 -1 -4 -4v-278c0 -2 1 -3 3 -3h288c4 0 6 -4 6 -11v-32c0 -6 -3 -9 -10 -9h-335c-5 0 -8 3 -8 8zM349 49c30 -6 60 -8 91 -6c61 4 112 21 153 52v505c-42 33 -93 52 -152 56c-7 1 -16 1 -29 1c-21 0 -42 -2 -63 -6
c-69 -15 -125 -50 -166 -105c-41 -54 -61 -119 -61 -196s20 -142 61 -197c41 -54 97 -89 166 -104z" />
    <glyph glyph-name="oe" unicode="&#x153;" horiz-adv-x="976" 
d="M533 229v-2c0 -111 58 -190 187 -190c45 0 90 11 135 33c7 3 10 1 10 -4v-31c0 -5 -2 -8 -6 -11c-44 -23 -92 -34 -145 -34c-107 0 -179 41 -214 124c-41 -75 -122 -124 -213 -124c-67 0 -125 24 -173 71c-47 47 -71 104 -71 171s24 125 71 172c48 47 106 71 173 71
c92 0 176 -52 217 -132c37 83 112 132 199 132c63 0 116 -21 159 -63s64 -98 64 -167v-8c0 -5 -3 -8 -9 -8h-384zM287 41c53 0 99 19 136 56s56 82 56 135s-19 99 -57 136c-37 37 -82 56 -135 56s-98 -19 -135 -56s-56 -83 -56 -136s19 -99 56 -136s82 -55 135 -55zM703 431
c-85 0 -151 -64 -167 -159h337c-11 95 -75 159 -170 159z" />
    <glyph glyph-name="Racute" unicode="&#x154;" horiz-adv-x="597" 
d="M112 700h130c171 0 240 -62 240 -189c0 -103 -46 -166 -137 -189l248 -312c5 -7 4 -10 -4 -10h-51c-5 0 -10 3 -13 8l-242 305c-8 -1 -20 -1 -36 -1h-79c-9 0 -10 -1 -10 -10v-292c0 -7 -2 -10 -7 -10h-42c-5 0 -7 3 -7 10v681c0 6 3 9 10 9zM158 638v-264
c0 -9 1 -10 9 -10h75c125 0 182 43 182 143c0 101 -56 142 -183 142h-72c-9 0 -11 -2 -11 -11zM294 741h-33c-5 0 -6 2 -3 7l83 106c4 5 8 7 13 7h42c9 0 10 -3 4 -9l-94 -106c-3 -3 -7 -5 -12 -5z" />
    <glyph glyph-name="racute" unicode="&#x155;" horiz-adv-x="388" 
d="M97 465h33c6 0 9 -3 9 -10l1 -60c36 53 84 80 143 80c31 0 57 -4 79 -13c5 -3 7 -6 7 -10v-29c0 -5 -3 -7 -9 -6c-20 7 -45 11 -75 11c-53 0 -100 -28 -143 -85v-335c0 -5 -3 -8 -8 -8h-39c-5 0 -7 2 -7 7v446c0 8 3 12 9 12zM267 549h-33c-4 0 -5 2 -3 7l83 106
c4 5 8 7 13 7h42c9 0 10 -3 4 -9l-94 -106c-3 -3 -7 -5 -12 -5z" />
    <glyph glyph-name="Rcommaaccent" unicode="&#x156;" horiz-adv-x="597" 
d="M112 700h130c171 0 240 -62 240 -189c0 -103 -46 -166 -137 -189l248 -312c5 -7 4 -10 -4 -10h-51c-5 0 -10 3 -13 8l-242 305c-8 -1 -20 -1 -36 -1h-79c-9 0 -10 -1 -10 -10v-292c0 -7 -2 -10 -7 -10h-42c-5 0 -7 3 -7 10v681c0 6 3 9 10 9zM158 638v-264
c0 -9 1 -10 9 -10h75c125 0 182 43 182 143c0 101 -56 142 -183 142h-72c-9 0 -11 -2 -11 -11zM282 -182h-28c-7 0 -8 4 -5 13l42 127c3 7 7 11 13 11h36c7 0 9 -5 4 -16l-51 -125c-3 -7 -6 -10 -11 -10z" />
    <glyph glyph-name="rcommaaccent" unicode="&#x157;" horiz-adv-x="388" 
d="M102 465h33c6 0 9 -3 9 -10l1 -60c36 53 84 80 143 80c31 0 57 -4 79 -13c5 -3 7 -6 7 -10v-29c0 -5 -3 -7 -9 -6c-20 7 -45 11 -75 11c-53 0 -100 -28 -143 -85v-335c0 -5 -3 -8 -8 -8h-39c-5 0 -7 2 -7 7v446c0 8 3 12 9 12zM82 -182h-28c-7 0 -8 4 -5 13l42 127
c3 7 7 11 13 11h36c7 0 9 -5 4 -16l-51 -125c-3 -7 -6 -10 -11 -10z" />
    <glyph glyph-name="Rcaron" unicode="&#x158;" horiz-adv-x="597" 
d="M112 700h130c171 0 240 -62 240 -189c0 -103 -46 -166 -137 -189l248 -312c5 -7 4 -10 -4 -10h-51c-5 0 -10 3 -13 8l-242 305c-8 -1 -20 -1 -36 -1h-79c-9 0 -10 -1 -10 -10v-292c0 -7 -2 -10 -7 -10h-42c-5 0 -7 3 -7 10v681c0 6 3 9 10 9zM158 638v-264
c0 -9 1 -10 9 -10h75c125 0 182 43 182 143c0 101 -56 142 -183 142h-72c-9 0 -11 -2 -11 -11zM277 780c1 0 2 1 5 2l82 73c5 3 9 5 11 5h23c4 0 5 -4 1 -7l-104 -109c-3 -3 -7 -5 -10 -5h-16c-3 0 -7 2 -10 5l-104 109c-3 3 -3 7 2 7h22c3 0 6 -2 11 -5l83 -73
c1 -1 3 -2 4 -2z" />
    <glyph glyph-name="rcaron" unicode="&#x159;" horiz-adv-x="388" 
d="M97 465h33c6 0 9 -3 9 -10l1 -60c36 53 84 80 143 80c31 0 57 -4 79 -13c5 -3 7 -6 7 -10v-29c0 -5 -3 -7 -9 -6c-20 7 -45 11 -75 11c-53 0 -100 -28 -143 -85v-335c0 -5 -3 -8 -8 -8h-39c-5 0 -7 2 -7 7v446c0 8 3 12 9 12zM250 588c1 0 2 1 5 2l82 73c5 3 9 5 11 5h23
c4 0 5 -4 1 -7l-104 -109c-3 -3 -7 -5 -10 -5h-16c-3 0 -7 2 -10 5l-104 109c-3 3 -3 7 2 7h22c3 0 6 -2 11 -5l83 -73c1 -1 3 -2 4 -2z" />
    <glyph glyph-name="Sacute" unicode="&#x15a;" horiz-adv-x="498" 
d="M444 185c0 -129 -74 -195 -205 -195c-61 0 -111 11 -152 33c-7 4 -10 9 -10 15v39c0 6 3 7 10 3c39 -27 86 -40 143 -40c107 0 160 48 160 144c-5 51 -11 82 -41 110c-11 11 -19 18 -25 23c-5 5 -16 12 -31 20s-26 13 -31 15c-5 3 -16 8 -33 16c-45 21 -80 44 -104 71
s-36 66 -36 115c0 97 59 156 175 156c55 0 99 -11 134 -32c5 -3 7 -7 7 -12v-37c0 -6 -3 -8 -8 -5c-36 24 -78 36 -125 36c-85 0 -127 -36 -127 -109c0 -40 11 -68 38 -91c28 -23 46 -32 90 -52c21 -9 37 -17 49 -24s27 -17 44 -30c50 -36 74 -84 78 -169zM281 741h-33
c-4 0 -5 2 -3 7l83 106c4 5 8 7 13 7h42c9 0 10 -3 4 -9l-94 -106c-3 -3 -7 -5 -12 -5z" />
    <glyph glyph-name="sacute" unicode="&#x15b;" horiz-adv-x="442" 
d="M231 430c-57 0 -97 -21 -97 -65c0 -40 37 -63 84 -79c67 -21 155 -54 154 -166c0 -87 -54 -130 -162 -130c-61 0 -109 12 -143 35c-4 3 -6 7 -6 12v32c0 7 3 8 10 3c35 -25 80 -37 133 -37c76 0 114 29 114 87c0 55 -37 87 -84 104c-68 25 -154 44 -154 140
c0 69 56 109 143 109c48 0 87 -9 116 -27c7 -4 11 -9 11 -16v-27c0 -9 -4 -10 -13 -4c-28 19 -63 29 -106 29zM240 549h-33c-5 0 -6 2 -3 7l83 106c4 5 8 7 13 7h42c9 0 10 -3 4 -9l-94 -106c-3 -3 -7 -5 -12 -5z" />
    <glyph glyph-name="Scircumflex" unicode="&#x15c;" horiz-adv-x="498" 
d="M444 185c0 -129 -74 -195 -205 -195c-61 0 -111 11 -152 33c-7 4 -10 9 -10 15v39c0 6 3 7 10 3c39 -27 86 -40 143 -40c107 0 160 48 160 144c-5 51 -11 82 -41 110c-11 11 -19 18 -25 23c-5 5 -16 12 -31 20s-26 13 -31 15c-5 3 -16 8 -33 16c-45 21 -80 44 -104 71
s-36 66 -36 115c0 97 59 156 175 156c55 0 99 -11 134 -32c5 -3 7 -7 7 -12v-37c0 -6 -3 -8 -8 -5c-36 24 -78 36 -125 36c-85 0 -127 -36 -127 -109c0 -40 11 -68 38 -91c28 -23 46 -32 90 -52c21 -9 37 -17 49 -24s27 -17 44 -30c50 -36 74 -84 78 -169zM252 861h16
c3 0 7 -2 10 -5l104 -109c4 -3 3 -7 -1 -7h-25c-4 0 -7 2 -10 5l-81 73c-3 1 -4 2 -5 2s-3 -1 -4 -2l-81 -73c-3 -3 -7 -5 -11 -5h-24c-5 0 -5 4 -2 7l104 109c3 3 7 5 10 5z" />
    <glyph glyph-name="scircumflex" unicode="&#x15d;" horiz-adv-x="442" 
d="M231 430c-57 0 -97 -21 -97 -65c0 -40 37 -63 84 -79c67 -21 155 -54 154 -166c0 -87 -54 -130 -162 -130c-61 0 -109 12 -143 35c-4 3 -6 7 -6 12v32c0 7 3 8 10 3c35 -25 80 -37 133 -37c76 0 114 29 114 87c0 55 -37 87 -84 104c-68 25 -154 44 -154 140
c0 69 56 109 143 109c48 0 87 -9 116 -27c7 -4 11 -9 11 -16v-27c0 -9 -4 -10 -13 -4c-28 19 -63 29 -106 29zM211 669h16c3 0 7 -2 10 -5l104 -109c4 -3 3 -7 -1 -7h-25c-4 0 -7 2 -10 5l-81 73c-3 1 -4 2 -5 2s-3 -1 -4 -2l-81 -73c-3 -3 -7 -5 -11 -5h-24c-5 0 -5 4 -2 7
l104 109c3 3 7 5 10 5z" />
    <glyph glyph-name="Scedilla" unicode="&#x15e;" horiz-adv-x="498" 
d="M444 185c0 -117 -60 -182 -168 -193l-9 -17c-1 -3 -1 -5 1 -5c43 -3 67 -21 73 -55c5 -39 -15 -63 -60 -74c-10 -3 -22 -4 -36 -4c-21 0 -41 3 -59 9c-5 1 -7 4 -7 7v11c1 4 5 5 13 3c10 -3 26 -4 49 -4c37 0 62 20 58 48c-5 25 -27 38 -68 38c-5 0 -7 2 -5 5l18 36h-5
c-61 0 -111 11 -152 33c-7 4 -10 9 -10 15v39c0 6 3 7 10 3c39 -27 86 -40 143 -40c107 0 160 48 160 144c-5 51 -11 82 -41 110c-11 11 -19 18 -25 23c-5 5 -16 12 -31 20s-26 13 -31 15c-5 3 -16 8 -33 16c-45 21 -80 44 -104 71s-36 66 -36 115c0 97 59 156 175 156
c55 0 99 -11 134 -32c5 -3 7 -7 7 -12v-37c0 -6 -3 -8 -8 -5c-36 24 -78 36 -125 36c-85 0 -127 -36 -127 -109c0 -40 11 -68 38 -91c28 -23 46 -32 90 -52c21 -9 37 -17 49 -24s27 -17 44 -30c50 -36 74 -84 78 -169z" />
    <glyph glyph-name="scedilla" unicode="&#x15f;" horiz-adv-x="442" 
d="M231 430c-57 0 -97 -21 -97 -65c0 -40 37 -63 84 -79c67 -21 155 -54 154 -166c0 -79 -45 -122 -134 -129l-12 -24c-1 -3 -1 -5 1 -5c43 -3 67 -21 73 -55c5 -39 -15 -63 -60 -74c-10 -3 -22 -4 -36 -4c-21 0 -41 3 -59 9c-5 1 -7 4 -7 7v11c1 4 5 5 13 3
c10 -3 26 -4 49 -4c37 0 62 20 58 48c-5 25 -27 38 -68 38c-5 0 -7 2 -5 5l22 44c-62 1 -109 12 -140 35c-4 3 -6 7 -6 12v32c0 7 3 8 10 3c35 -25 80 -37 133 -37c76 0 114 29 114 87c0 55 -37 87 -84 104c-68 25 -154 44 -154 140c0 69 56 109 143 109c48 0 87 -9 116 -27
c7 -4 11 -9 11 -16v-27c0 -9 -4 -10 -13 -4c-28 19 -63 29 -106 29z" />
    <glyph glyph-name="Scaron" unicode="&#x160;" horiz-adv-x="498" 
d="M444 185c0 -129 -74 -195 -205 -195c-61 0 -111 11 -152 33c-7 4 -10 9 -10 15v39c0 6 3 7 10 3c39 -27 86 -40 143 -40c107 0 160 48 160 144c-5 51 -11 82 -41 110c-11 11 -19 18 -25 23c-5 5 -16 12 -31 20s-26 13 -31 15c-5 3 -16 8 -33 16c-45 21 -80 44 -104 71
s-36 66 -36 115c0 97 59 156 175 156c55 0 99 -11 134 -32c5 -3 7 -7 7 -12v-37c0 -6 -3 -8 -8 -5c-36 24 -78 36 -125 36c-85 0 -127 -36 -127 -109c0 -40 11 -68 38 -91c28 -23 46 -32 90 -52c21 -9 37 -17 49 -24s27 -17 44 -30c50 -36 74 -84 78 -169zM265 780
c1 0 2 1 5 2l82 73c5 3 9 5 11 5h23c4 0 5 -4 1 -7l-104 -109c-3 -3 -7 -5 -10 -5h-16c-3 0 -7 2 -10 5l-104 109c-3 3 -3 7 2 7h22c3 0 6 -2 11 -5l83 -73c1 -1 3 -2 4 -2z" />
    <glyph glyph-name="scaron" unicode="&#x161;" horiz-adv-x="442" 
d="M231 430c-57 0 -97 -21 -97 -65c0 -40 37 -63 84 -79c67 -21 155 -54 154 -166c0 -87 -54 -130 -162 -130c-61 0 -109 12 -143 35c-4 3 -6 7 -6 12v32c0 7 3 8 10 3c35 -25 80 -37 133 -37c76 0 114 29 114 87c0 55 -37 87 -84 104c-68 25 -154 44 -154 140
c0 69 56 109 143 109c48 0 87 -9 116 -27c7 -4 11 -9 11 -16v-27c0 -9 -4 -10 -13 -4c-28 19 -63 29 -106 29zM223 588c1 0 2 1 5 2l82 73c5 3 9 5 11 5h23c4 0 5 -4 1 -7l-104 -109c-3 -3 -7 -5 -10 -5h-16c-3 0 -7 2 -10 5l-104 109c-3 3 -3 7 2 7h22c3 0 6 -2 11 -5
l83 -73c1 -1 3 -2 4 -2z" />
    <glyph glyph-name="Tcommaaccent" unicode="&#x162;" horiz-adv-x="537" 
d="M290 0h-44c-7 0 -8 1 -8 9v630c0 7 -2 10 -7 10h-229c-6 0 -9 2 -9 6v38c0 5 3 7 8 7h533c6 0 9 -2 9 -7v-38c0 -4 -3 -6 -10 -6h-230c-4 0 -6 -3 -6 -8v-630c0 -7 -2 -11 -7 -11zM235 -182h-28c-7 0 -8 4 -5 13l42 127c3 7 7 11 13 11h36c7 0 9 -5 4 -16l-51 -125
c-3 -7 -6 -10 -11 -10z" />
    <glyph glyph-name="tcommaaccent" unicode="&#x163;" horiz-adv-x="376" 
d="M320 25v-28c0 -5 -3 -7 -9 -7c-116 1 -174 56 -174 180v246h-109c-8 0 -10 2 -10 9v31c0 6 3 9 10 9h109v178c0 7 3 11 8 11h37c6 0 9 -4 9 -11v-178h121c7 0 10 -3 10 -8v-33c0 -5 -3 -8 -8 -8h-123v-240c0 -92 40 -139 120 -141c8 0 9 -1 9 -10zM172 -182h-28
c-7 0 -8 4 -5 13l42 127c3 7 7 11 13 11h36c7 0 9 -5 4 -16l-51 -125c-3 -7 -6 -10 -11 -10z" />
    <glyph glyph-name="Tcaron" unicode="&#x164;" horiz-adv-x="537" 
d="M269 780c1 0 2 1 5 2l82 73c5 3 9 5 11 5h23c4 0 5 -4 1 -7l-104 -109c-3 -3 -7 -5 -10 -5h-16c-3 0 -7 2 -10 5l-104 109c-3 3 -3 7 2 7h22c3 0 6 -2 11 -5l83 -73c1 -1 3 -2 4 -2zM290 0h-44c-7 0 -8 1 -8 9v630c0 7 -2 10 -7 10h-229c-6 0 -9 2 -9 6v38c0 5 3 7 8 7
h533c6 0 9 -2 9 -7v-38c0 -4 -3 -6 -10 -6h-230c-4 0 -6 -3 -6 -8v-630c0 -7 -2 -11 -7 -11z" />
    <glyph glyph-name="tcaron" unicode="&#x165;" horiz-adv-x="310" 
d="M224 -10c-47 0 -76 13 -89 44s-15 55 -15 106v275c0 4 -2 6 -5 6h-90c-6 0 -9 3 -9 8v28c0 5 3 8 8 8h94c3 0 4 1 5 4l15 130c2 7 5 10 10 10h19c5 0 8 -3 8 -8v-132c0 -3 1 -4 3 -4h105c5 0 8 -3 8 -8v-28c0 -5 -3 -8 -8 -8h-104c-3 0 -4 -2 -4 -5v-280
c0 -73 13 -101 61 -101c23 0 43 5 59 16c5 3 7 3 7 -2v-32c0 -3 -2 -6 -7 -9c-17 -12 -41 -18 -71 -18zM257 544h-29c-4 0 -5 3 -4 8l49 140c3 5 6 8 10 8h39c6 0 8 -3 6 -8l-63 -140c-3 -5 -6 -8 -8 -8z" />
    <glyph glyph-name="Tbar" unicode="&#x166;" horiz-adv-x="537" 
d="M290 0h-44c-7 0 -8 1 -8 9v383h-107c-4 0 -6 2 -6 7v36c0 3 2 5 6 5h107v199c0 7 -2 10 -7 10h-229c-6 0 -9 2 -9 6v38c0 5 3 7 8 7h533c6 0 9 -2 9 -7v-38c0 -4 -3 -6 -10 -6h-230c-4 0 -6 -3 -6 -8v-201h108c4 0 6 -2 6 -5v-37c0 -4 -2 -6 -5 -6h-109v-381
c0 -7 -2 -11 -7 -11z" />
    <glyph glyph-name="tbar" unicode="&#x167;" horiz-adv-x="376" 
d="M320 25v-28c0 -5 -3 -7 -9 -7c-116 1 -174 56 -174 180v149h-114c-3 0 -5 2 -5 7v33c0 4 2 6 5 6h114v65h-109c-7 0 -10 3 -10 9v29c0 6 3 9 10 9h109v166c0 7 3 11 8 11h37c6 0 9 -4 9 -11v-166h121c7 0 10 -3 10 -8v-31c0 -5 -3 -8 -8 -8h-123v-65h123c4 0 6 -2 6 -6
v-34c0 -4 -2 -6 -5 -6h-124v-143c0 -92 40 -139 120 -141c8 0 9 -1 9 -10z" />
    <glyph glyph-name="Utilde" unicode="&#x168;" horiz-adv-x="657" 
d="M507 246v445c0 6 2 9 6 9h45c5 0 7 -3 7 -9v-448c0 -169 -77 -253 -231 -253c-155 0 -232 84 -232 253v449c0 5 2 8 6 8h46c4 0 6 -3 6 -10v-444c0 -75 16 -127 49 -157s75 -45 125 -45c115 0 173 67 173 202zM382 742c-12 0 -29 6 -50 18c-21 13 -37 19 -48 19
s-25 -10 -41 -30c-3 -3 -5 -4 -8 -3l-15 13c-3 3 -3 5 -2 8c20 34 44 51 73 51c12 0 29 -6 50 -18s37 -18 48 -18c18 0 32 9 41 28c2 4 5 5 8 4l15 -12c4 -2 5 -5 3 -8c-20 -35 -45 -52 -74 -52z" />
    <glyph glyph-name="utilde" unicode="&#x169;" horiz-adv-x="552" 
d="M79 205v249c0 7 3 11 10 11h35c8 0 9 -2 9 -11v-248c0 -113 48 -169 143 -169s143 56 143 169v248c0 9 1 11 9 11h38c5 0 7 -3 7 -8v-252c0 -143 -66 -215 -197 -215s-197 72 -197 215zM324 550c-12 0 -29 6 -50 18c-21 13 -37 19 -48 19s-25 -10 -41 -30
c-3 -3 -5 -4 -8 -3l-15 13c-3 3 -3 5 -2 8c20 34 44 51 73 51c12 0 29 -6 50 -18s37 -18 48 -18c18 0 32 9 41 28c2 4 5 5 8 4l15 -12c4 -2 5 -5 3 -8c-20 -35 -45 -52 -74 -52z" />
    <glyph glyph-name="Umacron" unicode="&#x16a;" horiz-adv-x="657" 
d="M507 246v445c0 6 2 9 6 9h45c5 0 7 -3 7 -9v-448c0 -169 -77 -253 -231 -253c-155 0 -232 84 -232 253v449c0 5 2 8 6 8h46c4 0 6 -3 6 -10v-444c0 -75 16 -127 49 -157s75 -45 125 -45c115 0 173 67 173 202zM221 755v33c0 4 2 6 6 6h214c4 0 6 -2 6 -6v-34
c0 -4 -2 -6 -5 -6h-215c-4 0 -6 2 -6 7z" />
    <glyph glyph-name="umacron" unicode="&#x16b;" horiz-adv-x="552" 
d="M79 205v249c0 7 3 11 10 11h35c8 0 9 -2 9 -11v-248c0 -113 48 -169 143 -169s143 56 143 169v248c0 9 1 11 9 11h38c5 0 7 -3 7 -8v-252c0 -143 -66 -215 -197 -215s-197 72 -197 215zM164 563v33c0 4 2 6 6 6h214c4 0 6 -2 6 -6v-34c0 -4 -2 -6 -5 -6h-215
c-4 0 -6 2 -6 7z" />
    <glyph glyph-name="Ubreve" unicode="&#x16c;" horiz-adv-x="657" 
d="M507 246v445c0 6 2 9 6 9h45c5 0 7 -3 7 -9v-448c0 -169 -77 -253 -231 -253c-155 0 -232 84 -232 253v449c0 5 2 8 6 8h46c4 0 6 -3 6 -10v-444c0 -75 16 -127 49 -157s75 -45 125 -45c115 0 173 67 173 202zM397 835h28c3 0 4 -3 4 -9c-7 -52 -39 -78 -95 -78
c-55 0 -91 28 -96 76c-1 7 0 11 5 11h27c4 0 6 -3 7 -9c5 -28 24 -42 57 -42c32 0 51 14 56 43c2 5 4 8 7 8z" />
    <glyph glyph-name="ubreve" unicode="&#x16d;" horiz-adv-x="552" 
d="M340 643h28c3 0 4 -3 4 -9c-7 -52 -39 -78 -95 -78c-55 0 -91 28 -96 76c-1 7 0 11 5 11h27c3 0 6 -3 7 -9c5 -28 24 -42 57 -42c32 0 51 14 56 43c2 5 4 8 7 8zM79 205v249c0 7 3 11 10 11h35c8 0 9 -2 9 -11v-248c0 -113 48 -169 143 -169s143 56 143 169v248
c0 9 1 11 9 11h38c5 0 7 -3 7 -8v-252c0 -143 -66 -215 -197 -215s-197 72 -197 215z" />
    <glyph glyph-name="Uring" unicode="&#x16e;" horiz-adv-x="657" 
d="M421 820c0 -40 -33 -72 -86 -72c-52 0 -85 32 -85 72c0 39 33 71 85 71c53 0 86 -32 86 -71zM335 776c60 0 60 86 0 86c-59 0 -58 -86 0 -86zM507 246v445c0 6 2 9 6 9h45c5 0 7 -3 7 -9v-448c0 -169 -77 -253 -231 -253c-155 0 -232 84 -232 253v449c0 5 2 8 6 8h46
c4 0 6 -3 6 -10v-444c0 -75 16 -127 49 -157s75 -45 125 -45c115 0 173 67 173 202z" />
    <glyph glyph-name="uring" unicode="&#x16f;" horiz-adv-x="552" 
d="M364 628c0 -40 -33 -72 -86 -72c-52 0 -85 32 -85 72c0 39 33 71 85 71c53 0 86 -32 86 -71zM278 584c60 0 60 86 0 86c-59 0 -58 -86 0 -86zM79 205v249c0 7 3 11 10 11h35c8 0 9 -2 9 -11v-248c0 -113 48 -169 143 -169s143 56 143 169v248c0 9 1 11 9 11h38
c5 0 7 -3 7 -8v-252c0 -143 -66 -215 -197 -215s-197 72 -197 215z" />
    <glyph glyph-name="Uhungarumlaut" unicode="&#x170;" horiz-adv-x="657" 
d="M507 246v445c0 6 2 9 6 9h45c5 0 7 -3 7 -9v-448c0 -169 -77 -253 -231 -253c-155 0 -232 84 -232 253v449c0 5 2 8 6 8h46c4 0 6 -3 6 -10v-444c0 -75 16 -127 49 -157s75 -45 125 -45c115 0 173 67 173 202zM415 748h-36c-3 0 -4 2 -2 7l96 121c3 3 7 5 10 5h49
c4 0 6 -5 2 -8l-108 -118c-5 -5 -8 -7 -11 -7zM291 748h-34c-4 0 -6 3 -2 7l94 120c4 4 8 6 12 6h47c5 0 6 -2 3 -7l-108 -121c-3 -3 -7 -5 -12 -5z" />
    <glyph glyph-name="uhungarumlaut" unicode="&#x171;" horiz-adv-x="552" 
d="M358 556h-36c-4 0 -5 2 -2 7l96 121c3 3 7 5 10 5h49c4 0 6 -5 2 -8l-108 -118c-5 -5 -8 -7 -11 -7zM234 556h-34c-4 0 -6 3 -2 7l94 120c4 4 8 6 12 6h47c5 0 6 -2 3 -7l-108 -121c-3 -3 -7 -5 -12 -5zM79 205v249c0 7 3 11 10 11h35c8 0 9 -2 9 -11v-248
c0 -113 48 -169 143 -169s143 56 143 169v248c0 9 1 11 9 11h38c5 0 7 -3 7 -8v-252c0 -143 -66 -215 -197 -215s-197 72 -197 215z" />
    <glyph glyph-name="Uogonek" unicode="&#x172;" horiz-adv-x="657" 
d="M391 -113v-11c-1 -5 -3 -9 -7 -12c-23 -11 -48 -17 -75 -17c-49 0 -76 25 -76 62c0 33 22 61 66 83c-131 11 -197 95 -197 251v449c0 5 2 8 6 8h46c4 0 6 -3 6 -10v-444c0 -75 16 -127 49 -157s75 -45 125 -45c115 0 173 67 173 202v445c0 6 2 9 6 9h45c5 0 7 -3 7 -9
v-448c0 -167 -76 -252 -227 -253c-39 -25 -58 -50 -58 -75c0 -26 15 -39 46 -39c14 0 32 4 55 13c7 3 10 3 10 -2z" />
    <glyph glyph-name="uogonek" unicode="&#x173;" horiz-adv-x="552" 
d="M332 -115v-11c-1 -5 -3 -9 -7 -12c-23 -11 -48 -17 -75 -17c-49 0 -76 25 -76 62c0 35 23 63 70 85c-110 11 -165 82 -165 213v249c0 7 3 11 10 11h35c8 0 9 -2 9 -11v-248c0 -113 48 -169 143 -169s143 56 143 169v248c0 9 1 11 9 11h38c5 0 7 -3 7 -8v-252
c0 -141 -64 -213 -191 -215c-41 -25 -61 -51 -61 -77s15 -39 46 -39c14 0 32 4 55 13c7 3 10 3 10 -2z" />
    <glyph glyph-name="Wcircumflex" unicode="&#x174;" horiz-adv-x="910" 
d="M641 9l-185 547l-184 -547c-6 -20 -9 -19 -17 0l-231 682c-4 7 -2 9 6 9h44c5 0 9 -3 11 -9l181 -556l178 534c11 35 13 35 25 0l178 -540l179 551c1 1 1 3 2 6c4 13 5 14 14 14h40c9 0 10 -4 5 -21l-228 -670c-8 -20 -10 -20 -18 0zM445 861h16c3 0 7 -2 10 -5l104 -109
c4 -3 3 -7 -1 -7h-25c-4 0 -7 2 -10 5l-81 73c-3 1 -4 2 -5 2s-3 -1 -4 -2l-81 -73c-3 -3 -7 -5 -11 -5h-24c-5 0 -5 4 -2 7l104 109c3 3 7 5 10 5z" />
    <glyph glyph-name="wcircumflex" unicode="&#x175;" horiz-adv-x="760" 
d="M211 4l-187 452c-3 6 -2 9 5 9h40c4 0 8 -3 11 -8l140 -356l157 355c5 12 11 12 16 0l157 -356l140 355c2 7 5 10 10 10h41c5 0 7 -3 4 -10l-185 -451c-4 -8 -8 -8 -13 0l-163 365l-160 -365c-5 -9 -10 -9 -13 0zM373 669h16c3 0 7 -2 10 -5l104 -109c4 -3 3 -7 -1 -7
h-25c-4 0 -7 2 -10 5l-81 73c-3 1 -4 2 -5 2s-3 -1 -4 -2l-81 -73c-3 -3 -7 -5 -11 -5h-24c-5 0 -5 4 -2 7l104 109c3 3 7 5 10 5z" />
    <glyph glyph-name="Ycircumflex" unicode="&#x176;" horiz-adv-x="549" 
d="M306 0h-46c-5 0 -7 4 -7 13v348c0 12 -2 20 -5 24l-217 304c-5 7 -4 11 3 11h44c5 0 9 -3 12 -8l184 -253c8 -17 10 -16 17 -2l180 253c5 7 9 10 12 10h46c6 0 7 -3 3 -10l-215 -306c-3 -5 -5 -13 -5 -26v-347c0 -7 -2 -11 -6 -11zM270 865h16c3 0 7 -2 10 -5l104 -109
c4 -3 3 -7 -1 -7h-25c-4 0 -7 2 -10 5l-81 73c-3 1 -4 2 -5 2s-3 -1 -4 -2l-81 -73c-3 -3 -7 -5 -11 -5h-24c-5 0 -5 4 -2 7l104 109c3 3 7 5 10 5z" />
    <glyph glyph-name="ycircumflex" unicode="&#x177;" horiz-adv-x="482" 
d="M466 454l-292 -647c-1 -3 -5 -5 -10 -5h-41c-5 0 -6 2 -5 7l104 231l-188 417c-3 5 -1 8 4 8h42c5 0 8 -2 11 -7l157 -360l160 356c4 7 8 11 12 11h42c5 0 7 -6 4 -11zM239 669h16c3 0 7 -2 10 -5l104 -109c4 -3 3 -7 -1 -7h-25c-4 0 -7 2 -10 5l-81 73c-3 1 -4 2 -5 2
s-3 -1 -4 -2l-81 -73c-3 -3 -7 -5 -11 -5h-24c-5 0 -5 4 -2 7l104 109c3 3 7 5 10 5z" />
    <glyph glyph-name="Ydieresis" unicode="&#x178;" horiz-adv-x="549" 
d="M306 0h-46c-5 0 -7 4 -7 13v348c0 12 -2 20 -5 24l-217 304c-5 7 -4 11 3 11h44c5 0 9 -3 12 -8l184 -253c8 -17 10 -16 17 -2l180 253c5 7 9 10 12 10h46c6 0 7 -3 3 -10l-215 -306c-3 -5 -5 -13 -5 -26v-347c0 -7 -2 -11 -6 -11zM211 825c23 0 39 -16 39 -37
c0 -20 -18 -37 -39 -37s-38 17 -38 37c0 21 17 37 38 37zM394 788c0 -20 -18 -37 -39 -37s-38 17 -38 37c0 48 77 48 77 0z" />
    <glyph glyph-name="Zacute" unicode="&#x179;" horiz-adv-x="520" 
d="M59 15l321 630c3 4 2 6 -3 6h-278c-9 0 -13 4 -13 11v29c0 6 4 9 12 9h352c12 0 15 -5 10 -15l-320 -629c-2 -4 0 -6 5 -6h318c11 0 12 -2 12 -10v-30c0 -7 -3 -10 -10 -10h-399c-9 0 -11 5 -7 15zM290 741h-33c-5 0 -6 2 -3 7l83 106c4 5 8 7 13 7h42c9 0 10 -3 4 -9
l-94 -106c-3 -3 -7 -5 -12 -5z" />
    <glyph glyph-name="zacute" unicode="&#x17a;" horiz-adv-x="441" 
d="M51 10l250 411h-234c-6 0 -9 3 -9 8v29c0 5 3 7 9 7h308c8 0 10 -3 5 -9l-252 -413h256c7 0 11 -3 11 -8v-27c0 -5 -3 -8 -10 -8h-330c-7 0 -9 3 -4 10zM234 549h-33c-4 0 -5 2 -3 7l83 106c4 5 8 7 13 7h42c9 0 10 -3 4 -9l-94 -106c-3 -3 -7 -5 -12 -5z" />
    <glyph glyph-name="Zdotaccent" unicode="&#x17b;" horiz-adv-x="520" 
d="M59 15l321 630c3 4 2 6 -3 6h-278c-9 0 -13 4 -13 11v29c0 6 4 9 12 9h352c12 0 15 -5 10 -15l-320 -629c-2 -4 0 -6 5 -6h318c11 0 12 -2 12 -10v-30c0 -7 -3 -10 -10 -10h-399c-9 0 -11 5 -7 15zM272 823c23 0 41 -18 41 -39s-18 -38 -41 -38c-20 0 -38 17 -38 38
s18 39 38 39z" />
    <glyph glyph-name="zdotaccent" unicode="&#x17c;" horiz-adv-x="441" 
d="M51 10l250 411h-234c-6 0 -9 3 -9 8v29c0 5 3 7 9 7h308c8 0 10 -3 5 -9l-252 -413h256c7 0 11 -3 11 -8v-27c0 -5 -3 -8 -10 -8h-330c-7 0 -9 3 -4 10zM216 631c23 0 41 -18 41 -39s-18 -38 -41 -38c-20 0 -38 17 -38 38s18 39 38 39z" />
    <glyph glyph-name="Zcaron" unicode="&#x17d;" horiz-adv-x="520" 
d="M59 15l321 630c3 4 2 6 -3 6h-278c-9 0 -13 4 -13 11v29c0 6 4 9 12 9h352c12 0 15 -5 10 -15l-320 -629c-2 -4 0 -6 5 -6h318c11 0 12 -2 12 -10v-30c0 -7 -3 -10 -10 -10h-399c-9 0 -11 5 -7 15zM273 780c1 0 2 1 5 2l82 73c5 3 9 5 11 5h23c4 0 5 -4 1 -7l-104 -109
c-3 -3 -7 -5 -10 -5h-16c-3 0 -7 2 -10 5l-104 109c-3 3 -3 7 2 7h22c3 0 6 -2 11 -5l83 -73c1 -1 3 -2 4 -2z" />
    <glyph glyph-name="zcaron" unicode="&#x17e;" horiz-adv-x="441" 
d="M51 10l250 411h-234c-6 0 -9 3 -9 8v29c0 5 3 7 9 7h308c8 0 10 -3 5 -9l-252 -413h256c7 0 11 -3 11 -8v-27c0 -5 -3 -8 -10 -8h-330c-7 0 -9 3 -4 10zM217 588c1 0 2 1 5 2l82 73c5 3 9 5 11 5h23c4 0 5 -4 1 -7l-104 -109c-3 -3 -7 -5 -10 -5h-16c-3 0 -7 2 -10 5
l-104 109c-3 3 -3 7 2 7h22c3 0 6 -2 11 -5l83 -73c1 -1 3 -2 4 -2z" />
    <glyph glyph-name="florin" unicode="&#x192;" horiz-adv-x="284" 
d="M99 421h-67c-5 0 -7 2 -7 6v32c0 4 3 6 8 6h66c3 0 4 1 4 4v114c0 121 36 167 129 167c25 0 49 -2 71 -6c6 -1 9 -4 8 -9l-4 -28c-1 -5 -5 -7 -12 -6c-18 3 -38 4 -59 4c-60 0 -79 -34 -79 -122v-114c0 -3 1 -4 4 -4h107c6 0 9 -2 9 -6v-31c0 -5 -3 -7 -9 -7h-109
c-1 0 -2 -1 -2 -2v-452c0 -121 -35 -167 -122 -167c-20 0 -44 2 -72 5c-6 1 -8 4 -7 8l4 31c1 3 4 5 9 5c19 -3 39 -4 62 -4c55 0 72 34 72 122v451c0 2 -1 3 -4 3z" />
    <glyph glyph-name="AEacute" unicode="&#x1fc;" horiz-adv-x="1014" 
d="M517 8v198h-285l-130 -196c-5 -7 -11 -10 -20 -10h-35c-13 0 -9 6 -3 16l442 673c5 7 11 11 19 11h355c7 0 10 -2 10 -7v-37c0 -5 0 -7 -8 -7h-287c-1 0 -2 -1 -2 -3v-254c0 -3 1 -4 3 -4h287c5 0 7 -3 7 -8v-31c0 -8 -3 -12 -8 -12h-285c-3 0 -4 -1 -4 -4v-278
c0 -2 1 -3 3 -3h288c4 0 6 -4 6 -11v-32c0 -6 -3 -9 -10 -9h-335c-5 0 -8 3 -8 8zM517 632l-251 -376h251v376zM557 730h-33c-4 0 -5 2 -3 7l83 106c4 5 8 7 13 7h42c9 0 10 -3 4 -9l-94 -106c-3 -3 -7 -5 -12 -5z" />
    <glyph glyph-name="aeacute" unicode="&#x1fd;" horiz-adv-x="913" 
d="M470 229v-2c0 -111 58 -190 187 -190c61 0 115 10 164 31c5 1 7 0 7 -5v-32c0 -5 -1 -8 -4 -10c-49 -21 -107 -31 -174 -31c-81 0 -142 25 -183 74c-67 -49 -140 -74 -220 -74c-104 0 -168 54 -168 137c0 88 74 141 179 141c56 0 108 -11 157 -34v73
c0 80 -46 120 -138 120c-59 0 -107 -8 -144 -25c-5 -4 -10 -1 -10 4v36c0 5 2 9 7 11c51 15 103 22 154 22c91 0 149 -33 173 -100c40 63 106 100 181 100c64 0 117 -21 160 -63s64 -98 64 -167v-8c0 -5 -3 -8 -9 -8h-383zM419 180l-4 3v4c-44 24 -97 36 -160 36
c-69 0 -124 -38 -124 -94c0 -55 48 -94 117 -94s146 27 193 68c-10 21 -17 47 -22 77zM638 431c-43 0 -79 -15 -109 -45c-30 -29 -49 -68 -56 -115h336c-5 46 -24 84 -55 114c-31 31 -70 46 -116 46zM480 593h-33c-5 0 -6 2 -3 7l83 106c4 5 8 7 13 7h42c9 0 10 -3 4 -9
l-94 -106c-3 -3 -7 -5 -12 -5z" />
    <glyph glyph-name="Oslashacute" unicode="&#x1fe;" horiz-adv-x="850" 
d="M618 754l-34 -80c61 -30 110 -74 147 -132s56 -122 56 -192c0 -100 -35 -185 -106 -255s-156 -105 -256 -105c-39 0 -79 6 -118 19l-19 -47c-3 -6 -7 -9 -12 -9h-41c-7 0 -9 3 -7 10l28 68c-117 61 -193 182 -193 319c0 99 35 184 106 255s157 106 256 106
c35 0 71 -5 107 -16l27 64c3 7 7 11 12 11h43c8 0 9 -5 4 -16zM730 350c0 117 -66 223 -166 275l-236 -567c30 -10 62 -15 97 -15c85 0 157 30 216 90s89 132 89 217zM119 350c0 -113 62 -214 158 -269l235 565c-31 9 -60 13 -87 13c-85 0 -157 -30 -217 -91
c-59 -60 -89 -133 -89 -218zM445 730h-33c-4 0 -5 2 -3 7l83 106c4 5 8 7 13 7h42c9 0 10 -3 4 -9l-94 -106c-3 -3 -7 -5 -12 -5z" />
    <glyph glyph-name="oslashacute" unicode="&#x1ff;" 
d="M444 517l-30 -71c79 -41 130 -123 130 -214c0 -67 -24 -124 -72 -171c-47 -47 -105 -71 -172 -71c-23 0 -46 3 -71 10l-23 -55c-3 -5 -7 -8 -11 -8h-32c-6 0 -8 3 -6 9l30 71c-80 41 -131 123 -131 215c0 67 24 125 71 172c48 47 106 71 173 71c24 0 48 -4 72 -11l24 57
c3 7 6 11 11 11h33c8 0 9 0 4 -15zM109 232c0 -71 38 -135 97 -167l146 351c-17 5 -35 8 -52 8c-53 0 -98 -19 -135 -56s-56 -83 -56 -136zM492 232c0 69 -39 134 -98 167l-146 -351c16 -5 33 -7 52 -7c53 0 99 19 136 56s56 82 56 135zM320 549h-33c-5 0 -6 2 -3 7l83 106
c4 5 8 7 13 7h42c9 0 10 -3 4 -9l-94 -106c-3 -3 -7 -5 -12 -5z" />
    <glyph glyph-name="Scommaaccent" unicode="&#x218;" horiz-adv-x="498" 
d="M444 185c0 -129 -74 -195 -205 -195c-61 0 -111 11 -152 33c-7 4 -10 9 -10 15v39c0 6 3 7 10 3c39 -27 86 -40 143 -40c107 0 160 48 160 144c-5 51 -11 82 -41 110c-11 11 -19 18 -25 23c-5 5 -16 12 -31 20s-26 13 -31 15c-5 3 -16 8 -33 16c-45 21 -80 44 -104 71
s-36 66 -36 115c0 97 59 156 175 156c55 0 99 -11 134 -32c5 -3 7 -7 7 -12v-37c0 -6 -3 -8 -8 -5c-36 24 -78 36 -125 36c-85 0 -127 -36 -127 -109c0 -40 11 -68 38 -91c28 -23 46 -32 90 -52c21 -9 37 -17 49 -24s27 -17 44 -30c50 -36 74 -84 78 -169z" />
    <glyph glyph-name="scommaaccent" unicode="&#x219;" horiz-adv-x="442" 
d="M231 430c-57 0 -97 -21 -97 -65c0 -40 37 -63 84 -79c67 -21 155 -54 154 -166c0 -87 -54 -130 -162 -130c-61 0 -109 12 -143 35c-4 3 -6 7 -6 12v32c0 7 3 8 10 3c35 -25 80 -37 133 -37c76 0 114 29 114 87c0 55 -37 87 -84 104c-68 25 -154 44 -154 140
c0 69 56 109 143 109c48 0 87 -9 116 -27c7 -4 11 -9 11 -16v-27c0 -9 -4 -10 -13 -4c-28 19 -63 29 -106 29zM206 -182h-28c-7 0 -8 4 -5 13l42 127c3 7 7 11 13 11h36c7 0 9 -5 4 -16l-51 -125c-3 -7 -6 -10 -11 -10z" />
    <glyph glyph-name="dotlessj" unicode="&#x237;" horiz-adv-x="233" 
d="M56 -177c-19 0 -35 2 -48 7c-6 2 -9 6 -9 12v28c0 7 3 9 10 7c15 -3 29 -5 42 -5c27 0 40 20 40 59v525c0 6 2 9 7 9h39c5 0 8 -2 8 -7v-530c0 -73 -29 -105 -89 -105z" />
    <glyph glyph-name="apostrophemod" unicode="&#x2bc;" horiz-adv-x="222" 
d="M90 700h38c5 0 7 -3 7 -9v-211c0 -6 -2 -9 -7 -9h-36c-6 0 -9 3 -9 8v214c0 5 2 7 7 7z" />
    <glyph glyph-name="circumflex" unicode="&#x2c6;" horiz-adv-x="251" 
d="M114 850h16c3 0 7 -2 10 -5l104 -109c4 -3 3 -7 -1 -7h-25c-4 0 -7 2 -10 5l-81 73c-3 1 -4 2 -5 2s-3 -1 -4 -2l-81 -73c-3 -3 -7 -5 -11 -5h-24c-5 0 -5 4 -2 7l104 109c3 3 7 5 10 5z" />
    <glyph glyph-name="caron" unicode="&#x2c7;" horiz-adv-x="242" 
d="M122 769c1 0 2 1 5 2l82 73c5 3 9 5 11 5h23c4 0 5 -4 1 -7l-104 -109c-3 -3 -7 -5 -10 -5h-16c-3 0 -7 2 -10 5l-104 109c-3 3 -3 7 2 7h22c3 0 6 -2 11 -5l83 -73c1 -1 3 -2 4 -2z" />
    <glyph glyph-name="breve" unicode="&#x2d8;" horiz-adv-x="241" 
d="M186 824h28c3 0 4 -3 4 -9c-7 -52 -39 -78 -95 -78c-55 0 -91 28 -96 76c-1 7 0 11 5 11h27c3 0 6 -3 7 -9c5 -28 24 -42 57 -42c32 0 51 14 56 43c2 5 4 8 7 8z" />
    <glyph glyph-name="dotaccent" unicode="&#x2d9;" horiz-adv-x="116" 
d="M56 812c23 0 41 -18 41 -39s-18 -38 -41 -38c-20 0 -38 17 -38 38s18 39 38 39z" />
    <glyph glyph-name="ring" unicode="&#x2da;" horiz-adv-x="247" 
d="M209 809c0 -40 -33 -72 -86 -72c-52 0 -85 32 -85 72c0 39 33 71 85 71c53 0 86 -32 86 -71zM123 765c60 0 60 86 0 86c-59 0 -58 -86 0 -86z" />
    <glyph glyph-name="ogonek" unicode="&#x2db;" horiz-adv-x="219" 
d="M187 -113v-11c-1 -5 -3 -9 -7 -12c-23 -11 -48 -17 -75 -17c-49 0 -76 25 -76 62c0 39 29 69 87 91h34c-53 -32 -74 -54 -74 -85c0 -26 15 -39 46 -39c14 0 32 4 55 13c7 3 10 3 10 -2z" />
    <glyph glyph-name="tilde" unicode="&#x2dc;" horiz-adv-x="289" 
d="M191 727c-13 0 -30 6 -51 18c-21 13 -37 19 -47 19c-11 0 -25 -10 -41 -30c-3 -3 -5 -4 -8 -3l-15 13c-3 3 -3 5 -2 8c20 34 44 51 73 51c12 0 29 -6 50 -18s37 -18 48 -18c18 0 32 9 41 28c2 4 5 5 8 4l15 -12c4 -2 5 -5 3 -8c-20 -35 -45 -52 -74 -52z" />
    <glyph glyph-name="hungarumlaut" unicode="&#x2dd;" horiz-adv-x="335" 
d="M189 737h-36c-4 0 -5 2 -2 7l96 121c3 3 7 5 10 5h49c4 0 6 -5 2 -8l-108 -118c-5 -5 -8 -7 -11 -7zM65 737h-34c-4 0 -6 3 -2 7l94 120c4 4 8 6 12 6h47c5 0 6 -2 3 -7l-108 -121c-3 -3 -7 -5 -12 -5z" />
    <glyph glyph-name="Wgrave" unicode="&#x1e80;" horiz-adv-x="910" 
d="M641 9l-185 547l-184 -547c-6 -20 -9 -19 -17 0l-231 682c-4 7 -2 9 6 9h44c5 0 9 -3 11 -9l181 -556l178 534c11 35 13 35 25 0l178 -540l179 551c1 1 1 3 2 6c4 13 5 14 14 14h40c9 0 10 -4 5 -21l-228 -670c-8 -20 -10 -20 -18 0zM426 749l-106 120c-5 4 -4 9 3 9h42
c7 0 12 -3 16 -9l95 -118c5 -5 3 -11 -2 -11h-29c-7 0 -13 3 -19 9z" />
    <glyph glyph-name="wgrave" unicode="&#x1e81;" horiz-adv-x="760" 
d="M211 4l-187 452c-3 6 -2 9 5 9h40c4 0 8 -3 11 -8l140 -356l157 355c5 12 11 12 16 0l157 -356l140 355c2 7 5 10 10 10h41c5 0 7 -3 4 -10l-185 -451c-4 -8 -8 -8 -13 0l-163 365l-160 -365c-5 -9 -10 -9 -13 0zM354 557l-106 120c-5 4 -4 9 3 9h42c7 0 12 -3 16 -9
l95 -118c5 -5 3 -11 -2 -11h-29c-7 0 -13 3 -19 9z" />
    <glyph glyph-name="Wacute" unicode="&#x1e82;" horiz-adv-x="910" 
d="M641 9l-185 547l-184 -547c-6 -20 -9 -19 -17 0l-231 682c-4 7 -2 9 6 9h44c5 0 9 -3 11 -9l181 -556l178 534c11 35 13 35 25 0l178 -540l179 551c1 1 1 3 2 6c4 13 5 14 14 14h40c9 0 10 -4 5 -21l-228 -670c-8 -20 -10 -20 -18 0zM474 741h-33c-4 0 -5 2 -3 7l83 106
c4 5 8 7 13 7h42c9 0 10 -3 4 -9l-94 -106c-3 -3 -7 -5 -12 -5z" />
    <glyph glyph-name="wacute" unicode="&#x1e83;" horiz-adv-x="760" 
d="M211 4l-187 452c-3 6 -2 9 5 9h40c4 0 8 -3 11 -8l140 -356l157 355c5 12 11 12 16 0l157 -356l140 355c2 7 5 10 10 10h41c5 0 7 -3 4 -10l-185 -451c-4 -8 -8 -8 -13 0l-163 365l-160 -365c-5 -9 -10 -9 -13 0zM402 549h-33c-4 0 -5 2 -3 7l83 106c4 5 8 7 13 7h42
c9 0 10 -3 4 -9l-94 -106c-3 -3 -7 -5 -12 -5z" />
    <glyph glyph-name="Wdieresis" unicode="&#x1e84;" horiz-adv-x="910" 
d="M641 9l-185 547l-184 -547c-6 -20 -9 -19 -17 0l-231 682c-4 7 -2 9 6 9h44c5 0 9 -3 11 -9l181 -556l178 534c11 35 13 35 25 0l178 -540l179 551c1 1 1 3 2 6c4 13 5 14 14 14h40c9 0 10 -4 5 -21l-228 -670c-8 -20 -10 -20 -18 0zM386 821c23 0 39 -16 39 -37
c0 -20 -18 -37 -39 -37s-38 17 -38 37c0 21 17 37 38 37zM569 784c0 -20 -18 -37 -39 -37s-38 17 -38 37c0 48 77 48 77 0z" />
    <glyph glyph-name="wdieresis" unicode="&#x1e85;" horiz-adv-x="760" 
d="M211 4l-187 452c-3 6 -2 9 5 9h40c4 0 8 -3 11 -8l140 -356l157 355c5 12 11 12 16 0l157 -356l140 355c2 7 5 10 10 10h41c5 0 7 -3 4 -10l-185 -451c-4 -8 -8 -8 -13 0l-163 365l-160 -365c-5 -9 -10 -9 -13 0zM314 629c23 0 39 -16 39 -37c0 -20 -18 -37 -39 -37
s-38 17 -38 37c0 21 17 37 38 37zM497 592c0 -20 -18 -37 -39 -37s-38 17 -38 37c0 48 77 48 77 0z" />
    <glyph glyph-name="Ygrave" unicode="&#x1ef2;" horiz-adv-x="549" 
d="M306 0h-46c-5 0 -7 4 -7 13v348c0 12 -2 20 -5 24l-217 304c-5 7 -4 11 3 11h44c5 0 9 -3 12 -8l184 -253c8 -17 10 -16 17 -2l180 253c5 7 9 10 12 10h46c6 0 7 -3 3 -10l-215 -306c-3 -5 -5 -13 -5 -26v-347c0 -7 -2 -11 -6 -11zM251 753l-106 120c-5 4 -4 9 3 9h42
c7 0 12 -3 16 -9l95 -118c5 -5 3 -11 -2 -11h-29c-7 0 -13 3 -19 9z" />
    <glyph glyph-name="ygrave" unicode="&#x1ef3;" horiz-adv-x="482" 
d="M466 454l-292 -647c-1 -3 -5 -5 -10 -5h-41c-5 0 -6 2 -5 7l104 231l-188 417c-3 5 -1 8 4 8h42c5 0 8 -2 11 -7l157 -360l160 356c4 7 8 11 12 11h42c5 0 7 -6 4 -11zM220 557l-106 120c-5 4 -4 9 3 9h42c7 0 12 -3 16 -9l95 -118c5 -5 3 -11 -2 -11h-29
c-7 0 -13 3 -19 9z" />
    <glyph glyph-name="endash" unicode="&#x2013;" horiz-adv-x="451" 
d="M446 193h-440c-4 0 -6 1 -6 4v38c0 4 3 6 8 6h438c3 0 5 -2 5 -5v-38c0 -3 -2 -5 -5 -5z" />
    <glyph glyph-name="emdash" unicode="&#x2014;" horiz-adv-x="1024" 
d="M880 193h-734c-5 0 -7 2 -7 6v36c0 4 2 6 7 6h734c4 0 6 -2 6 -6v-37c0 -3 -2 -5 -6 -5z" />
    <glyph glyph-name="quoteleft" unicode="&#x2018;" horiz-adv-x="255" 
d="M151 700h28c5 0 6 -3 3 -9l-52 -146c-3 -6 -6 -9 -9 -9h-44c-4 0 -5 6 -2 11l68 147c1 4 4 6 8 6z" />
    <glyph glyph-name="quoteright" unicode="&#x2019;" horiz-adv-x="255" 
d="M110 536h-31c-4 0 -5 3 -4 9l52 146c3 6 6 9 10 9h41c6 0 8 -3 6 -8l-66 -147c-4 -6 -7 -9 -8 -9z" />
    <glyph glyph-name="quotesinglbase" unicode="&#x201a;" horiz-adv-x="235" 
d="M86 -119h-30c-6 0 -8 3 -5 9l46 174c1 6 4 9 9 9h45c7 0 9 -4 7 -12l-62 -172c-2 -5 -5 -8 -10 -8z" />
    <glyph glyph-name="quotedblleft" unicode="&#x201c;" horiz-adv-x="361" 
d="M150 700h30c4 0 5 -3 4 -8l-52 -147c-2 -6 -5 -9 -10 -9h-42c-4 0 -5 3 -4 8l68 150c1 4 3 6 6 6zM257 700h29c4 0 5 -3 4 -9l-53 -147c-1 -5 -4 -8 -8 -8h-42c-7 0 -8 3 -4 10l66 147c2 5 5 7 8 7z" />
    <glyph glyph-name="quotedblright" unicode="&#x201d;" horiz-adv-x="361" 
d="M213 536h-27c-5 0 -7 3 -4 8l52 148c2 5 5 8 9 8h42c6 0 8 -3 5 -8l-69 -150c-2 -4 -5 -6 -8 -6zM107 536h-27c-5 0 -6 2 -4 7l53 149c1 5 4 8 8 8h43c5 0 7 -3 4 -8l-69 -150c-2 -4 -5 -6 -8 -6z" />
    <glyph glyph-name="quotedblbase" unicode="&#x201e;" horiz-adv-x="395" 
d="M97 -119h-35c-4 0 -5 3 -4 8l44 174c1 7 4 10 10 10h49c5 0 7 -3 6 -9l-63 -178c-2 -3 -4 -5 -7 -5zM259 -119h-34c-5 0 -6 2 -5 7l44 176c1 6 4 9 9 9h50c6 0 8 -3 6 -10l-62 -176c-3 -4 -5 -6 -8 -6z" />
    <glyph glyph-name="dagger" unicode="&#x2020;" horiz-adv-x="596" 
d="M326 479v-582c0 -5 -2 -8 -6 -8h-43c-5 0 -8 3 -8 10v579c0 5 -2 7 -5 7h-168c-7 0 -10 2 -10 7v35c0 6 4 9 11 9h167c3 0 5 2 5 6v161c0 7 2 11 7 11h43c7 0 7 -2 7 -11v-160c0 -5 2 -7 7 -7h167c6 0 9 -3 9 -8v-35c0 -5 -3 -8 -9 -8h-168c-4 0 -6 -2 -6 -6z" />
    <glyph glyph-name="daggerdbl" unicode="&#x2021;" horiz-adv-x="596" 
d="M509 524v-34c0 -5 -3 -7 -8 -7h-170c-3 0 -5 -1 -5 -4v-84c0 -4 2 -6 5 -6h168c7 0 10 -3 10 -8v-34c0 -5 -3 -8 -9 -8h-169c-3 0 -5 -2 -5 -7v-448c0 -7 -2 -11 -7 -11h-42c-5 0 -8 3 -8 9v451c0 4 -2 6 -7 6h-166c-7 0 -10 3 -10 8v33c0 6 3 9 9 9h168c4 0 6 2 6 5v84
c0 3 -2 5 -5 5h-167c-7 0 -11 3 -11 8v36c0 5 3 7 9 7h170c3 0 4 2 4 5v166c0 6 2 9 7 9h44c4 0 6 -3 6 -8v-167c0 -3 2 -5 5 -5h167c7 0 11 -3 11 -10z" />
    <glyph glyph-name="bullet" unicode="&#x2022;" horiz-adv-x="323" 
d="M161 329c49 0 88 -35 88 -82c0 -45 -39 -81 -88 -81c-48 0 -85 36 -85 81c0 47 37 82 85 82z" />
    <glyph glyph-name="onedotenleader" unicode="&#x2024;" horiz-adv-x="234" 
d="M115 0c-50 -4 -50 78 0 75c21 0 39 -17 39 -38s-16 -37 -39 -37z" />
    <glyph glyph-name="twodotenleader" unicode="&#x2025;" horiz-adv-x="459" 
d="M114 61c19 0 32 -15 32 -32c0 -19 -13 -31 -32 -31c-17 0 -30 12 -30 31c0 17 13 32 30 32zM375 29c0 -41 -62 -41 -62 0c-4 41 66 41 62 0z" />
    <glyph glyph-name="ellipsis" unicode="&#x2026;" horiz-adv-x="689" 
d="M114 61c19 0 32 -15 32 -32c0 -19 -13 -31 -32 -31c-17 0 -30 12 -30 31c0 17 13 32 30 32zM375 29c0 -41 -62 -41 -62 0c-4 41 66 41 62 0zM573 61c19 0 32 -15 32 -32c0 -19 -13 -31 -32 -31c-17 0 -30 12 -30 31c0 17 13 32 30 32z" />
    <glyph glyph-name="perthousand" unicode="&#x2030;" horiz-adv-x="1507" 
d="M288 -13h-43c-8 0 -10 4 -5 11l462 709c5 6 9 9 13 9h42c9 0 10 -4 4 -13l-460 -708c-3 -5 -8 -8 -13 -8zM19 500c0 124 77 210 212 210s212 -86 212 -210c0 -125 -77 -211 -212 -211s-212 86 -212 211zM387 500c0 96 -60 166 -156 166s-155 -70 -155 -166
c0 -97 59 -167 155 -167s156 70 156 167zM775 -10c-133 0 -212 86 -212 211c0 124 79 210 212 210c135 0 213 -86 213 -210c0 -63 -19 -114 -56 -153s-90 -58 -157 -58zM931 201c0 96 -60 166 -156 166s-155 -70 -155 -166c0 -97 59 -167 155 -167s156 70 156 167zM1042 201
c0 124 77 210 212 210s212 -86 212 -210c0 -125 -77 -211 -212 -211s-212 86 -212 211zM1410 201c0 96 -60 166 -156 166s-155 -70 -155 -166c0 -97 59 -167 155 -167s156 70 156 167z" />
    <glyph glyph-name="guilsinglleft" unicode="&#x2039;" horiz-adv-x="354" 
d="M283 420l-138 -170c-2 -1 -2 -3 0 -5l137 -171c4 -4 5 -7 2 -9l-22 -19c-2 -2 -5 -2 -8 1l-175 194c-3 3 -2 8 1 14l175 193c3 4 6 4 9 1l20 -18c3 -3 2 -6 -1 -11z" />
    <glyph glyph-name="guilsinglright" unicode="&#x203a;" horiz-adv-x="354" 
d="M217 250l-138 170c-3 5 -4 8 -2 11l21 18c3 3 6 2 10 -2l172 -191c5 -7 5 -12 1 -16l-172 -191c-3 -5 -6 -7 -9 -4l-24 19c-2 2 -1 6 4 12l137 168c1 3 1 5 0 6z" />
    <glyph glyph-name="fraction" unicode="&#x2044;" horiz-adv-x="285" 
d="M375 691l-410 -684c-3 -5 -7 -7 -11 -7h-46c-5 0 -6 3 -4 8l412 684c2 5 6 8 11 8h44c6 0 7 -3 4 -9z" />
    <glyph glyph-name="zerosuperior" unicode="&#x2070;" horiz-adv-x="443" 
d="M41 531c0 69 16 125 49 169c33 45 77 67 132 67c53 0 97 -22 130 -67c34 -44 51 -100 51 -169s-17 -126 -51 -171c-33 -45 -77 -67 -130 -67c-55 0 -99 22 -132 66c-33 45 -49 102 -49 172zM96 531c0 -117 50 -197 126 -197s127 81 127 197c0 57 -12 104 -35 140
c-23 37 -54 55 -92 55c-76 0 -126 -79 -126 -195z" />
    <glyph glyph-name="foursuperior" unicode="&#x2074;" horiz-adv-x="397" 
d="M76 438h169c1 0 2 1 2 4v314c0 3 2 5 5 5h39c3 0 5 -2 5 -6v-313c0 -3 1 -4 3 -4h48c4 0 6 -2 6 -6v-28c0 -3 -2 -5 -5 -5h-49c-2 0 -3 -1 -3 -3v-90c0 -4 -2 -6 -6 -6h-36c-5 0 -7 3 -7 8v86c0 3 -1 5 -3 5h-214c-4 0 -6 2 -6 6v30l3 12l93 251c1 3 3 4 6 4h37
c4 0 5 -2 3 -7l-92 -254c0 -2 1 -3 2 -3z" />
    <glyph glyph-name="fivesuperior" unicode="&#x2075;" horiz-adv-x="361" 
d="M297 722h-152l-25 -124c130 0 195 -52 195 -157c0 -96 -68 -148 -179 -148c-41 0 -82 8 -121 23l18 35c31 -12 65 -18 104 -18c80 0 126 40 126 108c0 41 -14 71 -43 90c-29 20 -82 30 -160 30l43 201h204z" />
    <glyph glyph-name="sixsuperior" unicode="&#x2076;" horiz-adv-x="385" 
d="M184 761h54l-117 -185c23 23 55 35 95 35c81 0 138 -58 138 -158c0 -105 -62 -160 -162 -160s-162 54 -162 158c0 49 18 98 54 147zM86 453c0 -81 42 -120 107 -120c61 0 105 40 105 120s-43 121 -103 121c-65 0 -109 -53 -109 -121z" />
    <glyph glyph-name="sevensuperior" unicode="&#x2077;" horiz-adv-x="359" 
d="M55 300l224 419h-226l-9 42h288v-42l-222 -419h-55z" />
    <glyph glyph-name="eightsuperior" unicode="&#x2078;" horiz-adv-x="430" 
d="M80 659c0 68 53 109 134 109c83 0 135 -41 135 -110c0 -55 -34 -86 -75 -94c67 -13 111 -58 111 -131c0 -89 -64 -140 -171 -140c-105 0 -169 51 -169 140c0 72 42 118 109 131c-39 8 -74 39 -74 95zM214 327c69 0 119 37 119 106s-50 108 -119 108
c-68 0 -117 -39 -117 -108s49 -106 117 -106zM214 582c49 0 85 25 85 76s-36 75 -84 75s-86 -24 -86 -75s37 -76 85 -76z" />
    <glyph glyph-name="ninesuperior" unicode="&#x2079;" horiz-adv-x="385" 
d="M201 293h-54l116 186c-22 -24 -53 -36 -94 -36c-81 0 -139 59 -139 159c0 105 62 159 162 159s162 -54 162 -157c0 -49 -18 -98 -54 -147zM298 601c0 83 -41 120 -106 120c-61 0 -106 -39 -106 -119c0 -81 44 -122 104 -122c64 0 108 53 108 121z" />
    <glyph glyph-name="zeroinferior" unicode="&#x2080;" horiz-adv-x="443" 
d="M41 31c0 69 16 125 49 169c33 45 77 67 132 67c53 0 97 -22 130 -67c34 -44 51 -100 51 -169s-17 -126 -51 -171c-33 -45 -77 -67 -130 -67c-55 0 -99 22 -132 67c-33 44 -49 101 -49 171zM96 31c0 -117 50 -197 126 -197s127 81 127 197c0 57 -12 104 -35 140
c-23 37 -54 55 -92 55c-76 0 -126 -79 -126 -195z" />
    <glyph glyph-name="oneinferior" unicode="&#x2081;" horiz-adv-x="248" 
d="M111 207l-42 -34l-31 31l73 57h52v-461h-52v407z" />
    <glyph glyph-name="twoinferior" unicode="&#x2082;" horiz-adv-x="392" 
d="M286 144c0 59 -41 84 -100 84c-57 0 -100 -26 -100 -83h-48c4 87 65 123 150 123s150 -36 150 -124c0 -43 -25 -90 -75 -140l-153 -164h237v-40h-305v40l175 184c46 47 69 87 69 120z" />
    <glyph glyph-name="threeinferior" unicode="&#x2083;" horiz-adv-x="348" 
d="M163 -207c-87 0 -139 34 -156 101l47 7c16 -45 52 -67 107 -67c67 0 111 35 111 102c0 65 -45 104 -108 104h-29l-9 37h30c56 0 88 35 88 78c0 41 -29 75 -81 75c-38 0 -65 -16 -81 -47l-45 10c18 49 61 74 128 74c79 0 127 -43 127 -108c0 -51 -28 -88 -79 -95
c61 -8 110 -50 110 -133c0 -92 -71 -138 -160 -138z" />
    <glyph glyph-name="fourinferior" unicode="&#x2084;" horiz-adv-x="397" 
d="M168 202l-95 -264h174v323h49v-323h57v-39h-57v-99h-49v99h-223v39l97 264h47z" />
    <glyph glyph-name="fiveinferior" unicode="&#x2085;" horiz-adv-x="361" 
d="M297 222h-152l-25 -124c130 0 195 -52 195 -157c0 -96 -68 -148 -179 -148c-41 0 -82 8 -121 23l18 35c31 -12 65 -18 104 -18c80 0 126 40 126 108c0 41 -14 71 -43 90c-29 20 -82 30 -160 30l43 201h204z" />
    <glyph glyph-name="sixinferior" unicode="&#x2086;" horiz-adv-x="385" 
d="M184 261h54l-117 -185c23 23 55 35 95 35c81 0 138 -58 138 -158c0 -105 -62 -160 -162 -160s-162 54 -162 158c0 49 18 98 54 147zM86 -47c0 -81 42 -120 107 -120c61 0 105 40 105 120s-43 121 -103 121c-65 0 -109 -53 -109 -121z" />
    <glyph glyph-name="seveninferior" unicode="&#x2087;" horiz-adv-x="359" 
d="M55 -200l224 419h-226l-9 42h288v-42l-222 -419h-55z" />
    <glyph glyph-name="eightinferior" unicode="&#x2088;" horiz-adv-x="430" 
d="M80 159c0 68 53 109 134 109c83 0 135 -41 135 -110c0 -55 -34 -86 -75 -94c67 -13 111 -58 111 -131c0 -89 -64 -140 -171 -140c-105 0 -169 51 -169 140c0 72 42 118 109 131c-39 8 -74 39 -74 95zM97 -67c0 -69 49 -106 117 -106c69 0 119 37 119 106
s-50 108 -119 108c-68 0 -117 -37 -117 -108zM214 82c49 0 85 25 85 76s-36 75 -84 75s-86 -24 -86 -75s37 -76 85 -76z" />
    <glyph glyph-name="nineinferior" unicode="&#x2089;" horiz-adv-x="385" 
d="M201 -207h-54l116 186c-22 -24 -53 -36 -94 -36c-81 0 -139 59 -139 159c0 105 62 159 162 159s162 -54 162 -157c0 -49 -18 -98 -54 -147zM298 101c0 83 -41 120 -106 120c-61 0 -106 -39 -106 -119c0 -81 44 -122 104 -122c64 0 108 53 108 121z" />
    <glyph glyph-name="Euro" unicode="&#x20ac;" horiz-adv-x="841" 
d="M228 368v-18c0 -23 3 -46 8 -71h348c7 0 9 -2 6 -7l-16 -22c-1 -3 -5 -5 -10 -5h-318c22 -60 59 -109 111 -146c53 -37 112 -56 177 -56c57 0 113 12 166 37c8 4 12 2 12 -3v-37c0 -5 -3 -9 -9 -12c-59 -25 -115 -38 -169 -38c-81 0 -154 24 -217 71
c-63 48 -106 109 -129 184h-122c-8 0 -14 2 -10 7l15 22c3 3 7 5 12 5h97c-5 21 -7 45 -7 71v18h-108c-9 0 -11 3 -8 8l13 18c3 5 8 8 15 8h91c13 87 53 161 120 220c68 59 147 89 238 89c65 0 119 -13 163 -38c10 -6 15 -12 15 -17v-32c0 -10 -3 -9 -16 -3
c-29 14 -54 24 -77 29c-22 6 -50 9 -85 9c-75 0 -141 -25 -198 -74s-91 -110 -104 -183h428c7 0 9 -3 6 -8l-16 -21c-1 -3 -5 -5 -10 -5h-412z" />
    <glyph glyph-name="trademark" unicode="&#x2122;" horiz-adv-x="951" 
d="M626 315h-25c-4 0 -6 2 -7 5l-110 305c-1 4 -3 4 -4 1l-70 -305c-1 -4 -3 -6 -4 -6h-33c-3 0 -5 2 -4 6l85 373c1 4 3 6 6 6h31c5 0 8 -2 9 -7l111 -313c1 -4 3 -4 4 -1l110 315c1 4 4 6 9 6h30c3 0 5 -2 6 -5l86 -376c0 -3 -1 -4 -3 -4h-33c-3 0 -4 1 -5 4l-72 310
c0 3 -1 3 -3 -2l-109 -306c-1 -4 -2 -6 -5 -6zM250 316h-32c-3 0 -5 2 -5 6v339c0 2 -1 3 -3 3h-112c-5 0 -8 2 -8 6v24c0 4 2 6 6 6h275c5 0 8 -2 8 -7v-22c0 -5 -2 -7 -7 -7h-114c-2 0 -3 -1 -3 -3v-338c0 -5 -2 -7 -5 -7z" />
    <glyph glyph-name="onethird" unicode="&#x2153;" horiz-adv-x="900" 
d="M592 721l-319 -766h-57l320 766h56zM95 619l-19 18c-3 1 -3 9 2 12l59 47c3 3 7 4 12 4h35c7 0 11 -4 11 -13v-434c0 -9 -3 -14 -10 -14h-32c-7 0 -10 4 -10 11v390c0 4 -2 4 -6 1l-30 -24c-4 -3 -8 -2 -12 2zM671 -7c-83 0 -134 31 -155 92c-1 6 1 9 6 10l32 5
c5 1 9 0 11 -5c17 -41 53 -61 106 -61c65 0 108 35 108 102c0 65 -45 104 -108 104h-22c-5 0 -7 2 -8 6l-6 25c-2 4 0 6 6 6h22c57 0 88 34 88 78c0 41 -29 75 -81 75c-35 0 -60 -13 -77 -39c-3 -5 -6 -7 -11 -6l-30 6c-7 1 -8 5 -4 10c23 44 64 66 124 66
c79 0 127 -41 127 -108c0 -49 -26 -87 -75 -95c-1 -1 -1 -1 1 -2c59 -9 105 -51 105 -130c0 -93 -70 -139 -159 -139z" />
    <glyph glyph-name="twothirds" unicode="&#x2154;" horiz-adv-x="1017" 
d="M719 721l-320 -766h-57l320 766h57zM320 581c0 59 -41 86 -100 86c-52 0 -94 -21 -98 -73c-1 -7 -3 -10 -6 -10h-38c-5 0 -6 3 -5 8c8 77 58 115 149 115c85 0 150 -36 150 -124c0 -43 -25 -90 -75 -140l-148 -159c-3 -3 -4 -5 -1 -5h226c5 0 7 -2 7 -7v-27
c0 -4 -2 -6 -7 -6h-293c-3 0 -5 2 -5 6v29c0 3 2 7 6 11l169 178c46 47 69 87 69 118zM789 -7c-83 0 -134 31 -155 92c-1 6 1 9 6 10l32 5c5 1 9 0 11 -5c17 -41 53 -61 106 -61c65 0 108 35 108 102c0 65 -45 104 -108 104h-22c-5 0 -7 2 -8 6l-6 25c-2 4 0 6 6 6h22
c57 0 88 34 88 78c0 41 -29 75 -81 75c-35 0 -60 -13 -77 -39c-3 -5 -6 -7 -11 -6l-30 6c-7 1 -8 5 -4 10c23 44 64 66 124 66c79 0 127 -41 127 -108c0 -49 -26 -87 -75 -95c-1 -1 -1 -1 1 -2c59 -9 105 -51 105 -130c0 -93 -70 -139 -159 -139z" />
    <glyph glyph-name="oneeighth" unicode="&#x215b;" horiz-adv-x="961" 
d="M600 721l-319 -766h-57l319 766h57zM95 619l-19 18c-3 1 -3 9 2 12l59 47c3 3 7 4 12 4h35c7 0 11 -4 11 -13v-434c0 -9 -3 -14 -10 -14h-32c-7 0 -10 4 -10 11v390c0 4 -2 4 -6 1l-30 -24c-4 -3 -8 -2 -12 2zM587 359c0 68 53 109 134 109c83 0 135 -41 135 -110
c0 -55 -34 -86 -75 -94c67 -13 111 -58 111 -131c0 -89 -64 -140 -171 -140c-105 0 -169 51 -169 140c0 72 42 118 109 131c-39 8 -74 39 -74 95zM604 133c0 -69 49 -106 117 -106c69 0 119 37 119 106s-50 108 -119 108c-68 0 -117 -37 -117 -108zM721 282
c49 0 85 25 85 76s-36 75 -84 75s-86 -24 -86 -75s37 -76 85 -76z" />
    <glyph glyph-name="threeeighths" unicode="&#x215c;" horiz-adv-x="1025" 
d="M724 721l-320 -766h-57l320 766h57zM230 228c-83 0 -134 31 -155 92c-1 6 1 9 6 10l32 5c5 1 9 0 11 -5c17 -41 53 -61 106 -61c65 0 108 37 108 102s-45 104 -108 104h-22c-5 0 -7 2 -8 6l-6 25c-2 4 0 6 6 6h22c56 0 88 35 88 78c0 41 -29 75 -81 75
c-35 0 -60 -13 -77 -39c-3 -5 -6 -7 -11 -6l-30 6c-7 1 -8 5 -4 10c23 44 64 66 124 66c79 0 127 -41 127 -108c0 -49 -26 -87 -75 -95c-1 -1 0 -1 1 -2c59 -9 105 -51 105 -130c0 -93 -70 -139 -159 -139zM677 353c0 68 53 109 134 109c83 0 135 -41 135 -110
c0 -55 -34 -86 -75 -94c67 -13 111 -58 111 -131c0 -89 -64 -140 -171 -140c-105 0 -169 51 -169 140c0 72 42 118 109 131c-39 8 -74 39 -74 95zM694 127c0 -69 49 -106 117 -106c69 0 119 37 119 106s-50 108 -119 108c-68 0 -117 -37 -117 -108zM811 276
c49 0 85 25 85 76s-36 75 -84 75s-86 -24 -86 -75s37 -76 85 -76z" />
    <glyph glyph-name="fiveeighths" unicode="&#x215d;" horiz-adv-x="1101" 
d="M732 721l-320 -766h-57l320 766h57zM352 661h-152l-25 -124c130 0 195 -52 195 -157c0 -96 -68 -148 -179 -148c-41 0 -82 8 -121 23l18 35c31 -12 65 -18 104 -18c80 0 126 40 126 108c0 41 -14 71 -43 90c-29 20 -82 30 -160 30l43 201h204zM726 359
c0 68 53 109 134 109c83 0 135 -41 135 -110c0 -55 -34 -86 -75 -94c67 -13 111 -58 111 -131c0 -89 -64 -140 -171 -140c-105 0 -169 51 -169 140c0 72 42 118 109 131c-39 8 -74 39 -74 95zM743 133c0 -69 49 -106 117 -106c69 0 119 37 119 106s-50 108 -119 108
c-68 0 -117 -37 -117 -108zM860 282c49 0 85 25 85 76s-36 75 -84 75s-86 -24 -86 -75s37 -76 85 -76z" />
    <glyph glyph-name="seveneighths" unicode="&#x215e;" horiz-adv-x="972" 
d="M604 721l-320 -766h-57l319 766h58zM77 240l224 419h-226l-9 42h288v-42l-222 -419h-55zM601 364c0 68 53 109 134 109c83 0 135 -41 135 -110c0 -55 -34 -86 -75 -94c67 -13 111 -58 111 -131c0 -89 -64 -140 -171 -140c-105 0 -169 51 -169 140c0 72 42 118 109 131
c-39 8 -74 39 -74 95zM735 32c69 0 119 37 119 106s-50 108 -119 108c-68 0 -117 -39 -117 -108s49 -106 117 -106zM735 287c49 0 85 25 85 76s-36 75 -84 75s-86 -24 -86 -75s37 -76 85 -76z" />
    <glyph glyph-name="minus" unicode="&#x2212;" horiz-adv-x="300" 
d="M250 233h-201c-7 0 -10 3 -10 8v30c0 7 3 10 10 10h204c5 0 8 -3 8 -9v-32c0 -5 -4 -7 -11 -7z" />
    <glyph glyph-name="approxequal" unicode="&#x2248;" horiz-adv-x="412" 
d="M257 247c-20 0 -40 7 -61 20c-20 14 -38 21 -53 21c-23 0 -42 -12 -56 -37l-34 15c20 44 59 67 96 67c17 0 35 -7 55 -21s39 -21 56 -21c24 0 44 12 59 36l32 -14c-16 -45 -55 -66 -94 -66zM257 145c-20 0 -40 7 -61 20c-20 14 -38 21 -54 21c-23 0 -41 -12 -55 -35
l-34 14c21 45 53 67 97 67c17 0 35 -7 54 -21c20 -13 39 -20 56 -20c26 0 46 11 59 34l34 -13c-17 -45 -57 -67 -96 -67z" />
    <glyph glyph-name="notequal" unicode="&#x2260;" horiz-adv-x="546" 
d="M478 669l-129 -291h175v-44h-194l-64 -143h258v-46h-276l-122 -277l-49 7l118 270h-169v46h188l64 143h-251v44h267l133 300z" />
    <glyph glyph-name="lessequal" unicode="&#x2264;" horiz-adv-x="486" 
d="M437 -20h-398c-7 0 -11 3 -11 9v31c0 5 3 7 9 7h396c9 0 13 -3 13 -8v-30c0 -8 -1 -9 -9 -9zM450 488v-37c0 -5 -2 -8 -5 -9l-342 -156c-3 -1 -4 -3 -1 -5l342 -155c4 -1 6 -4 6 -9v-34c0 -5 -2 -7 -7 -6l-403 183c-3 1 -5 4 -5 8v30c0 5 2 9 6 10l402 184c5 2 7 1 7 -4z
" />
    <glyph glyph-name="greaterequal" unicode="&#x2265;" horiz-adv-x="489" 
d="M41 -2v46h414v-46h-414zM41 83v38c0 5 2 8 6 9l340 155c3 1 3 3 0 4l-341 155c-3 1 -5 4 -5 8v37c0 5 2 6 7 5l403 -182c4 -3 6 -6 6 -9v-32c0 -5 -2 -8 -5 -9l-404 -184c-5 -1 -7 0 -7 5z" />
    <glyph glyph-name="commaaccent" unicode="&#xf6c3;" horiz-adv-x="122" 
d="M53 -182h-28c-7 0 -8 4 -5 13l42 127c3 7 7 11 13 11h36c7 0 9 -5 4 -16l-51 -125c-3 -7 -6 -10 -11 -10z" />
    <glyph glyph-name="zerooldstyle" unicode="&#xf730;" horiz-adv-x="554" 
d="M278 553c68 0 123 -26 164 -79c41 -52 62 -119 62 -202c0 -82 -21 -149 -62 -201s-96 -78 -164 -78c-69 0 -124 26 -166 77c-41 52 -62 119 -62 202s21 150 62 202c42 53 97 79 166 79zM110 272c0 -67 15 -121 46 -164c31 -42 72 -63 122 -63s90 21 120 63
c31 43 46 97 46 164s-15 122 -46 165c-30 43 -70 64 -120 64s-91 -21 -122 -64s-46 -98 -46 -165z" />
    <glyph glyph-name="oneoldstyle" unicode="&#xf731;" horiz-adv-x="318" 
d="M72 439l1 43c0 7 2 11 7 13l68 54c3 2 5 3 8 3h35c6 0 9 -3 9 -9v-535c0 -5 -3 -8 -9 -8h-39c-6 0 -9 3 -9 10v471c0 2 -1 2 -2 1l-61 -45c-5 -4 -8 -3 -8 2z" />
    <glyph glyph-name="twooldstyle" unicode="&#xf732;" horiz-adv-x="483" 
d="M357 395c0 73 -51 105 -126 105c-62 0 -113 -13 -153 -40c-7 -5 -11 -4 -11 3v42c0 3 2 6 5 8c44 26 100 39 167 39c50 0 92 -12 126 -35c35 -23 52 -60 52 -111c0 -65 -34 -125 -102 -181l-177 -168c-3 -3 -3 -4 -1 -4h279c6 0 9 -2 9 -7v-38c0 -5 -3 -8 -9 -8h-351
c-5 0 -8 1 -8 3l1 45c0 5 2 9 6 13l206 192c58 54 87 101 87 142z" />
    <glyph glyph-name="threeoldstyle" unicode="&#xf733;" horiz-adv-x="507" 
d="M225 -119c-64 0 -124 15 -180 45c-5 3 -8 7 -8 12v40c0 7 4 8 13 4c56 -33 115 -50 176 -50c91 0 157 53 157 148c0 96 -66 151 -161 151h-45c-3 0 -5 2 -5 7l-3 37c-1 5 3 7 8 7h41c79 0 124 50 124 113c0 60 -44 106 -124 106c-51 0 -99 -16 -142 -49c-1 -1 -4 -1 -7 0
l-1 40c0 7 2 11 6 13c48 31 99 47 152 47c107 0 172 -60 172 -151c0 -68 -40 -122 -105 -135c-3 -1 -1 -2 2 -2c80 -12 146 -76 146 -188c0 -65 -21 -113 -62 -146s-93 -49 -154 -49z" />
    <glyph glyph-name="fouroldstyle" unicode="&#xf734;" horiz-adv-x="485" 
d="M94 53h225c3 0 4 2 4 5v154c0 6 2 9 6 9h44c5 0 7 -2 7 -7v-157c0 -3 1 -4 3 -4h67c3 0 4 -2 4 -7v-41c0 -3 -1 -4 -2 -4h-69c-2 0 -3 -2 -3 -5v-100c0 -5 -2 -7 -6 -7h-45c-4 0 -6 2 -6 7v100c0 3 -2 5 -5 5h-284c-5 0 -8 2 -8 6v41c0 2 2 6 5 13l290 492
c4 7 8 10 12 10h51c5 0 6 -3 2 -10l-294 -495c-2 -3 -1 -5 2 -5z" />
    <glyph glyph-name="fiveoldstyle" unicode="&#xf735;" horiz-adv-x="488" 
d="M185 489l-33 -165c-1 -4 0 -4 7 -4c191 -1 267 -80 267 -216c0 -145 -85 -214 -205 -214c-64 0 -125 14 -182 42c-4 2 -6 6 -6 11v45c0 3 3 3 8 0c53 -31 110 -46 173 -46c91 0 155 49 155 161c0 107 -61 166 -229 166h-45c-7 0 -9 4 -8 11l53 264c1 5 4 7 9 7h252
c5 0 8 -2 8 -7v-41c0 -5 -2 -7 -7 -7h-210c-4 0 -6 -2 -7 -7z" />
    <glyph glyph-name="sixoldstyle" unicode="&#xf736;" horiz-adv-x="568" 
d="M474 613v-41c0 -5 -3 -5 -10 -1c-33 26 -78 39 -135 39c-107 0 -168 -78 -192 -191c-7 -35 -11 -69 -12 -104c0 -2 0 -3 1 -4s2 0 3 1c37 71 108 104 181 101c52 -2 97 -21 134 -58s56 -87 56 -151c0 -69 -21 -122 -64 -160c-42 -37 -92 -56 -151 -56
c-132 0 -217 80 -217 255c0 77 5 141 26 220c31 114 98 195 230 199c65 0 113 -12 143 -37c5 -3 7 -7 7 -12zM124 202c0 -51 16 -92 48 -121s70 -43 114 -43c43 0 80 15 112 44c33 29 49 70 49 121c0 52 -16 92 -48 119c-31 28 -69 42 -112 42c-42 0 -80 -15 -113 -45
s-50 -69 -50 -117z" />
    <glyph glyph-name="sevenoldstyle" unicode="&#xf737;" horiz-adv-x="523" 
d="M390 497h-326c-6 0 -9 3 -9 8v38c0 5 3 8 9 8h383c7 0 10 -3 10 -9v-37c0 -4 -5 -13 -5 -14l-308 -587c-2 -3 -5 -5 -9 -5h-47c-7 0 -9 2 -6 6l309 587c3 3 2 5 -1 5z" />
    <glyph glyph-name="eightoldstyle" unicode="&#xf738;" horiz-adv-x="558" 
d="M53 192c0 79 49 149 125 182c-51 28 -83 78 -83 134c0 43 18 79 53 109c36 30 79 45 130 45s95 -15 132 -45s55 -66 55 -109c0 -56 -34 -105 -86 -134c75 -33 126 -105 126 -182c0 -56 -22 -104 -67 -143c-44 -39 -97 -58 -159 -58c-63 0 -116 19 -160 58s-66 87 -66 143
zM106 192c0 -41 17 -77 50 -106c34 -29 75 -44 123 -44c47 0 88 15 121 44c34 29 51 65 51 106c0 42 -17 78 -51 107c-33 30 -74 45 -121 45c-48 0 -89 -15 -123 -45c-33 -29 -50 -65 -50 -107zM147 508c0 -61 56 -109 125 -112h11c36 1 66 13 91 34s38 47 38 78
c0 29 -13 53 -40 74c-26 21 -57 31 -94 31c-36 0 -67 -10 -93 -31c-25 -21 -38 -45 -38 -74z" />
    <glyph glyph-name="nineoldstyle" unicode="&#xf739;" horiz-adv-x="558" 
d="M93 -64v38c0 6 2 7 7 3c39 -32 88 -48 147 -48c75 0 128 42 158 126c19 49 28 105 29 170c0 8 -2 8 -5 1c-36 -71 -105 -102 -177 -99c-51 2 -94 21 -131 58s-55 87 -55 150c0 69 21 123 63 160c43 37 93 56 152 56c124 0 211 -90 211 -255c0 -284 -73 -416 -242 -416
c-65 0 -115 15 -152 44c-3 3 -5 7 -5 12zM435 338c0 50 -15 89 -46 117c-31 29 -67 43 -109 43c-43 0 -80 -14 -111 -43s-47 -68 -47 -118c0 -52 15 -92 45 -120s66 -42 109 -42c42 0 79 15 111 45c32 31 48 70 48 118z" />
    <glyph glyph-name="ffi" unicode="&#xfb03;" horiz-adv-x="961" 
d="M867 454v-445c0 -6 -3 -9 -8 -9h-37c-6 0 -9 3 -9 8v408h-258c-8 0 -8 -2 -8 -10v-397c0 -6 -2 -9 -7 -9h-40c-5 0 -7 3 -7 10v399c0 7 0 7 -7 7h-260c-8 0 -8 -2 -8 -10v-397c0 -6 -3 -9 -8 -9h-39c-5 0 -7 3 -7 10v399c0 5 -3 7 -8 7h-113c-6 0 -9 3 -9 8v33
c0 5 3 8 8 8h114c8 0 8 0 8 7v110c0 121 37 168 128 168c33 0 61 -6 85 -19c5 -3 8 -7 8 -12v-33c0 -6 -5 -8 -9 -4c-20 12 -45 18 -75 18c-63 0 -83 -34 -83 -119v-107c0 -8 0 -9 7 -9h261c7 0 7 0 7 7v110c0 121 38 168 129 168c32 0 60 -6 84 -19c5 -3 8 -7 8 -12v-33
c0 -6 -3 -7 -9 -4c-19 12 -44 18 -75 18c-63 0 -83 -34 -83 -119v-107c0 -6 2 -9 7 -9h304c6 0 9 -4 9 -11zM881 644c4 -52 -87 -52 -81 0c0 23 16 41 40 41s41 -18 41 -41z" />
    <glyph glyph-name="D.art" 
d="M223 -10c-41 0 -78 3 -111 9c-6 1 -9 6 -9 14v672c0 8 2 13 7 14c32 7 71 11 117 11c105 0 183 -33 232 -98c50 -65 75 -153 75 -263c0 -71 -10 -132 -29 -184c-39 -104 -135 -175 -282 -175zM163 647v-598c0 -3 2 -4 5 -5c15 -3 37 -4 66 -4c164 0 238 116 238 309
c0 195 -75 311 -236 311c-29 0 -51 -2 -67 -5c-4 -1 -6 -4 -6 -8z" />
    <glyph glyph-name="M.flat" horiz-adv-x="880" 
d="M771 0h-38c-7 0 -7 0 -7 7v600c0 4 -1 4 -4 1l-275 -387c-4 -6 -8 -7 -12 -2l-274 381c-4 5 -6 4 -6 -2v-590c0 -5 -2 -8 -7 -8h-38c-5 0 -7 3 -7 8v683c0 6 3 9 9 9h39c5 0 8 -2 11 -7l277 -390c1 -1 3 -1 4 0l275 390c3 5 7 7 13 7h38c5 0 8 -2 8 -7v-685
c0 -5 -2 -8 -6 -8z" />
    <glyph glyph-name="X.art" horiz-adv-x="601" 
d="M309 415l140 278c2 5 5 7 9 7h51c6 0 7 -2 4 -7l-170 -326c-1 -3 -2 -5 -1 -6l183 -354c2 -5 1 -7 -3 -7h-51c-4 0 -7 2 -10 7l-151 304c-2 4 -4 4 -6 -1l-153 -304c-3 -4 -5 -6 -7 -6h-51c-6 0 -7 4 -3 11l181 349c1 3 1 5 1 6l-174 329c-1 3 0 5 5 5h52c3 0 6 -2 7 -5
l142 -278c1 -4 3 -5 5 -2z" />
    <glyph glyph-name="middot.001" horiz-adv-x="288" 
d="M152 289c50 3 50 -79 0 -75c-51 -4 -51 78 0 75z" />
    <glyph glyph-name="A.med" horiz-adv-x="537" 
d="M271 575l-171 -568c-1 -5 -3 -7 -8 -7h-47c-5 0 -7 3 -5 8l229 688c2 8 5 8 9 -1l225 -687c2 -5 0 -8 -6 -8h-43c-5 0 -8 3 -10 8l-169 566c-2 5 -3 6 -4 1z" />
    <glyph glyph-name="B.med" horiz-adv-x="532" 
d="M367 594c0 -45 -23 -94 -59 -107c-1 -1 -1 -2 0 -3c55 -11 97 -38 124 -83c28 -45 42 -98 42 -159c0 -73 -20 -133 -60 -181c-39 -47 -100 -71 -182 -71c-43 0 -83 3 -120 10c-6 1 -9 4 -9 11v680c0 6 3 9 9 10c40 6 75 9 104 9c100 0 151 -45 151 -116zM159 441v-390
c0 -5 2 -7 6 -8c21 -3 43 -5 68 -5c121 0 181 85 181 205s-58 204 -173 204h-75c-5 0 -7 -2 -7 -6zM165 495h62c56 0 91 41 91 90c0 52 -37 85 -100 85c-15 0 -32 -2 -52 -5c-5 -1 -7 -2 -7 -4v-162c0 -3 2 -4 6 -4z" />
    <glyph glyph-name="E.med" horiz-adv-x="484" 
d="M102 10v683c0 5 3 7 9 7h294c4 0 6 -2 6 -7v-34c0 -5 -2 -8 -7 -8h-241c-3 0 -4 -1 -4 -3v-385c0 -3 1 -5 4 -5h207c5 0 8 -3 8 -8v-33c0 -5 -2 -8 -6 -8h-209c-3 0 -4 -1 -4 -4v-153c0 -2 2 -3 5 -3h239c5 0 8 -3 8 -8v-34c0 -5 -3 -7 -8 -7h-292c-6 0 -9 3 -9 10z" />
    <glyph glyph-name="F.med" horiz-adv-x="427" 
d="M104 9v680c0 7 3 11 9 11h267c7 0 11 -3 11 -10v-28c0 -7 -3 -10 -10 -10h-217c-2 0 -3 -2 -3 -6v-391c0 -4 1 -6 4 -6h179c7 0 11 -3 11 -8v-33c0 -5 -4 -8 -11 -8h-179c-3 0 -4 -2 -4 -5v-186c0 -6 -3 -9 -8 -9h-43c-4 0 -6 3 -6 9z" />
    <glyph glyph-name="G.med" horiz-adv-x="767" 
d="M120 350c0 -85 29 -157 88 -217s131 -90 215 -90c48 0 89 5 122 14c14 3 25 7 34 10c11 5 22 10 35 17v-3l2 1l5 3v107c0 5 -2 7 -6 7h-159c-7 0 -11 3 -11 8v30c0 4 3 6 9 6h216c5 0 7 -3 7 -8v-169c0 -11 -4 -17 -11 -20c-53 -31 -123 -49 -210 -55c-5 0 -16 -1 -20 -1
h-13c-101 0 -186 34 -256 103c-69 69 -104 155 -104 257s35 188 104 257c70 69 155 104 255 104c92 0 170 -20 233 -59c5 -3 8 -7 8 -13v-38c0 -5 -3 -6 -9 -2c-68 40 -145 60 -232 60c-86 0 -158 -30 -216 -90c-57 -60 -86 -133 -86 -219z" />
    <glyph glyph-name="H.med" horiz-adv-x="640" 
d="M152 0h-45c-3 0 -5 3 -5 9v684c0 5 2 7 7 7h43c5 0 7 -3 7 -9v-437c0 -3 1 -5 3 -5h316c3 0 4 1 4 4v440c0 5 2 7 7 7h44c4 0 6 -2 6 -7v-686c0 -5 -3 -7 -8 -7h-43c-4 0 -6 3 -6 8v186c0 3 -2 5 -5 5h-314c-3 0 -4 -2 -4 -5v-185c0 -6 -2 -9 -7 -9z" />
    <glyph glyph-name="P.med" horiz-adv-x="544" 
d="M221 710c85 0 152 -24 199 -71s71 -110 71 -187s-23 -139 -69 -186c-46 -46 -110 -69 -192 -69c-25 0 -48 1 -67 4c-4 1 -4 -2 -4 -7v-187c0 -5 -2 -7 -7 -7h-43c-5 0 -7 2 -7 7v676c0 9 3 15 9 16c38 7 75 11 110 11zM159 649v-394c0 -2 2 -3 6 -4c17 -3 37 -5 61 -5
c65 0 115 19 152 58s55 89 55 149c0 61 -18 111 -55 150c-36 39 -86 59 -151 59c-21 0 -42 -2 -65 -7c-2 -1 -3 -3 -3 -6z" />
    <glyph glyph-name="R.med" horiz-adv-x="563" 
d="M220 710c85 0 152 -24 199 -71s71 -110 71 -187c0 -99 -36 -170 -107 -215l120 -227c2 -7 0 -10 -5 -10h-43c-5 0 -9 3 -12 8l-108 206c-32 -11 -67 -17 -106 -17c-25 0 -48 1 -67 4c-4 1 -4 -2 -4 -7v-187c0 -5 -2 -7 -7 -7h-43c-5 0 -7 2 -7 7v676c0 9 3 15 9 16
c38 7 75 11 110 11zM158 649v-394c0 -2 2 -3 6 -4c17 -3 37 -5 61 -5c65 0 115 19 152 58s55 89 55 149c0 61 -18 111 -55 150c-36 39 -86 59 -151 59c-21 0 -42 -2 -65 -7c-2 -1 -3 -3 -3 -6z" />
    <glyph glyph-name="N.med" horiz-adv-x="718" 
d="M158 595v-586c0 -6 -3 -9 -8 -9h-43c-3 0 -5 3 -5 8v697c0 8 7 7 12 3l440 -362c4 -4 6 -4 6 0v348c0 4 2 6 6 6h45c3 0 5 -2 5 -7v-686c0 -5 -2 -7 -5 -7h-43c-5 0 -8 3 -8 8v257c0 5 -1 8 -4 11l-392 322c-4 3 -6 2 -6 -3z" />
    <glyph glyph-name="A.dec" horiz-adv-x="516" 
d="M0 162v34c0 4 2 6 7 6h73l164 495c2 6 6 6 8 0l226 -689c2 -5 1 -8 -4 -8h-44c-5 0 -9 2 -10 7l-45 150h-255l-45 -150c-1 -5 -4 -7 -8 -7h-47c-5 0 -6 3 -4 9l49 148h-60c-3 0 -5 2 -5 5zM246 572l-112 -370h227l-111 370c-1 3 -2 3 -4 0z" />
    <glyph glyph-name="B.dec" horiz-adv-x="510" 
d="M0 457v35c0 4 2 6 6 6h70c3 0 4 2 4 5v188c0 5 2 8 6 9c49 7 86 10 109 10c99 0 150 -49 150 -122c0 -43 -24 -82 -65 -101c-3 -1 -3 -2 -1 -3c58 -9 101 -37 130 -82s43 -97 43 -157c0 -73 -19 -134 -58 -183c-38 -48 -96 -72 -175 -72c-33 0 -76 4 -131 12
c-5 1 -8 5 -8 12v433c0 3 -1 4 -3 4h-72c-3 0 -5 2 -5 6zM137 447v-395c0 -1 1 -2 4 -5c21 -5 48 -8 79 -8c116 0 173 84 173 207c0 59 -15 108 -44 147s-73 58 -130 58h-77c-3 0 -5 -1 -5 -4zM142 497h55c61 0 99 36 99 87s-38 87 -99 87c-22 0 -41 -2 -56 -5
c-3 -1 -4 -2 -4 -5v-160c0 -3 2 -4 5 -4z" />
    <glyph glyph-name="E.dec" horiz-adv-x="468" 
d="M0 216v33c0 6 2 9 7 9h74c2 0 3 1 3 3v431c0 5 3 8 9 8h296c4 0 6 -2 6 -6v-36c0 -5 -2 -7 -7 -7h-241c-3 0 -4 -1 -4 -4v-384c0 -3 1 -5 4 -5h204c7 0 10 -3 10 -9v-34c0 -4 -2 -6 -7 -6h-206c-3 0 -5 -2 -5 -5v-152c0 -2 2 -3 5 -3h239c5 0 8 -3 8 -8v-34
c0 -5 -3 -7 -8 -7h-293c-7 0 -10 3 -10 10v194c0 3 -2 5 -5 5h-71c-5 0 -8 2 -8 7z" />
    <glyph glyph-name="F.dec" horiz-adv-x="408" 
d="M0 204v38c0 3 2 5 5 5h75c3 0 4 2 4 5v440c0 5 3 8 8 8h273c5 0 7 -2 7 -7v-34c0 -5 -3 -7 -8 -7h-218c-3 0 -4 -1 -4 -4v-397c0 -3 1 -4 4 -4h183c5 0 7 -2 7 -6v-36c0 -5 -2 -7 -6 -7h-185c-2 0 -3 -2 -3 -5v-187c0 -4 -2 -6 -5 -6h-47c-4 0 -6 2 -6 7v188
c0 2 -1 3 -3 3h-75c-4 0 -6 2 -6 6z" />
    <glyph glyph-name="H.dec" horiz-adv-x="623" 
d="M84 253v439c0 5 2 8 7 8h43c5 0 7 -2 7 -7v-440c0 -3 2 -4 5 -4h314c3 0 4 1 4 4v439c0 5 2 8 6 8h45c3 0 5 -2 5 -6v-688c0 -4 -2 -6 -7 -6h-43c-4 0 -6 3 -6 9v185c0 3 -1 4 -4 4h-315c-3 0 -4 -1 -4 -4v-188c0 -4 -2 -6 -5 -6h-46c-4 0 -6 3 -6 8v186c0 3 -1 4 -4 4
h-74c-4 0 -6 2 -6 6v38c0 5 2 7 7 7h73c3 0 4 1 4 4z" />
    <glyph glyph-name="P.dec" horiz-adv-x="526" 
d="M200 710c85 0 150 -24 197 -71s70 -110 70 -187s-23 -138 -69 -185c-46 -46 -109 -69 -190 -69h-68c-2 0 -3 -1 -3 -4v-187c0 -5 -2 -7 -7 -7h-43c-5 0 -7 2 -7 7v191h-73c-5 0 -7 2 -7 7v35c0 4 2 6 6 6h74v444c0 5 2 7 5 8c32 8 70 12 115 12zM137 650v-397
c0 -4 1 -6 4 -6h63c65 0 115 19 151 58s54 89 54 149c0 61 -18 110 -54 149c-35 39 -85 59 -150 59c-27 0 -48 -2 -64 -6c-3 -1 -4 -3 -4 -6z" />
    <glyph glyph-name="R.dec" horiz-adv-x="529" 
d="M200 710c85 0 150 -24 197 -71s70 -110 70 -187c0 -98 -35 -169 -105 -213l120 -228c4 -7 3 -11 -4 -11h-47c-6 0 -10 3 -13 9l-109 204c-30 -10 -64 -15 -101 -15h-68c-2 0 -3 -1 -3 -4v-187c0 -5 -2 -7 -7 -7h-43c-5 0 -7 2 -7 7v191h-73c-5 0 -7 2 -7 7v35
c0 4 2 6 6 6h74v444c0 5 2 7 5 8c32 8 70 12 115 12zM137 650v-397c0 -4 1 -6 4 -6h63c65 0 115 19 151 58s54 89 54 149c0 61 -18 110 -54 149c-35 39 -85 59 -150 59c-27 0 -48 -2 -64 -6c-3 -1 -4 -3 -4 -6z" />
    <glyph glyph-name="i.dot" horiz-adv-x="266" 
d="M131 602l-36 36c-3 3 -4 5 -1 8l37 38c5 5 9 5 12 0l35 -35c3 -3 3 -7 0 -12l-36 -35c-4 -4 -8 -4 -11 0zM164 454v-444c0 -7 -2 -10 -5 -10h-46c-2 1 -3 5 -3 12v442c0 7 2 11 5 11h44c3 0 5 -4 5 -11z" />
    <glyph glyph-name="j.dot" horiz-adv-x="259" 
d="M56 -192c-17 0 -31 2 -42 6c-3 1 -4 3 -4 6v33c0 5 2 6 7 5c8 -3 19 -4 34 -4c41 0 60 28 60 99v503c0 6 2 9 6 9h41c5 0 7 -3 7 -8v-492c0 -111 -30 -157 -109 -157zM127 602l-36 36c-3 3 -4 5 -1 8l37 38c5 5 9 5 12 0l35 -35c3 -3 3 -7 0 -12l-36 -35
c-4 -4 -8 -4 -11 0z" />
    <glyph glyph-name="colon.dot" horiz-adv-x="243" 
d="M122 -9l-36 36c-4 3 -4 7 0 11l37 38c3 3 6 3 8 1l39 -40c4 -2 4 -4 0 -7l-38 -39c-3 -3 -7 -3 -10 0zM122 393l-38 38c-3 3 -2 5 1 7l37 38c3 3 7 3 11 0l35 -34c5 -3 5 -7 1 -11l-38 -38c-3 -3 -6 -3 -9 0z" />
    <glyph glyph-name="semicolon.dot" horiz-adv-x="254" 
d="M86 -119h-28c-3 0 -4 3 -3 9l43 168c2 5 5 7 10 7h46c7 0 8 -3 5 -9l-65 -168c-3 -5 -5 -7 -8 -7zM122 389l-36 36c-3 3 -3 5 0 8l37 38c3 3 7 3 12 0l35 -35c4 -4 4 -8 -1 -12l-36 -35c-3 -5 -7 -5 -11 0z" />
    <glyph glyph-name="period.dot" horiz-adv-x="225" 
d="M144 -86l-36 36c-3 3 -4 5 -1 8l37 37c4 4 8 4 12 1l35 -35c4 -4 4 -8 0 -12l-36 -35c-4 -4 -8 -4 -11 0z" />
    <glyph glyph-name="comma.dot" horiz-adv-x="257" 
d="M94 -133h-32c-3 0 -5 2 -4 7l44 197c3 6 6 9 10 9h55c5 0 7 -3 5 -8l-71 -198c-1 -5 -4 -7 -7 -7z" />
    <glyph glyph-name="s.ce" horiz-adv-x="444" 
d="M238 428c-66 0 -99 -23 -99 -70c-4 -25 15 -44 30 -57c8 -8 36 -19 44 -23l28 -11l27 -10c73 -28 117 -62 117 -133c0 -89 -70 -134 -159 -134c-67 0 -118 14 -154 42c-5 3 -6 7 -4 11l12 30c1 2 4 2 9 1c38 -25 82 -38 133 -38c63 0 110 29 110 88c0 27 -10 45 -34 60
c-24 16 -38 21 -75 34c-41 15 -64 25 -93 45c-29 21 -44 53 -44 93c0 79 50 119 149 119c51 0 97 -13 136 -39c5 -3 7 -7 4 -12l-10 -29c-2 -3 -7 -3 -14 2c-41 21 -79 31 -113 31z" />
    <glyph glyph-name="t.ce" horiz-adv-x="360" 
d="M224 -10c-47 0 -76 13 -89 44s-15 55 -15 106v275c0 4 -2 6 -5 6h-90c-6 0 -9 3 -9 8v28c0 5 3 8 8 8h94c3 0 4 1 5 4l15 130c2 7 5 10 10 10h19c5 0 8 -3 8 -8v-132c0 -3 1 -4 3 -4h105c5 0 8 -3 8 -8v-28c0 -5 -3 -8 -8 -8h-104c-3 0 -4 -2 -4 -5v-280
c0 -73 13 -101 61 -101c23 0 43 5 59 16c5 3 7 3 7 -2v-32c0 -3 -2 -6 -7 -9c-17 -12 -41 -18 -71 -18z" />
    <glyph glyph-name="u.alt" horiz-adv-x="583" 
d="M443 5l-9 55c-43 -47 -99 -70 -170 -70c-121 0 -181 64 -181 192v275c0 5 3 8 8 8h38c5 0 8 -3 8 -8v-269c0 -99 45 -149 136 -149c59 0 112 24 158 72v347c0 5 2 7 7 7h40c5 0 7 -2 7 -7v-451c0 -5 -2 -7 -6 -7h-30c-3 0 -5 2 -6 5z" />
    <glyph glyph-name="v.pt" horiz-adv-x="554" 
d="M272 2l-225 458c-1 3 0 5 5 5h40c3 0 7 -2 10 -6l174 -368c1 -3 3 -3 5 0l175 368c1 4 4 6 9 6h40c5 0 7 -2 5 -7l-227 -457c-3 -6 -6 -6 -11 1z" />
    <glyph glyph-name="w.pt" horiz-adv-x="790" 
d="M235 2l-187 456c-2 5 0 7 5 7h48c5 0 7 -2 8 -5l132 -361c1 -4 3 -4 4 0l147 362c5 11 9 11 12 1l148 -364c1 -3 3 -2 4 1l131 360c1 4 4 6 9 6h47c5 0 7 -3 4 -8l-185 -455c-1 -5 -9 -5 -10 0l-150 361c-1 5 -3 5 -5 0l-152 -361c-4 -8 -8 -6 -10 0z" />
    <glyph glyph-name="y.flat" horiz-adv-x="482" 
d="M466 454l-268 -638c-2 -4 -5 -6 -10 -6h-36c-5 0 -6 2 -5 7l71 172l-195 467c-3 6 -1 9 4 9h43c5 0 8 -3 10 -8l164 -410l164 407c3 7 6 11 11 11h43c6 0 8 -5 4 -11z" />
    <glyph glyph-name="question.dot" horiz-adv-x="508" 
d="M222 -23l-36 36c-3 3 -3 5 0 8l37 37c3 5 7 5 12 1l35 -35c4 -4 4 -8 -1 -12l-36 -35c-3 -4 -7 -4 -11 0zM247 157h-41c-7 0 -8 2 -8 11v17c0 243 181 178 181 364c0 74 -44 111 -131 111c-59 0 -109 -14 -150 -41c-9 -5 -13 -5 -13 2v43c0 3 2 6 5 8
c46 27 101 40 166 40c125 0 182 -59 182 -158c0 -33 -5 -62 -14 -87c-17 -48 -45 -66 -77 -94c-16 -14 -31 -28 -44 -41c-27 -25 -47 -77 -47 -148v-17c0 -7 -3 -10 -9 -10z" />
    <glyph glyph-name="exclam.dot" horiz-adv-x="311" 
d="M187 702v-512c0 -5 -2 -7 -7 -7h-41c-5 0 -8 2 -8 7v511c0 4 2 6 7 6h42c5 0 7 -2 7 -5zM153 -8l-36 35c-2 3 -2 6 0 8l37 38c3 5 7 5 12 0l35 -35c4 -4 4 -8 -1 -11l-36 -35c-3 -5 -7 -5 -11 0z" />
    <glyph glyph-name="F.alt" horiz-adv-x="457" 
d="M103 9v680c0 7 3 11 8 11h275c5 0 7 -2 7 -7v-33c0 -5 -3 -8 -8 -8h-217c-4 0 -6 -1 -6 -4v-262c0 -3 1 -5 4 -5h182c5 0 8 -3 8 -9v-32c0 -5 -3 -7 -8 -7h-182c-3 0 -4 -2 -4 -5v-319c0 -6 -3 -9 -8 -9h-44c-5 0 -7 3 -7 9z" />
    <glyph glyph-name="s.art" horiz-adv-x="415" 
d="M223 435c-45 0 -87 -23 -87 -66c0 -99 220 -126 220 -261c0 -73 -64 -118 -155 -118c-47 0 -94 12 -139 36c-3 3 -4 6 -2 10l11 24c3 4 6 5 10 3c49 -21 88 -32 115 -32c56 0 100 30 100 78c0 109 -218 132 -218 260c0 33 13 60 39 79c27 19 61 29 102 29s80 -11 117 -33
c5 -3 6 -7 3 -10l-13 -25c-3 -3 -8 -3 -13 1c-27 17 -57 25 -90 25z" />
    <glyph glyph-name="S.art" horiz-adv-x="342" 
d="M297 194c0 -64 -26 -113 -77 -146s-109 -50 -176 -50c-7 0 -11 3 -11 8v32c0 2 1 3 2 4c85 0 206 40 206 154c0 53 -30 102 -69 138c-56 54 -127 109 -127 198c0 37 11 69 34 95c45 52 109 72 181 75c7 0 10 -2 10 -6v-31c0 -5 -4 -8 -11 -9c-89 -5 -159 -44 -159 -125
c0 -48 32 -93 69 -129c56 -50 128 -112 128 -208z" />
    <glyph glyph-name="s.alt" horiz-adv-x="434" 
d="M240 435c-60 0 -105 -26 -105 -75c0 -40 37 -65 84 -82c67 -23 153 -54 153 -166c0 -80 -56 -122 -148 -122c-72 0 -124 21 -156 64c-3 4 -3 8 0 11l16 22c3 4 7 4 12 -1c27 -36 68 -54 124 -54c69 0 103 28 103 83c0 53 -37 88 -84 105c-66 27 -153 49 -153 142
c0 73 60 115 149 115c67 0 114 -22 140 -67c3 -5 2 -8 -3 -10l-23 -16c-3 -1 -6 0 -10 5c-23 31 -56 46 -99 46z" />
    <glyph glyph-name="a.ce" horiz-adv-x="536" 
d="M269 430c-41 0 -90 -12 -146 -35c-5 -2 -9 -2 -10 1l-13 28c-1 4 0 7 5 9c65 28 121 42 169 42c123 0 174 -51 174 -170v-297c0 -5 -2 -8 -6 -8h-32c-4 0 -6 2 -7 7l-5 28c-45 -30 -98 -45 -157 -45c-100 0 -160 54 -160 135c0 85 68 136 168 136c54 0 103 -12 146 -35
v81c0 84 -38 123 -126 123zM240 30c61 0 113 15 155 45v110c-39 23 -88 35 -149 35c-64 0 -113 -38 -113 -94s43 -96 107 -96z" />
    <glyph glyph-name="G.art" horiz-adv-x="539" 
d="M445 -8l-21 6v-8c-107 0 -194 34 -261 101c-67 68 -100 154 -100 258c0 105 35 191 104 258c70 67 161 102 274 103c7 0 10 -3 10 -8v-34c0 -5 0 -8 -13 -8c-94 -3 -170 -33 -228 -90s-87 -131 -87 -221c0 -84 25 -155 74 -212c50 -57 116 -89 197 -96v282c0 2 -1 3 -4 3
h-145c-5 0 -8 2 -8 7v29c0 5 3 8 8 8h196c7 0 10 -3 10 -9v-361c0 -4 -2 -9 -6 -8z" />
    <glyph glyph-name="L.art" horiz-adv-x="345" 
d="M159 691v-633c0 -3 1 -4 4 -4h155c6 0 9 -3 9 -8v-39c0 -5 -3 -7 -8 -7h-209c-5 0 -8 3 -8 8v685c0 5 2 7 6 7h43c5 0 8 -3 8 -9z" />
    <glyph glyph-name="f.ce" horiz-adv-x="356" 
d="M246 672c-69 0 -94 -36 -94 -127v-75c0 -3 1 -5 4 -5h106c7 0 10 -2 10 -7v-31c0 -6 -3 -9 -9 -9h-105c-4 0 -6 -2 -6 -5v-400c0 -9 -3 -13 -9 -13h-37c-5 0 -8 4 -8 11v403c0 3 -1 4 -4 4h-66c-5 0 -8 3 -8 9v30c0 5 2 8 7 8h66c3 0 5 2 5 6v74c0 127 41 174 141 174
c27 0 52 -4 73 -13c8 -3 12 -7 11 -12l-7 -31c-1 -3 -5 -4 -13 -2c-20 7 -39 11 -57 11z" />
    <glyph glyph-name="v.alt" horiz-adv-x="543" 
d="M257 34c49 0 88 20 118 61c31 41 46 93 46 155c0 68 -26 136 -77 205c-5 7 -5 10 2 10h38c7 0 12 -2 15 -7c53 -71 79 -141 79 -209c0 -73 -20 -134 -61 -184c-40 -50 -94 -75 -162 -75c-109 0 -166 69 -166 177v290c0 5 2 8 6 8h42c5 0 7 -3 7 -8v-290
c0 -77 40 -133 113 -133z" />
    <glyph glyph-name="w.alt" horiz-adv-x="814" 
d="M544 34c43 0 79 20 106 61s41 93 41 155c0 72 -23 140 -68 203c-6 8 -5 12 2 12h37c7 0 12 -3 16 -10c47 -67 71 -135 71 -206c0 -73 -19 -134 -56 -184s-88 -75 -152 -75c-68 0 -115 32 -140 96c-38 -64 -92 -96 -161 -96c-93 0 -151 68 -151 177v292c0 4 2 6 6 6h44
c5 0 7 -2 7 -7v-291c0 -77 35 -133 100 -133c40 0 73 19 99 58c27 39 41 89 42 149v216c0 5 3 8 8 8h41c5 0 7 -2 7 -7v-291c0 -77 36 -133 101 -133z" />
    <glyph glyph-name="y.alt" horiz-adv-x="524" 
d="M483 455l-261 -639c-2 -4 -5 -6 -8 -6h-37c-5 0 -6 3 -3 10l65 162c1 3 2 7 1 12l-189 463c-3 5 -2 8 5 8h41c5 0 9 -4 12 -11l154 -400c2 -5 4 -4 7 3l156 399c3 6 6 9 10 9h40c7 0 10 -3 7 -10z" />
    <glyph glyph-name="J.ce" horiz-adv-x="259" 
d="M161 688v-749c0 -97 -37 -139 -113 -139c-22 0 -45 3 -69 10c-9 3 -12 7 -10 13l7 26c1 5 6 7 14 5c14 -4 29 -6 45 -6c49 0 69 28 69 95v745c0 8 3 12 8 12h39c7 0 10 -4 10 -12z" />
    <glyph glyph-name="Q.alt" horiz-adv-x="850" 
d="M63 350c0 99 35 184 106 255s157 106 256 106s184 -35 255 -106s107 -156 107 -255c0 -66 -16 -127 -49 -182s-77 -99 -132 -130h34c6 0 11 -2 15 -6l89 -118c5 -7 4 -11 -5 -11h-47c-5 0 -9 3 -12 8l-86 114l-3 5c-51 -27 -107 -40 -166 -40c-100 0 -185 35 -256 105
s-106 155 -106 255zM119 350c0 -85 30 -157 89 -217c60 -60 132 -90 217 -90s157 30 216 90s89 132 89 217s-30 158 -89 218c-59 61 -131 91 -216 91s-157 -30 -217 -91c-59 -60 -89 -133 -89 -218z" />
    <glyph glyph-name="W.flat" horiz-adv-x="966" 
d="M237 14l-201 672c-3 9 -1 14 6 14h46c6 0 10 -4 12 -11l171 -614c2 -8 6 -9 8 -1l172 615c1 7 5 11 11 11h49c5 0 9 -4 11 -13l173 -610c2 -6 6 -6 8 3l170 607c3 11 5 13 13 13h46c7 0 9 -4 7 -11l-204 -677c-2 -8 -6 -12 -13 -12h-48c-5 0 -9 4 -12 13l-170 595
c-3 9 -5 10 -8 5c-1 -1 -1 -1 -1 -2l-170 -597c-3 -9 -7 -14 -14 -14h-48c-7 0 -12 5 -14 14z" />
    <glyph glyph-name="g.alt2" horiz-adv-x="507" 
d="M271 -200c-139 0 -209 40 -209 119c0 46 25 79 74 100c-30 12 -45 33 -45 62c0 33 20 55 60 65c-61 31 -91 83 -91 156c0 104 71 176 192 176c27 0 52 -4 76 -11h132c4 0 6 -3 6 -8v-20c0 -6 -2 -9 -7 -9h-65c35 -33 52 -75 52 -128c0 -104 -71 -177 -194 -177
c-72 0 -108 -13 -108 -40c0 -28 38 -43 115 -44h12c137 0 205 -41 205 -122c0 -79 -68 -119 -205 -119zM252 165c87 0 141 57 141 137s-53 137 -141 137c-85 0 -138 -57 -138 -137s53 -137 138 -137zM271 -161c101 0 152 27 152 80c0 55 -51 82 -152 82
c-108 0 -155 -34 -155 -82s47 -80 155 -80z" />
    <glyph glyph-name="o.opt" 
d="M125 58c-47 45 -71 103 -71 174s24 129 71 174c47 46 106 69 175 69s128 -23 175 -69c47 -45 71 -103 71 -174s-24 -129 -71 -174s-106 -68 -175 -68s-128 23 -175 68zM164 370c-37 -35 -55 -81 -55 -138s18 -103 55 -138s82 -53 136 -53s99 18 136 53s56 81 56 138
s-19 103 -56 138c-37 36 -82 54 -136 54s-99 -18 -136 -54z" />
    <glyph glyph-name="G.bad" horiz-adv-x="776" 
d="M428 -10l6 54c58 0 119 9 184 28c8 2 12 7 12 16v231c0 5 -1 7 -4 7h-155c-9 0 -11 1 -11 8v26c0 7 4 10 11 10h201c10 0 15 -5 15 -16v-295c0 -16 -2 -20 -18 -25c-76 -29 -156 -44 -241 -44zM64 350h62c0 -89 28 -163 83 -220s130 -86 225 -86l-6 -54
c-109 0 -197 33 -264 100s-100 154 -100 260zM107 350h-25c0 101 32 183 95 247c64 64 149 96 254 96c55 0 107 -10 157 -31c6 -2 9 -3 10 -3v-20c0 2 -4 2 -16 7c-45 18 -94 27 -148 27c-99 0 -178 -30 -238 -91c-59 -61 -89 -138 -89 -232z" />
    <glyph glyph-name="G.ce" horiz-adv-x="782" 
d="M125 349c0 -97 28 -172 85 -227c57 -54 133 -81 227 -81c75 0 147 18 216 53v224c0 5 -2 8 -6 8h-156c-7 0 -10 3 -10 8v28c0 5 3 8 9 8h203c13 0 16 -3 16 -18v-285c-83 -51 -174 -77 -273 -77c-113 0 -203 32 -271 96s-102 152 -102 263s34 199 102 264s158 97 269 97
c99 0 183 -25 254 -74c7 -7 10 -12 7 -15l-18 -23c-3 -5 -9 -5 -17 0c-68 41 -143 61 -224 61c-93 0 -169 -27 -226 -82s-85 -131 -85 -228z" />
    <glyph glyph-name="G.003" horiz-adv-x="780" 
d="M424 -8c-101 0 -186 35 -257 105s-106 155 -106 254c0 100 35 185 105 255c71 71 156 106 256 106c64 0 118 -12 163 -37c9 -5 14 -11 14 -17v-33c0 -9 -2 -9 -15 -2c-29 14 -54 24 -77 29c-22 6 -50 9 -85 9c-85 0 -157 -30 -217 -91c-59 -61 -89 -134 -89 -219
s30 -157 91 -217s134 -90 220 -90c63 0 132 15 207 46v229c0 5 -2 7 -7 7h-147c-7 0 -11 3 -11 8v28c0 5 3 8 10 8h194c16 0 18 -3 18 -18v-290c0 -5 -2 -8 -7 -10c-83 -40 -169 -60 -260 -60z" />
    <glyph glyph-name="a.ital" horiz-adv-x="641" 
d="M499 8l-8 48c-44 -44 -98 -66 -161 -66s-118 22 -163 67s-68 104 -68 178s23 132 69 175c47 43 101 65 162 65c63 0 116 -21 157 -62v45c0 5 2 7 7 7h40c5 0 7 -2 7 -6v-453c0 -4 -2 -6 -5 -6h-33c-4 0 -4 4 -4 8zM336 38c63 0 113 24 151 71v249c-38 46 -88 69 -151 69
c-48 0 -91 -18 -128 -54c-37 -35 -55 -81 -55 -138s18 -104 53 -141s79 -56 130 -56z" />
    <glyph glyph-name="c.opt" horiz-adv-x="460" 
d="M94 231c0 -59 19 -107 56 -142s85 -52 142 -52c45 0 84 9 117 28c9 4 13 2 13 -6v-29c0 -7 -4 -12 -12 -15c-35 -17 -76 -26 -123 -26c-71 0 -131 21 -178 64s-70 103 -70 178s23 135 70 178s107 65 178 65c43 0 84 -9 125 -28c7 -3 10 -7 10 -12v-35c-3 -8 -10 -6 -23 2
c-33 17 -69 25 -108 25c-57 0 -105 -18 -142 -53s-55 -82 -55 -142z" />
    <glyph glyph-name="c.ce" horiz-adv-x="518" 
d="M309 37c43 0 82 10 119 31c7 5 13 4 16 -1l14 -23c3 -5 2 -9 -4 -13c-44 -27 -93 -41 -148 -41c-70 0 -129 22 -176 66s-70 102 -70 174c0 73 23 132 70 177s105 68 174 68c60 0 110 -14 150 -43c5 -5 6 -9 4 -13l-16 -21c-3 -5 -7 -5 -14 -2c-34 21 -74 32 -119 32
c-57 0 -104 -19 -141 -56c-36 -37 -54 -85 -54 -142s18 -104 54 -140c37 -35 84 -53 141 -53z" />
    <glyph glyph-name="g.ce" horiz-adv-x="647" 
d="M495 40v19c-46 -46 -103 -69 -172 -69c-67 0 -124 22 -171 67s-71 104 -71 178s24 132 73 175s105 65 169 65c68 0 125 -23 172 -68v42c0 13 2 16 11 16h33c7 0 10 -4 10 -11v-413c0 -86 -22 -148 -66 -186s-101 -57 -172 -57c-64 0 -124 14 -180 41c-9 4 -12 9 -8 16
l8 28c3 5 8 6 16 3c51 -26 104 -39 160 -39c111 0 188 58 188 193zM328 38c70 0 126 26 167 79v232c-39 52 -94 78 -167 78c-51 0 -96 -18 -135 -54c-39 -35 -58 -81 -58 -138s18 -104 55 -141s83 -56 138 -56z" />
    <glyph glyph-name="C.ce" horiz-adv-x="754" 
d="M118 350c0 -85 30 -157 89 -217c60 -60 132 -90 217 -90c80 0 163 36 222 95c8 8 14 10 19 7l27 -21c5 -5 3 -11 -4 -18c-73 -77 -161 -116 -264 -116c-100 0 -185 35 -256 105c-70 70 -105 155 -105 255c0 99 35 184 105 255c71 71 156 106 256 106
c95 0 191 -45 260 -112c5 -6 5 -10 2 -13l-25 -25c-3 -4 -10 -1 -20 8c-59 53 -140 90 -217 90c-85 0 -157 -30 -217 -91c-59 -60 -89 -133 -89 -218z" />
    <glyph glyph-name="c.alt" horiz-adv-x="505" 
d="M106 231c0 -54 18 -100 55 -138c37 -37 84 -56 139 -56c39 0 77 8 112 25c9 5 14 4 14 -3v-30c0 -6 -4 -11 -13 -15c-39 -17 -78 -25 -118 -25c-68 0 -126 23 -173 70s-71 105 -71 172s24 125 71 172s105 71 173 71c45 0 85 -9 122 -27c6 -3 9 -8 9 -13v-33
c0 -7 -4 -8 -12 -4c-33 19 -71 29 -114 29c-55 0 -102 -19 -139 -57c-37 -37 -55 -83 -55 -138z" />
    <glyph glyph-name="nine.002" horiz-adv-x="624" 
d="M94 498c0 59 21 110 64 151s96 62 157 62s113 -21 156 -63c43 -41 65 -91 65 -150v-204c0 -113 -30 -198 -81 -242c-49 -44 -106 -63 -174 -63c-65 0 -121 13 -168 38c-7 5 -11 10 -11 15v30c0 6 4 7 11 3c43 -26 96 -39 161 -39c63 0 114 20 153 59s59 105 59 198v61
c-44 -55 -101 -82 -171 -82c-61 0 -114 22 -157 66s-64 97 -64 160zM144 498c0 -48 17 -90 50 -125c34 -35 74 -53 121 -53c46 0 86 18 120 53s51 77 51 125v1c-1 43 -18 81 -52 114s-74 50 -119 50c-46 0 -86 -17 -120 -50s-51 -71 -51 -115z" />
    <glyph glyph-name="A.flat" horiz-adv-x="643" 
d="M47 16l253 676c2 5 8 8 18 8h18c11 0 18 -3 20 -9l252 -676c5 -12 4 -15 -7 -15h-35c-6 0 -10 3 -13 10l-66 179h-318l-64 -177c-2 -8 -8 -12 -18 -12h-35c-7 0 -9 5 -5 16zM468 241l-140 382l-140 -382h280z" />
    <glyph glyph-name="N.flat" horiz-adv-x="740" 
d="M109 700h48l425 -608v598c0 7 3 10 8 10h39c5 0 8 -3 8 -9v-681c0 -7 -3 -10 -9 -10h-46v1l-425 608v-598c0 -7 -2 -11 -7 -11h-41c-5 0 -7 2 -7 7v684c0 6 2 9 7 9z" />
    <glyph glyph-name="V.flat" horiz-adv-x="609" 
d="M329 0h-42c-5 0 -9 2 -10 5l-245 687c-2 5 0 8 6 8h45c6 0 10 -3 11 -9l210 -608c2 -6 4 -6 7 0l209 608c2 6 6 9 12 9h44c7 0 9 -3 7 -8l-245 -686c-1 -4 -4 -6 -9 -6z" />
    <glyph glyph-name="f.ital" horiz-adv-x="378" 
d="M268 703c-63 0 -83 -36 -83 -125v-108c0 -3 2 -5 5 -5h130c6 0 9 -2 9 -7v-33c0 -5 -3 -7 -8 -7h-132c-3 0 -4 -1 -4 -4v-629c0 -7 -3 -10 -9 -10h-37c-5 0 -8 4 -8 11v628c0 3 -2 4 -5 4h-123c-5 0 -7 2 -7 7v33c0 5 3 7 8 7h124c2 0 3 2 3 6v111c0 123 38 168 135 168
c29 0 54 -6 77 -18c6 -3 9 -8 9 -13v-31c0 -4 -4 -5 -13 -2c-23 11 -46 17 -71 17z" />
    <glyph glyph-name="z.flat" horiz-adv-x="461" 
d="M396 459v-38l-281 -378h286c3 0 4 -2 4 -6v-31c0 -4 -2 -6 -5 -6h-347c-3 0 -4 2 -4 5v38l281 378h-265c-5 0 -7 2 -7 7v31c0 4 2 6 6 6h325c5 0 7 -2 7 -6z" />
    <glyph glyph-name="Z.flat" horiz-adv-x="499" 
d="M471 700v-47l-386 -605h395v-48h-459v48l385 605h-375v47h440z" />
    <glyph glyph-name="R.alt" horiz-adv-x="565" 
d="M222 710c172 0 270 -95 270 -240c0 -91 -35 -158 -105 -199c105 -25 150 -100 150 -228v-43h-58v42c0 136 -57 192 -184 192h-131c-3 -2 -4 -6 -4 -11v-216c0 -5 -2 -7 -7 -7h-43c-5 0 -7 2 -7 7v676c0 9 3 15 9 16c38 7 75 11 110 11zM160 649v-364c0 -3 2 -4 6 -4h71
c124 4 197 82 197 190c0 55 -18 101 -54 137s-87 54 -152 54c-21 0 -42 -2 -65 -7c-2 -1 -3 -3 -3 -6z" />
    <glyph glyph-name="W.flat2" horiz-adv-x="1020" 
d="M738 24l-3 7l-181 539l-180 -538l-5 -15c-3 -13 -6 -19 -9 -19c-3 1 -6 7 -10 19c-1 1 -1 1 -1 2l-228 662c0 7 -11 19 0 19h51c9 0 8 -18 12 -25l177 -543l180 535c6 21 10 31 13 31c2 0 6 -9 12 -28l180 -538l175 536c3 10 7 36 16 32h50c4 0 4 -7 0 -21l-229 -661
c-4 -13 -7 -19 -10 -19c-1 -1 -5 8 -10 25z" />
    <glyph glyph-name="orn.001" horiz-adv-x="1204" 
d="M1183 655c-4 -16 -14 -33 -22 -42l-32 -36c0 -2 1 -3 3 -3c3 0 10 2 13 2c4 0 10 -5 10 -10s-10 -18 -29 -38s-35 -35 -48 -45c11 -5 21 -3 21 -21c0 -9 -26 -31 -78 -67c9 -3 20 -4 20 -10c0 -10 -10 -23 -30 -39c-19 -15 -37 -26 -54 -32c-3 0 -5 -4 -6 -4l2 -3
c7 3 11 5 14 5c5 0 8 -3 8 -10c0 -13 -36 -32 -59 -46c7 -7 10 -12 10 -17c0 -7 -18 -23 -54 -48c-36 -24 -54 -36 -54 -37s5 -10 5 -13c0 -19 -55 -34 -86 -47c-7 0 -12 -2 -17 -6c3 -2 6 -3 9 -3c5 0 29 10 40 10c19 0 37 -8 54 -24c17 -15 26 -33 26 -53
c0 -4 -1 -6 -4 -6c-1 0 -2 0 -3 1c-4 0 -6 -1 -6 -3v-2c0 -20 -2 -30 -6 -30c-1 0 -3 1 -4 2l-3 3l-2 -5c-3 -7 -8 -18 -9 -22c12 4 42 19 57 23c1 -1 1 -2 1 -4c0 -5 -4 -6 -1 -9l39 16l49 18v-4c0 -13 -8 -16 -4 -20c57 14 96 23 119 27c2 0 3 -1 3 -3
c-71 -29 -120 -49 -149 -58c-1 1 -2 3 -2 5c0 3 3 9 3 12c0 2 0 3 -1 4c-52 -26 -78 -40 -78 -42c0 -5 2 -8 6 -8c5 0 16 4 31 12c16 8 26 12 31 12c2 0 3 0 4 -1c0 -1 -2 -9 -7 -24c25 6 63 14 115 24c-17 -9 -43 -19 -78 -30l-68 -24c4 7 5 19 7 27
c-27 -11 -27 -11 -34 -31c32 0 48 -1 48 -4c0 -4 -7 -12 -7 -19c68 9 116 13 145 13c-104 -22 -168 -37 -192 -44l20 31c-10 1 -24 3 -41 4c-33 3 -50 4 -50 7c0 6 4 13 13 22c-5 1 -10 2 -13 2c-23 0 -34 0 -34 -15c0 -9 5 -14 14 -14l2 1h3c1 0 3 -1 5 -4
c0 -5 -19 -14 -26 -14c-8 0 -21 10 -24 10c-4 0 -21 -14 -52 -43c-2 0 -3 1 -3 2l1 2v3c0 1 0 2 -1 3c-17 -12 -57 -37 -74 -54c-2 5 3 13 3 23v4c-22 -15 -44 -24 -67 -27c19 7 47 28 84 61c2 -2 3 -4 3 -5c0 -3 -2 -10 0 -12c17 12 29 22 37 30c19 19 62 19 62 45
c0 3 0 5 -1 6l-30 -16c-15 -8 -26 -15 -34 -21c-2 1 -3 2 -3 4c0 3 3 7 3 8s-1 2 -3 2l-5 -3c-10 -8 -43 -27 -59 -35c-3 7 -4 15 -4 24c-17 -7 -58 -20 -74 -27c0 2 -1 3 -3 3c49 29 82 51 101 64c0 -9 1 -17 3 -24c18 7 53 30 58 30c3 0 5 -2 6 -6c18 7 29 15 34 24
c-29 -7 -55 -15 -78 -24c-2 2 -3 4 -3 6c0 1 3 7 3 8l-33 -7c-16 -3 -28 -6 -37 -7c0 4 4 10 4 13v2c-1 1 -1 1 -1 2c-12 0 -42 -3 -54 -3l35 16c20 8 35 16 46 24v-5c0 -13 -6 -19 -3 -22c32 5 52 9 60 14l4 2c1 0 9 -10 13 -10c6 0 12 19 24 31c5 0 8 2 8 5
c0 9 -9 13 -26 13c-8 0 -32 -4 -41 -4c-3 0 -7 9 -8 9c-3 0 -13 -2 -28 -7s-24 -8 -28 -8c-3 0 -5 4 -5 12c-28 -19 -44 -28 -48 -28l-6 2c0 1 2 5 2 6s-1 3 -2 4c-9 -9 -34 -24 -50 -32l-11 -6c-2 1 -3 2 -3 4c0 3 3 7 3 8v2c-31 -21 -54 -34 -68 -41c-1 3 -1 6 -1 9
c0 4 1 12 1 15c-3 0 -12 -3 -27 -10c3 -3 11 -1 11 -4c0 -1 0 -2 -1 -3c0 -15 16 -43 16 -52c0 -10 -12 -15 -19 -22c-1 1 -1 2 -1 5s1 8 1 9c0 3 -1 5 -3 6c-7 -5 -11 -11 -11 -16c0 -4 7 -16 7 -17c0 -3 -8 -15 -11 -15c-1 0 -12 5 -16 5c-5 0 -8 -2 -8 -7
c0 -1 2 -10 2 -13c0 -8 -10 -13 -14 -13s-17 11 -21 11s-7 -4 -9 -12c-1 -5 -7 -9 -17 -14c-11 0 -15 21 -26 21c-7 0 -16 -14 -25 -14c-16 7 -15 30 -23 30c-12 0 -17 -14 -26 0c-11 11 -2 16 -2 25c0 4 -6 7 -17 9s-16 8 -16 18c0 4 13 14 13 19s-4 8 -13 10
c-5 3 -6 13 -7 14c0 9 19 12 19 19c0 4 -14 13 -14 16c0 10 5 16 15 19s15 5 15 7c0 1 -7 14 -7 18c0 3 9 10 13 10c1 0 12 -6 15 -6c4 0 6 3 6 8c0 1 -1 4 -1 7c0 15 22 23 39 23c4 0 14 -1 18 -1c5 0 21 6 28 6c5 0 7 -2 7 -7l-1 -1v-3c0 -4 5 -8 10 -11l3 -1
c4 0 8 13 12 13c5 0 7 -2 7 -5s-3 -12 -9 -27c39 69 94 105 166 108c-12 12 -35 19 -35 34c0 3 2 10 2 11s-11 4 -33 9s-33 13 -33 23c0 4 3 12 3 13c0 5 -4 8 -11 8h-5c-29 6 -44 15 -44 26c0 16 18 18 51 18h7c-20 15 -57 1 -57 30c0 1 1 4 1 5c0 5 -11 11 -33 20
s-33 17 -33 24c0 3 1 7 4 12c-33 15 -49 30 -49 44c0 7 7 14 22 20c-41 16 -76 46 -76 62c0 6 6 12 18 19c-43 34 -64 56 -64 66c0 6 5 12 14 19c-31 22 -47 39 -47 51c0 4 8 19 8 26c0 1 -6 9 -19 26c-12 17 -18 31 -18 41c0 11 4 17 11 17c16 4 58 -44 78 -57l14 -13
c89 -67 186 -127 290 -182c37 -20 68 -51 91 -92c0 -7 2 -11 7 -13c13 37 20 72 20 103c0 5 -24 22 -57 22c-5 0 -8 -2 -8 -6c0 -2 0 -3 1 -4c0 -5 -1 -7 -4 -7c-16 0 -23 24 -23 41c3 18 20 29 38 29c13 1 15 1 28 1c15 0 18 -3 30 -3c7 0 12 3 16 10c29 -1 56 -4 81 -7
c30 -4 28 -62 33 -95c0 -7 -9 -22 -9 -27c0 -13 16 -45 16 -57c-5 -5 -7 -8 -7 -10c2 -7 6 -25 8 -25c3 0 9 9 19 28c11 19 18 33 21 44c21 47 78 90 122 113c22 11 51 25 88 42s63 29 80 38l134 78c18 11 29 16 33 16c9 0 13 -4 13 -11c0 -3 -1 -8 -1 -9zM349 -115
c-22 9 -21 19 -24 19c-12 0 -22 -6 -27 -6c0 21 -10 44 -30 69c-19 25 -41 38 -65 38c-4 0 -10 -5 -10 -12c0 -2 10 -8 31 -19s31 -18 31 -22c0 -8 -8 -13 -23 -14s-22 -7 -22 -16c2 -3 4 -4 7 -4c7 0 17 5 21 5c14 0 34 -8 60 -25c12 -7 42 -36 45 -36c5 0 10 7 10 11
c0 3 -1 7 -4 12zM774 -75c-7 -1 -12 -2 -15 -2c-12 0 -26 6 -41 17s-23 17 -25 17c-5 0 -11 -6 -20 -18c25 -5 44 -22 44 -42c0 -3 -1 -10 -1 -13c0 -11 4 -12 10 -14l5 -2c5 0 7 2 7 5s-1 8 -1 9c7 19 35 28 58 28c14 0 26 -4 37 -12c5 -5 19 -2 19 9c0 1 -20 19 -62 19
c-7 0 -12 0 -15 -1zM261 -129c5 5 8 12 8 19c0 17 -10 25 -31 25c-26 0 -13 -25 -21 -25c-1 0 -5 2 -13 5c0 -25 12 -37 36 -37c9 0 16 4 21 13zM751 -149c-4 9 -11 14 -21 14h-10c10 -9 20 -14 31 -14zM835 -115c0 7 -2 10 -7 10c-7 0 -10 -6 -10 -17c1 1 3 1 6 1h4
c3 0 6 2 7 6zM579 500c0 8 -14 8 -14 0c0 -9 14 -9 14 0z" />
    <glyph glyph-name="e.ce" horiz-adv-x="568" 
d="M532 230v-9c0 -5 -3 -8 -8 -8h-413c4 -50 23 -92 56 -127c34 -35 81 -52 141 -52c63 0 122 19 177 57c5 3 9 3 11 -1l15 -22c3 -3 1 -7 -5 -12c-58 -44 -125 -66 -201 -66c-77 0 -137 22 -180 66c-43 45 -65 102 -65 173c0 74 22 133 67 178s101 68 168 68
s124 -22 169 -67s68 -104 68 -178zM295 431c-49 0 -91 -17 -125 -52c-34 -34 -53 -77 -58 -128h369c-5 51 -24 94 -59 128c-34 35 -76 52 -127 52z" />
    <glyph glyph-name="b.opt" horiz-adv-x="594" 
d="M142 733v-326c47 45 101 68 164 68c67 0 122 -22 167 -66s67 -103 67 -178s-23 -134 -69 -177c-45 -43 -101 -64 -166 -64s-120 23 -167 68l-8 -52c-1 -4 -3 -6 -5 -6h-32c-3 0 -5 2 -5 6v728c0 4 2 6 7 6h40c5 0 7 -2 7 -7zM483 231c0 57 -17 104 -51 141
c-33 37 -76 55 -128 55c-64 0 -126 -31 -162 -79v-233c37 -51 102 -77 161 -77c49 0 92 18 127 53s53 82 53 140z" />
    <glyph glyph-name="d.opt" horiz-adv-x="586" 
d="M287 475c63 0 116 -21 157 -62v320c0 5 2 7 7 7h40c5 0 7 -2 7 -6v-728c0 -4 -2 -6 -5 -6h-32c-2 0 -4 2 -5 6l-8 50c-44 -44 -98 -66 -161 -66c-64 0 -119 22 -165 67c-45 45 -68 104 -68 178s23 132 70 175s102 65 163 65zM293 38c63 0 113 24 151 71v249
c-38 46 -88 69 -151 69c-48 0 -91 -18 -128 -54c-37 -35 -55 -81 -55 -138s18 -104 53 -141s79 -56 130 -56z" />
    <glyph glyph-name="e.opt" horiz-adv-x="553" 
d="M502 245v-8c0 -5 -3 -8 -9 -8h-383v-2c0 -55 15 -101 46 -137c31 -35 81 -53 148 -53c60 0 123 14 189 41c9 3 9 2 9 -5v-30c0 -6 -2 -10 -5 -12c-67 -27 -136 -41 -207 -41c-80 0 -139 22 -177 66c-38 45 -57 101 -57 170c0 74 21 134 64 180s96 69 158 69
c64 0 117 -21 160 -63s64 -98 64 -167zM278 431c-85 0 -149 -64 -165 -159h336c-5 45 -24 83 -56 113c-31 31 -70 46 -115 46z" />
    <glyph glyph-name="g.opt" horiz-adv-x="592" 
d="M449 25v28c-43 -42 -96 -63 -158 -63c-65 0 -120 22 -165 67s-68 104 -68 178s23 132 70 175s102 65 163 65c62 0 115 -21 158 -63v37c0 13 2 16 11 16h33c9 0 11 -2 11 -11v-428c0 -178 -106 -229 -226 -229c-62 0 -122 13 -180 40c-6 3 -9 8 -9 15v26c0 8 5 10 14 6
c61 -26 117 -39 168 -39c109 0 178 47 178 180zM296 38c63 0 114 24 153 72v246c-38 47 -89 71 -153 71c-48 0 -90 -18 -127 -54c-37 -35 -55 -81 -55 -138s17 -104 52 -141s79 -56 130 -56z" />
    <glyph glyph-name="h.opt" horiz-adv-x="585" 
d="M151 732v-330c42 49 100 73 174 73c121 0 181 -64 181 -192v-275c0 -5 -3 -8 -8 -8h-39c-5 0 -7 3 -7 8v269c0 99 -45 149 -136 149c-62 0 -117 -27 -165 -80v-338c0 -5 -3 -8 -8 -8h-40c-4 0 -6 3 -6 9v722c0 6 3 9 8 9h36c7 0 10 -3 10 -8z" />
    <glyph glyph-name="m.opt" horiz-adv-x="857" 
d="M142 458v-49c40 44 90 66 150 66c73 0 121 -27 146 -82c41 55 96 82 165 82c111 0 166 -64 166 -192v-274c0 -6 -2 -9 -7 -9h-41c-4 0 -6 3 -6 10v269c0 98 -42 147 -125 147c-52 0 -98 -25 -139 -75c5 -23 7 -46 7 -68v-275c0 -5 -3 -8 -8 -8h-39c-5 0 -7 3 -7 10v269
c0 98 -41 147 -124 147c-53 0 -99 -24 -138 -73v-346c0 -5 -2 -7 -7 -7h-40c-5 0 -7 3 -7 8v449c0 5 2 8 7 8h39c5 0 8 -2 8 -7z" />
    <glyph glyph-name="n.opt" horiz-adv-x="575" 
d="M142 458v-53c41 47 96 70 164 70c121 0 181 -64 181 -192v-275c0 -5 -3 -8 -8 -8h-39c-5 0 -7 3 -7 8v269c0 99 -45 149 -136 149c-61 0 -113 -25 -155 -76v-343c0 -5 -2 -7 -7 -7h-40c-5 0 -7 3 -7 8v449c0 5 2 8 7 8h39c5 0 8 -2 8 -7z" />
    <glyph glyph-name="p.opt" horiz-adv-x="602" 
d="M151 459v-48c45 43 99 64 160 64c67 0 122 -22 167 -66s67 -103 67 -178s-23 -134 -69 -177c-45 -43 -101 -64 -166 -64c-61 0 -114 20 -159 61v-241c0 -5 -2 -8 -7 -8h-40c-5 0 -7 3 -7 8v648c0 5 2 7 7 7h40c5 0 7 -2 7 -6zM488 231c0 57 -17 104 -51 141
c-33 37 -76 55 -128 55c-63 0 -122 -29 -158 -74v-243c37 -48 100 -72 157 -72c49 0 92 18 127 53s53 82 53 140z" />
    <glyph glyph-name="q.opt" horiz-adv-x="588" 
d="M446 -191l-1 248c-43 -45 -97 -67 -161 -67c-65 0 -120 22 -165 67s-68 104 -68 178s23 132 70 175s102 65 163 65c63 0 117 -22 161 -66v47c0 6 2 9 7 9h41c5 0 7 -3 7 -9v-647c0 -5 -3 -7 -8 -7h-39c-5 0 -7 2 -7 7zM289 38c65 0 117 26 156 77v238
c-37 49 -89 74 -156 74c-48 0 -90 -18 -127 -54c-37 -35 -55 -81 -55 -138s17 -104 52 -141s79 -56 130 -56z" />
    <glyph glyph-name="r.opt" horiz-adv-x="388" 
d="M97 465h33c6 0 9 -3 9 -10l1 -52c31 48 71 72 121 72c14 0 32 -4 53 -12c5 -2 7 -6 7 -11v-29c0 -5 -3 -6 -9 -5c-18 7 -34 10 -48 10c-44 0 -85 -26 -122 -78v-342c0 -5 -3 -8 -8 -8h-39c-5 0 -7 2 -7 7v446c0 8 3 12 9 12z" />
    <glyph glyph-name="s.opt" horiz-adv-x="442" 
d="M234 430c-66 0 -99 -22 -99 -65s37 -70 84 -87c67 -23 153 -51 153 -155c0 -89 -54 -133 -163 -133c-27 0 -55 3 -83 9c-27 6 -45 12 -53 18c-4 3 -6 7 -6 12v32c0 5 3 7 10 4c33 -20 75 -30 127 -30c77 0 115 30 115 89c0 48 -37 78 -84 94c-68 25 -154 49 -154 145
c0 75 54 112 146 112c49 0 88 -9 118 -26c7 -5 11 -10 11 -17v-27c0 -7 -4 -9 -13 -4c-35 19 -71 29 -109 29z" />
    <glyph glyph-name="C.opt" horiz-adv-x="648" 
d="M421 659c-96 0 -170 -30 -222 -89c-51 -59 -77 -132 -77 -218c0 -87 26 -160 77 -220c52 -59 124 -89 217 -89c25 0 49 2 70 5c21 4 38 8 50 12c13 5 29 11 50 20c8 5 12 4 12 -3v-37c0 -5 -3 -9 -9 -12c-61 -25 -118 -38 -173 -38c-111 0 -197 35 -260 104
c-62 69 -93 155 -93 257s31 187 93 256c63 69 151 104 265 104c62 0 117 -13 166 -40c7 -4 11 -9 11 -15v-31c0 -7 -4 -9 -13 -5c-29 15 -55 25 -77 30c-22 6 -51 9 -87 9z" />
    </font>
</defs>
</svg>
